<?xml version="1.0" standalone="no"?>
<!DOCTYPE svg PUBLIC "-//W3C//DTD SVG 20010904//EN"
 "http://www.w3.org/TR/2001/REC-SVG-20010904/DTD/svg10.dtd">
<svg version="1.0" xmlns="http://www.w3.org/2000/svg"
 width="587.000000pt" height="587.000000pt" viewBox="0 0 587.000000 587.000000"
 preserveAspectRatio="xMidYMid meet">

<g transform="translate(0.000000,587.000000) scale(0.100000,-0.100000)"
fill="#000000" stroke="none">
<path d="M3195 5769 c-16 -5 -73 -17 -125 -25 -132 -22 -193 -57 -219 -126
-14 -38 -31 -213 -31 -327 0 -93 -1 -98 -27 -123 -58 -53 -125 -89 -220 -118
-135 -42 -219 -86 -276 -143 -64 -65 -81 -100 -74 -151 5 -38 3 -43 -33 -73
-21 -18 -43 -33 -48 -33 -5 0 -31 10 -58 22 -37 16 -78 23 -171 28 -95 5 -127
11 -142 24 -19 18 -42 71 -61 143 -18 70 -40 80 -180 81 -120 1 -121 1 -132
-24 -17 -37 6 -187 37 -239 70 -118 68 -112 75 -255 4 -74 8 -142 11 -150 6
-21 -43 -25 -80 -6 -41 22 -55 20 -90 -10 -28 -23 -35 -25 -63 -15 -40 14
-148 14 -184 0 -48 -18 -70 -4 -125 80 -67 104 -84 111 -206 90 -43 -8 -74
-20 -95 -37 -20 -17 -41 -25 -56 -23 -13 1 -37 -3 -53 -10 -24 -9 -38 -9 -68
1 -33 11 -42 10 -64 -5 -15 -9 -60 -21 -102 -26 -96 -12 -179 -43 -199 -74
-21 -31 -20 -94 0 -124 9 -13 31 -29 49 -37 21 -8 39 -27 52 -53 22 -44 18
-52 -27 -66 -66 -20 -68 -61 -6 -106 25 -17 50 -45 56 -63 19 -51 26 -60 53
-74 22 -11 31 -10 66 9 28 14 49 19 70 14 36 -8 177 -76 227 -110 20 -14 47
-25 58 -25 16 0 27 -11 39 -39 24 -54 62 -67 121 -41 43 18 44 18 49 0 3 -10
24 -28 48 -41 52 -26 61 -37 54 -67 -8 -34 11 -59 64 -87 29 -14 58 -39 71
-60 l22 -36 -26 -20 c-48 -38 -28 -93 75 -206 24 -26 44 -62 54 -96 20 -70 66
-117 158 -163 112 -56 127 -70 127 -111 0 -20 9 -46 20 -60 25 -32 26 -47 1
-33 -11 5 -36 10 -56 10 -28 0 -38 -5 -46 -24 -20 -43 35 -179 110 -274 45
-57 48 -62 26 -62 -23 0 -32 -28 -45 -144 -6 -61 -22 -155 -36 -210 -30 -127
-30 -147 1 -176 l25 -24 -20 -21 c-15 -15 -28 -59 -45 -141 -85 -418 -113
-499 -204 -595 -29 -30 -51 -63 -51 -75 0 -32 52 -70 115 -84 22 -5 29 -11 28
-26 -11 -90 2 -114 62 -114 17 0 61 -16 97 -35 37 -20 93 -40 125 -45 37 -6
60 -16 67 -27 5 -10 25 -33 44 -51 38 -36 55 -38 145 -14 36 10 39 9 65 -25
45 -58 107 -79 152 -51 15 10 26 10 53 0 79 -28 160 -10 224 51 23 22 36 27
45 20 7 -5 51 -22 98 -36 47 -15 114 -45 150 -67 66 -40 97 -48 129 -30 14 7
21 4 32 -16 15 -28 141 -144 178 -163 27 -15 65 0 82 31 13 24 35 23 93 -7 61
-31 95 -32 131 -3 45 35 89 46 151 35 112 -19 131 8 82 110 -31 65 -32 73 -31
176 1 60 5 116 8 125 3 9 22 28 42 42 20 14 41 30 47 35 6 6 21 17 33 25 11 8
72 54 135 101 62 47 121 89 131 92 10 4 31 0 47 -8 40 -21 82 -19 134 7 l45
21 43 -39 c63 -58 97 -70 139 -49 19 10 48 28 65 40 l30 23 26 -32 c16 -20 63
-50 123 -80 54 -27 114 -63 134 -81 20 -18 51 -40 69 -49 32 -17 37 -17 105 4
119 36 213 85 275 142 31 30 76 67 100 83 50 33 197 185 256 265 22 30 67 80
99 111 54 50 59 59 59 96 0 23 -5 51 -11 62 -24 45 -39 51 -124 51 -65 0 -92
5 -132 24 -119 57 -142 127 -74 233 16 26 29 55 29 66 0 37 -31 84 -70 106
-54 30 -82 68 -70 91 15 28 13 30 -22 31 -27 1 -23 3 16 10 66 11 116 53 135
111 12 41 12 52 -3 100 -19 56 -75 157 -110 197 -16 18 -18 25 -7 29 27 9 51
43 51 72 0 17 -16 62 -35 100 -20 39 -41 98 -48 133 -19 90 -36 120 -77 134
-43 16 -115 9 -175 -17 -37 -16 -45 -17 -45 -5 0 8 -6 14 -12 13 -22 -5 -10
44 24 97 55 89 67 113 74 152 4 27 21 54 58 93 29 30 70 78 92 105 21 28 52
62 67 76 15 14 31 39 36 55 7 26 12 29 59 34 45 5 58 12 101 54 59 58 68 87
45 141 -12 29 -16 66 -15 135 2 118 10 175 46 315 39 156 54 193 90 234 39 45
75 114 75 146 0 14 -11 32 -26 44 -34 27 -149 61 -203 61 -30 0 -52 8 -77 26
-30 23 -40 26 -77 19 -23 -3 -56 -9 -73 -12 -22 -3 -41 2 -69 22 -38 25 -54
26 -99 9 -11 -4 -25 10 -50 49 -60 93 -130 135 -205 123 -20 -3 -94 -1 -165 4
-115 8 -132 11 -169 36 -23 15 -69 42 -101 60 -106 56 -130 92 -120 177 7 58
-10 89 -54 102 -19 5 -32 -3 -77 -49 -52 -55 -68 -62 -112 -50 -18 5 -23 14
-23 38 0 47 -27 120 -54 145 -12 12 -59 32 -104 45 -109 31 -222 113 -240 173
-20 68 -81 103 -179 103 -48 0 -83 26 -83 60 0 34 -29 80 -56 90 -30 12 -49
11 -89 -1z m81 -86 c37 -98 56 -111 168 -123 79 -9 101 -26 112 -85 5 -30 19
-43 103 -99 61 -41 114 -69 146 -76 113 -26 126 -41 135 -155 l5 -70 39 -13
c57 -18 138 1 172 41 25 29 25 29 19 5 -5 -18 -2 -27 9 -31 8 -3 20 -24 27
-46 15 -51 55 -89 149 -141 41 -23 93 -52 115 -66 32 -18 66 -26 155 -34 63
-6 132 -8 153 -5 90 16 157 -21 201 -111 30 -60 56 -84 89 -84 16 0 36 8 44
18 11 12 16 14 20 4 7 -18 58 -42 90 -42 15 0 46 6 68 14 37 13 41 13 72 -11
26 -20 43 -25 90 -24 61 1 148 -22 173 -45 20 -19 0 -72 -51 -136 -38 -49 -50
-80 -88 -233 -52 -205 -68 -424 -36 -485 14 -27 14 -33 0 -59 -16 -33 -61 -71
-81 -71 -7 0 -28 9 -46 20 -40 24 -76 25 -106 4 -25 -17 -29 -52 -7 -80 8 -10
15 -25 15 -32 0 -17 -132 -178 -186 -226 -33 -29 -44 -46 -44 -68 0 -38 -20
-84 -62 -144 -39 -55 -54 -95 -63 -171 -4 -30 -17 -65 -31 -84 -28 -38 -31
-75 -7 -101 19 -21 69 -24 88 -4 30 29 65 90 65 112 0 50 104 97 164 74 25 -9
26 -12 58 -135 5 -22 25 -69 44 -105 19 -35 34 -69 34 -75 0 -5 -16 -23 -35
-38 -19 -15 -35 -36 -35 -45 0 -10 18 -40 41 -67 45 -55 80 -119 99 -180 18
-61 -5 -110 -57 -124 -21 -6 -53 -11 -70 -11 -24 0 -37 -7 -50 -26 -16 -25
-16 -28 2 -61 29 -53 94 -122 121 -129 30 -8 54 -40 54 -73 0 -13 -11 -43 -25
-66 -69 -119 -30 -217 113 -283 41 -18 71 -24 127 -25 68 0 74 -2 89 -28 9
-15 16 -32 16 -39 0 -6 -26 -39 -58 -73 -32 -34 -75 -84 -97 -112 -64 -82
-206 -224 -250 -250 -23 -13 -58 -44 -79 -69 -26 -32 -58 -56 -109 -80 -76
-36 -180 -70 -209 -68 -9 0 -41 21 -72 46 -30 24 -93 63 -139 85 -60 28 -93
51 -116 80 -41 51 -62 52 -127 6 -27 -19 -57 -35 -66 -35 -10 0 -40 20 -68 45
-57 51 -85 56 -143 25 -44 -24 -63 -25 -111 -5 -34 14 -40 14 -81 -4 -25 -11
-69 -39 -99 -63 -29 -24 -106 -83 -171 -133 -64 -49 -123 -102 -131 -117 -10
-19 -14 -64 -14 -152 0 -102 4 -133 20 -171 11 -26 20 -47 20 -48 0 -1 -29 -2
-63 -2 -53 0 -75 -6 -127 -33 l-63 -33 -49 25 c-60 31 -106 33 -141 6 -14 -11
-31 -20 -37 -20 -23 0 -120 91 -147 137 l-26 45 -60 -6 c-55 -6 -63 -4 -116
29 -47 29 -250 105 -280 105 -5 0 -33 -20 -62 -45 -45 -38 -59 -45 -96 -45
-24 0 -60 7 -79 15 -31 13 -40 13 -70 0 -43 -18 -57 -12 -110 43 -41 42 -46
44 -81 38 -118 -22 -117 -22 -149 25 -24 35 -38 46 -69 52 -103 21 -125 28
-192 68 -69 39 -73 44 -73 77 0 37 -31 82 -57 82 -8 0 -35 9 -60 21 l-45 20
23 27 c13 15 27 29 30 32 10 9 74 124 91 165 10 22 26 81 37 130 29 133 58
271 74 344 12 57 16 66 41 72 40 11 56 28 56 61 0 30 -41 78 -66 78 -19 0 -18
36 5 128 11 42 22 98 26 124 7 52 23 75 61 84 30 8 69 -24 90 -73 16 -37 26
-45 48 -37 21 8 21 76 1 134 -22 62 -64 114 -136 169 -44 33 -71 63 -87 95
-28 56 -25 71 19 80 17 3 38 14 45 24 22 28 17 98 -10 140 -13 20 -27 53 -30
73 -8 46 -20 55 -134 114 -103 52 -135 84 -161 160 -9 28 -34 72 -54 99 l-38
48 26 24 c35 32 31 89 -9 130 -6 6 -27 31 -46 56 -19 25 -56 60 -81 78 -35 23
-45 36 -42 51 10 35 -7 69 -46 94 -22 13 -46 37 -53 52 -16 34 -51 40 -103 19
-50 -21 -72 -20 -80 3 -13 42 -46 71 -79 71 -22 0 -46 10 -71 30 -21 17 -42
30 -47 30 -5 0 -39 14 -76 31 -69 33 -120 40 -183 26 -36 -7 -36 -7 -54 40
l-18 46 42 36 c37 32 42 40 36 64 -4 15 -11 30 -16 33 -5 2 -11 27 -15 55 -8
57 -9 58 -78 73 -44 10 -51 15 -54 38 -2 19 -8 25 -18 21 -9 -3 -14 1 -14 11
0 25 72 52 168 65 45 6 91 15 102 21 14 7 28 6 54 -7 33 -15 39 -15 68 -2 24
11 40 13 59 6 37 -14 56 -4 73 36 13 32 19 35 81 47 79 15 99 8 131 -48 12
-20 41 -59 65 -85 42 -48 43 -49 88 -42 137 18 169 17 223 -7 54 -25 78 -26
78 -4 0 7 6 21 14 31 12 17 16 17 30 6 20 -17 167 -17 197 0 19 10 19 12 5 32
-9 12 -24 33 -33 46 -13 18 -19 55 -24 150 -6 132 -13 156 -74 256 -16 27 -27
67 -33 115 -5 41 -9 76 -8 76 0 1 46 -2 100 -5 l100 -6 16 -55 c23 -77 56
-137 86 -156 19 -13 60 -19 155 -24 112 -7 137 -11 180 -34 28 -14 57 -26 65
-26 8 0 31 15 51 34 21 18 57 45 81 60 23 14 42 30 42 34 0 5 -11 19 -25 32
-14 13 -25 29 -25 36 0 25 82 115 133 144 28 17 90 42 137 56 240 71 354 173
335 299 -8 59 13 302 30 336 20 38 68 58 190 78 163 28 163 28 181 -16z m934
-527 c0 -3 -4 -8 -10 -11 -5 -3 -10 -1 -10 4 0 6 5 11 10 11 6 0 10 -2 10 -4z"/>
<path d="M3671 4499 c-33 -13 -50 -38 -50 -74 0 -73 86 -108 142 -58 17 16 23
66 11 98 -6 15 -54 46 -71 44 -4 0 -19 -5 -32 -10z"/>
<path d="M3621 4150 c-39 -33 -36 -43 12 -45 17 0 38 -4 45 -9 7 -4 16 -5 19
-2 7 7 -27 86 -36 86 -3 -1 -21 -14 -40 -30z"/>
<path d="M3783 4169 c-36 -11 -48 -45 -13 -36 11 3 23 1 26 -4 8 -14 24 -11
24 5 0 7 9 16 20 19 11 3 20 10 20 16 0 13 -32 13 -77 0z"/>
<path d="M3810 4085 c0 -8 7 -15 15 -15 8 0 15 7 15 15 0 8 -7 15 -15 15 -8 0
-15 -7 -15 -15z"/>
<path d="M3626 4065 c-4 -12 -1 -16 11 -13 18 3 21 20 5 26 -5 1 -12 -4 -16
-13z"/>
<path d="M3833 4042 c-7 -4 -9 -13 -5 -19 4 -7 13 -9 19 -5 7 4 9 13 5 19 -4
7 -13 9 -19 5z"/>
<path d="M3620 4005 c0 -8 4 -15 9 -15 5 0 11 7 15 15 3 9 0 15 -9 15 -8 0
-15 -7 -15 -15z"/>
<path d="M3840 3975 c0 -8 7 -15 15 -15 8 0 15 7 15 15 0 8 -7 15 -15 15 -8 0
-15 -7 -15 -15z"/>
<path d="M3610 3955 c0 -9 5 -15 11 -13 6 2 11 8 11 13 0 5 -5 11 -11 13 -6 2
-11 -4 -11 -13z"/>
<path d="M3863 3932 c-7 -4 -9 -13 -5 -19 4 -7 13 -9 19 -5 7 4 9 13 5 19 -4
7 -13 9 -19 5z"/>
<path d="M3600 3894 c0 -9 5 -14 12 -12 18 6 21 28 4 28 -9 0 -16 -7 -16 -16z"/>
<path d="M3870 3865 c0 -8 7 -15 15 -15 8 0 15 7 15 15 0 8 -7 15 -15 15 -8 0
-15 -7 -15 -15z"/>
<path d="M3592 3844 c3 -17 21 -21 26 -6 1 5 -4 12 -13 16 -11 4 -15 1 -13
-10z"/>
<path d="M3896 3823 c-11 -11 -6 -23 9 -23 8 0 15 4 15 9 0 13 -16 22 -24 14z"/>
<path d="M3580 3785 c0 -8 7 -15 15 -15 8 0 15 7 15 15 0 8 -7 15 -15 15 -8 0
-15 -7 -15 -15z"/>
<path d="M3902 3758 c6 -18 28 -21 28 -4 0 9 -7 16 -16 16 -9 0 -14 -5 -12
-12z"/>
<path d="M3570 3725 c0 -8 7 -15 15 -15 8 0 15 7 15 15 0 8 -7 15 -15 15 -8 0
-15 -7 -15 -15z"/>
<path d="M3920 3705 c0 -8 7 -15 15 -15 8 0 15 7 15 15 0 8 -7 15 -15 15 -8 0
-15 -7 -15 -15z"/>
<path d="M3560 3675 c0 -8 7 -15 15 -15 8 0 15 7 15 15 0 8 -7 15 -15 15 -8 0
-15 -7 -15 -15z"/>
<path d="M3932 3648 c5 -15 28 -18 29 -3 0 6 -7 12 -17 13 -10 3 -15 -1 -12
-10z"/>
<path d="M3550 3615 c0 -8 7 -15 15 -15 8 0 15 7 15 15 0 8 -7 15 -15 15 -8 0
-15 -7 -15 -15z"/>
<path d="M3950 3595 c0 -8 7 -15 15 -15 8 0 15 7 15 15 0 8 -7 15 -15 15 -8 0
-15 -7 -15 -15z"/>
<path d="M3546 3573 c-11 -11 -6 -23 9 -23 8 0 15 4 15 9 0 13 -16 22 -24 14z"/>
<path d="M3973 3552 c-7 -4 -9 -13 -5 -19 4 -7 13 -9 19 -5 7 4 9 13 5 19 -4
7 -13 9 -19 5z"/>
<path d="M3530 3505 c0 -8 7 -15 15 -15 8 0 15 7 15 15 0 8 -7 15 -15 15 -8 0
-15 -7 -15 -15z"/>
<path d="M3980 3485 c0 -8 7 -15 15 -15 8 0 15 7 15 15 0 8 -7 15 -15 15 -8 0
-15 -7 -15 -15z"/>
<path d="M3522 3448 c6 -18 28 -21 28 -4 0 9 -7 16 -16 16 -9 0 -14 -5 -12
-12z"/>
<path d="M4003 3442 c-7 -4 -9 -13 -5 -19 5 -8 13 -9 22 -3 10 6 11 13 5 19
-6 6 -16 7 -22 3z"/>
<path d="M3510 3395 c0 -8 7 -15 15 -15 8 0 15 7 15 15 0 8 -7 15 -15 15 -8 0
-15 -7 -15 -15z"/>
<path d="M4012 3378 c6 -18 28 -21 28 -4 0 9 -7 16 -16 16 -9 0 -14 -5 -12
-12z"/>
<path d="M3502 3338 c6 -18 28 -21 28 -4 0 9 -7 16 -16 16 -9 0 -14 -5 -12
-12z"/>
<path d="M4030 3326 c0 -9 7 -16 16 -16 9 0 14 5 12 12 -6 18 -28 21 -28 4z"/>
<path d="M3497 3293 c-12 -11 -8 -23 8 -23 8 0 15 7 15 15 0 16 -12 20 -23 8z"/>
<path d="M4042 3268 c6 -18 28 -21 28 -4 0 9 -7 16 -16 16 -9 0 -14 -5 -12
-12z"/>
<path d="M3487 3234 c-8 -8 1 -24 14 -24 5 0 9 7 9 15 0 15 -12 20 -23 9z"/>
<path d="M4060 3215 c0 -8 7 -15 15 -15 8 0 15 7 15 15 0 8 -7 15 -15 15 -8 0
-15 -7 -15 -15z"/>
<path d="M3476 3175 c-2 -7 1 -16 9 -19 7 -2 16 1 19 9 2 7 -1 16 -9 19 -7 2
-16 -1 -19 -9z"/>
<path d="M4083 3172 c-7 -4 -9 -13 -5 -19 4 -7 13 -9 19 -5 7 4 9 13 5 19 -4
7 -13 9 -19 5z"/>
<path d="M3470 3115 c0 -9 5 -15 11 -13 6 2 11 8 11 13 0 5 -5 11 -11 13 -6 2
-11 -4 -11 -13z"/>
<path d="M4090 3105 c0 -8 7 -15 15 -15 8 0 15 7 15 15 0 8 -7 15 -15 15 -8 0
-15 -7 -15 -15z"/>
<path d="M3460 3054 c0 -9 5 -14 12 -12 18 6 21 28 4 28 -9 0 -16 -7 -16 -16z"/>
<path d="M4113 3062 c-7 -4 -9 -13 -5 -19 4 -7 13 -9 19 -5 7 4 9 13 5 19 -4
7 -13 9 -19 5z"/>
<path d="M3450 3006 c0 -9 7 -16 16 -16 9 0 14 5 12 12 -6 18 -28 21 -28 4z"/>
<path d="M4120 2995 c0 -8 7 -15 15 -15 8 0 15 7 15 15 0 8 -7 15 -15 15 -8 0
-15 -7 -15 -15z"/>
<path d="M3440 2944 c0 -9 5 -14 12 -12 18 6 21 28 4 28 -9 0 -16 -7 -16 -16z"/>
<path d="M4146 2953 c-11 -11 -6 -23 9 -23 8 0 15 4 15 9 0 13 -16 22 -24 14z"/>
<path d="M3430 2896 c0 -9 7 -16 16 -16 17 0 14 22 -4 28 -7 2 -12 -3 -12 -12z"/>
<path d="M4152 2888 c6 -18 28 -21 28 -4 0 9 -7 16 -16 16 -9 0 -14 -5 -12
-12z"/>
<path d="M3420 2835 c0 -8 7 -15 15 -15 8 0 15 7 15 15 0 8 -7 15 -15 15 -8 0
-15 -7 -15 -15z"/>
<path d="M4170 2836 c0 -9 7 -16 16 -16 9 0 14 5 12 12 -6 18 -28 21 -28 4z"/>
<path d="M4212 2809 c-10 -16 -19 -19 -43 -14 -38 9 -37 -7 3 -39 37 -29 43
-27 63 21 21 50 3 74 -23 32z"/>
<path d="M3412 2779 c2 -6 8 -10 13 -10 5 0 11 4 13 10 2 6 -4 11 -13 11 -9 0
-15 -5 -13 -11z"/>
<path d="M3400 2725 c0 -8 7 -15 15 -15 8 0 15 7 15 15 0 8 -7 15 -15 15 -8 0
-15 -7 -15 -15z"/>
<path d="M3392 2668 c6 -18 28 -21 28 -4 0 9 -7 16 -16 16 -9 0 -14 -5 -12
-12z"/>
<path d="M3380 2615 c0 -8 7 -15 15 -15 8 0 15 7 15 15 0 8 -7 15 -15 15 -8 0
-15 -7 -15 -15z"/>
<path d="M4223 2585 c-78 -55 -12 -182 76 -145 57 23 67 94 20 134 -35 29 -65
33 -96 11z"/>
<path d="M3370 2555 c0 -8 7 -15 15 -15 8 0 15 7 15 15 0 8 -7 15 -15 15 -8 0
-15 -7 -15 -15z"/>
<path d="M3366 2513 c-11 -11 -6 -23 9 -23 8 0 15 4 15 9 0 13 -16 22 -24 14z"/>
<path d="M3350 2445 c0 -8 7 -15 15 -15 8 0 15 7 15 15 0 8 -7 15 -15 15 -8 0
-15 -7 -15 -15z"/>
<path d="M3340 2391 c0 -5 7 -11 15 -15 9 -3 15 0 15 9 0 8 -7 15 -15 15 -8 0
-15 -4 -15 -9z"/>
<path d="M3337 2343 c-12 -11 -8 -23 8 -23 8 0 15 7 15 15 0 16 -12 20 -23 8z"/>
<path d="M3327 2284 c-8 -8 1 -24 13 -24 4 0 10 7 14 15 5 15 -14 21 -27 9z"/>
<path d="M3316 2225 c-4 -12 -1 -16 11 -13 18 3 21 20 5 26 -5 1 -12 -4 -16
-13z"/>
<path d="M3310 2164 c0 -9 5 -14 12 -12 18 6 21 28 4 28 -9 0 -16 -7 -16 -16z"/>
<path d="M3300 2120 c0 -6 -12 -10 -26 -10 -43 0 -22 -24 30 -34 33 -6 51 -5
59 3 9 9 6 13 -11 17 -12 4 -22 10 -22 14 0 4 -7 10 -15 14 -8 3 -15 1 -15 -4z"/>
<path d="M3225 1908 c-50 -29 -59 -81 -21 -124 18 -22 32 -28 61 -27 49 1 77
29 78 78 2 63 -64 104 -118 73z"/>
<path d="M3138 1568 c-38 -22 -55 -57 -20 -43 43 18 50 17 54 -6 2 -12 9 -25
17 -27 11 -4 13 4 7 39 -4 24 -10 47 -14 51 -4 4 -24 -3 -44 -14z"/>
<path d="M3136 1523 c-11 -11 -6 -23 9 -23 8 0 15 4 15 9 0 13 -16 22 -24 14z"/>
<path d="M3112 1458 c6 -18 28 -21 28 -4 0 9 -7 16 -16 16 -9 0 -14 -5 -12
-12z"/>
<path d="M3090 1404 c0 -9 5 -14 12 -12 18 6 21 28 4 28 -9 0 -16 -7 -16 -16z"/>
<path d="M3070 1355 c0 -9 5 -15 11 -13 6 2 11 8 11 13 0 5 -5 11 -11 13 -6 2
-11 -4 -11 -13z"/>
<path d="M3045 1309 c-10 -15 1 -23 20 -15 9 3 13 10 10 16 -8 13 -22 13 -30
-1z"/>
<path d="M3026 1261 c-3 -5 -15 -7 -25 -4 -10 3 -22 0 -26 -6 -4 -7 12 -19 40
-31 52 -22 65 -24 65 -11 0 17 -48 63 -54 52z"/>
<path d="M2865 1055 c-27 -26 -31 -54 -13 -88 46 -87 176 -39 152 57 -14 58
-95 76 -139 31z"/>
</g>
</svg>
