				<svg class="logo-favicon" xmlns="http://www.w3.org/2000/svg" viewBox="0 0 1024 1536" preserveAspectRatio="xMidYMid meet" aria-hidden="true" focusable="false">

					<g transform="translate(0.000000,1536.000000) scale(0.100000,-0.100000)" fill="#819067" stroke="none">
						<path d="M4960 15154 c-146 -16 -421 -86 -570 -145 -359 -141 -721 -403 -946 -685 -209 -262 -362 -584 -454 -954 -39 -156 -49 -228 -63 -425 -27 -378 29 -730 192 -1209 31 -89 143 -313 254 -506 246 -428 554 -776 957 -1079 293 -222 422 -293 609 -341 141 -36 162 -48 152 -92 -13 -56 -37 -90 -120 -173 -89 -87 -99 -115 -58 -152 47 -42 206 -79 295 -68 66 9 204 54 232 77 l23 19 -19 35 c-10 19 -47 68 -81 109 -61 73 -63 76 -63 133 0 72 20 94 100 112 30 7 147 57 259 112 165 82 226 118 323 192 66 50 135 101 153 113 18 12 44 33 58 45 13 13 35 32 48 43 165 141 209 188 449 475 79 94 309 434 389 576 169 299 301 720 346 1107 29 252 15 650 -30 842 -71 301 -174 569 -293 767 -183 302 -348 498 -547 646 -189 141 -299 201 -520 280 -265 94 -465 134 -765 151 -189 10 -172 10 -310 -5z m-870 -491 c-69 -23 -73 -23 -60 -8 7 8 27 15 44 14 17 0 24 -3 16 -6z m5 -63 c3 -5 1 -10 -4 -10 -6 0 -11 5 -11 10 0 6 2 10 4 10 3 0 8 -4 11 -10z m35 0 c0 -5 -2 -10 -4 -10 -3 0 -8 5 -11 10 -3 6 -1 10 4 10 6 0 11 -4 11 -10z m-95 -24 c18 -13 18 -14 -6 -27 -13 -7 -27 -14 -31 -15 -5 -1 -9 -2 -10 -4 -2 -1 -15 -3 -29 -4 -18 -1 -25 3 -22 11 3 7 9 11 13 8 7 -4 54 11 70 23 2 2 -2 7 -10 12 -8 6 -10 10 -4 10 5 0 19 -6 29 -14z m301 -140 c0 -24 -4 -48 -8 -52 -5 -4 -8 -14 -8 -23 0 -9 -6 -27 -13 -41 -19 -37 -14 -97 10 -120 12 -10 24 -16 27 -13 3 4 6 1 6 -6 0 -22 30 -45 43 -32 17 17 29 13 22 -9 -5 -15 -3 -18 9 -14 52 20 -37 -98 -91 -121 -22 -9 -31 -19 -27 -29 6 -15 -32 -81 -64 -113 -34 -33 -63 -82 -77 -130 -8 -26 -31 -73 -51 -103 -51 -78 -81 -140 -89 -186 -4 -21 -13 -46 -19 -54 -7 -8 -17 -26 -23 -40 -6 -14 -23 -51 -38 -82 -14 -32 -28 -70 -31 -85 -3 -16 -13 -42 -23 -58 -10 -17 -21 -43 -25 -58 -4 -16 -13 -27 -24 -27 -15 0 -15 -2 -2 -10 13 -9 13 -12 -2 -21 -10 -5 -18 -19 -18 -29 0 -14 -7 -20 -22 -20 -20 0 -21 -1 -3 -20 12 -13 14 -20 5 -20 -10 0 -10 -3 0 -14 9 -12 8 -15 -12 -13 -13 2 -34 8 -46 16 -13 7 -26 10 -29 8 -2 -3 5 -8 16 -12 12 -3 19 -11 16 -16 -4 -5 3 -9 14 -9 12 0 21 -4 21 -10 0 -5 6 -9 13 -7 19 3 21 -52 1 -74 -9 -10 -19 -17 -23 -15 -3 2 -29 5 -56 7 -53 3 -67 7 -155 46 -66 30 -74 41 -54 71 8 13 13 29 10 35 -2 7 -5 3 -5 -7 -1 -16 -4 -17 -13 -8 -10 10 -6 18 15 39 16 16 27 22 27 14 0 -11 3 -11 15 -1 8 7 12 16 9 21 -3 5 2 12 11 15 14 6 14 8 -1 18 -14 11 -15 16 -4 36 11 20 10 22 -4 17 -9 -4 -16 -2 -16 3 0 6 -7 10 -15 10 -8 0 -15 5 -15 10 0 6 6 10 13 10 8 0 8 3 1 8 -14 10 -26 42 -14 42 5 0 12 -4 15 -10 3 -5 12 -10 18 -10 7 1 2 9 -10 19 -24 20 -37 67 -22 77 6 3 10 27 9 52 -1 85 6 126 33 196 15 37 27 77 27 87 0 19 40 123 71 181 10 20 19 42 19 47 0 6 16 32 36 58 20 26 40 58 45 71 5 13 20 39 34 58 14 19 37 51 52 71 28 38 37 73 20 73 -6 0 -3 8 6 18 10 10 17 26 17 35 0 9 8 21 18 26 16 10 16 10 0 11 -26 0 -22 20 5 21 12 1 25 1 30 0 7 -1 41 27 100 82 18 16 41 27 58 27 22 0 32 7 44 30 9 18 23 30 35 30 10 0 31 11 46 25 19 18 38 25 65 25 22 0 39 5 39 10 0 6 2 10 4 10 2 0 3 -20 2 -44z m364 -36 c0 -5 -9 -10 -21 -10 -11 0 -17 5 -14 10 3 6 13 10 21 10 8 0 14 -4 14 -10z m-979 -53 c-10 -9 -11 -8 -5 6 3 10 9 15 12 12 3 -3 0 -11 -7 -18z m29 -7 c0 -5 -5 -10 -11 -10 -5 0 -7 5 -4 10 3 6 8 10 11 10 2 0 4 -4 4 -10z m820 -50 c0 -5 -7 -7 -15 -4 -8 4 -15 8 -15 10 0 2 7 4 15 4 8 0 15 -4 15 -10z m-23 -25 c0 -8 -4 -15 -9 -15 -4 0 -18 -11 -30 -25 -16 -19 -24 -22 -35 -14 -22 19 -15 29 30 49 23 11 42 20 43 20 0 0 1 -7 1 -15z m-667 -45 c0 -5 -4 -10 -9 -10 -6 0 -13 5 -16 10 -3 6 1 10 9 10 9 0 16 -4 16 -10z m588 -37 c-5 -23 -21 -20 -24 4 -3 17 0 21 12 16 8 -3 14 -12 12 -20z m-942 -101 c-1 -18 -40 -71 -63 -85 -7 -5 -9 0 -6 13 3 11 10 20 15 20 5 0 7 4 3 9 -3 6 7 21 22 35 33 31 31 30 29 8z m16 -1034 c-10 -10 -7 -15 10 -25 19 -10 20 -12 5 -13 -10 0 -15 -4 -12 -10 3 -5 -1 -10 -9 -10 -8 0 -18 5 -21 10 -3 6 -1 10 5 10 7 0 9 7 6 16 -7 19 0 34 17 34 8 0 8 -3 -1 -12z m1591 -3395 c4 -18 2 -33 -2 -33 -5 0 -16 -3 -25 -6 -23 -9 -21 32 2 45 9 6 12 11 7 11 -6 0 -11 9 -11 20 0 30 22 3 29 -37z"/>
						<path d="M3910 14165 c-7 -9 -10 -18 -7 -21 3 -3 10 4 17 15 13 25 8 27 -10 6z"/>
						<path d="M3631 13158 c1 -16 3 -18 6 -7 3 11 11 15 26 12 18 -4 19 -3 7 6 -24 17 -40 13 -39 -11z"/>
						<path d="M3575 13050 c-3 -5 -1 -10 4 -10 6 0 11 5 11 10 0 6 -2 10 -4 10 -3 0 -8 -4 -11 -10z"/>
						<path d="M5246 9293 c-17 -60 -26 -156 -22 -254 3 -102 2 -110 -11 -88 l-14 24 5 -25 c3 -14 6 -30 6 -36 0 -5 8 -19 18 -30 9 -10 30 -37 46 -59 17 -22 52 -62 78 -88 26 -27 46 -52 43 -56 -2 -4 15 -25 38 -46 23 -22 43 -44 43 -50 1 -5 2 -17 3 -25 1 -13 3 -13 10 -1 6 10 12 -2 19 -40 18 -90 22 -97 17 -30 -7 94 -35 142 -146 252 -54 53 -105 112 -115 130 -24 44 -32 262 -14 362 11 63 9 102 -4 60z"/>
						<path d="M5161 9188 c-18 -109 -10 -234 18 -309 17 -43 46 -83 127 -170 58 -63 113 -129 121 -146 17 -34 37 -46 26 -15 -8 23 -59 85 -125 152 -98 100 -126 141 -146 215 -23 87 -27 156 -11 249 6 40 9 81 7 92 -2 10 -10 -20 -17 -68z"/>
						<path d="M5457 8459 c4 -40 1 -75 -6 -90 -11 -23 -11 -23 3 -5 17 21 21 106 7 141 -5 12 -6 -8 -4 -46z"/>
						<path d="M5520 8397 c0 -8 -14 -48 -31 -88 -98 -234 -103 -261 -73 -367 25 -88 35 -84 13 4 -29 110 -21 144 82 379 23 52 28 75 19 80 -6 4 -10 0 -10 -8z"/>
						<path d="M5407 8273 c-38 -86 -63 -154 -70 -190 -10 -51 0 -39 18 22 9 31 32 92 51 136 20 45 34 83 31 85 -2 2 -16 -22 -30 -53z"/>
						<path d="M5405 8169 c-4 -6 -5 -12 -2 -15 2 -3 7 2 10 11 7 17 1 20 -8 4z"/>
						<path d="M5342 7990 c0 -14 2 -19 5 -12 2 6 2 18 0 25 -3 6 -5 1 -5 -13z"/>
						<path d="M5352 7945 c0 -11 3 -29 8 -40 11 -25 11 1 0 35 -6 20 -8 21 -8 5z"/>
						<path d="M5376 7845 c8 -60 23 -102 41 -117 14 -11 15 -11 5 7 -6 11 -20 49 -31 85 -15 48 -19 55 -15 25z"/>
						<path d="M5411 7824 c0 -11 3 -14 6 -6 3 7 2 16 -1 19 -3 4 -6 -2 -5 -13z"/>
						<path d="M5450 7720 c-13 -8 -12 -10 3 -10 9 0 17 5 17 10 0 12 -1 12 -20 0z"/>
						<path d="M5667 7336 c-51 -19 -69 -36 -114 -112 -21 -35 -41 -64 -45 -64 -4 0 -21 20 -38 45 -59 85 -139 120 -205 89 -40 -19 -68 -58 -104 -144 -45 -107 -64 -148 -213 -450 -156 -316 -167 -335 -305 -560 -108 -176 -145 -229 -219 -310 -34 -37 -84 -101 -112 -141 -30 -44 -146 -171 -288 -316 -185 -188 -259 -255 -329 -302 -49 -32 -124 -90 -165 -128 -74 -68 -144 -127 -296 -253 -102 -84 -223 -206 -275 -276 -49 -67 -112 -174 -204 -349 -78 -150 -133 -247 -184 -325 -82 -127 -311 -560 -311 -589 0 -5 -25 -63 -56 -128 -57 -123 -88 -185 -258 -518 -56 -110 -119 -239 -140 -287 -52 -119 -281 -527 -437 -777 -38 -62 -175 -273 -397 -611 -34 -52 -93 -144 -131 -205 -37 -60 -101 -162 -141 -225 -71 -112 -98 -163 -68 -130 14 17 48 23 48 9 0 -15 40 -10 46 6 8 19 24 20 24 1 0 -44 71 -49 129 -10 36 24 36 24 45 4 5 -11 15 -20 22 -20 7 0 18 -14 26 -30 7 -17 16 -30 20 -30 5 0 8 -4 8 -10 0 -5 -7 -10 -15 -10 -8 0 -15 -4 -15 -10 0 -5 11 -10 24 -10 17 0 49 25 105 82 85 85 112 94 90 28 -10 -28 -10 -35 5 -46 10 -7 15 -17 12 -23 -3 -5 1 -16 9 -24 8 -9 15 -22 15 -30 0 -28 29 -26 61 4 34 32 65 39 55 13 -9 -23 12 -44 43 -44 18 0 45 18 89 60 47 45 69 60 91 60 17 0 31 6 35 16 3 8 11 12 17 9 6 -4 13 2 16 14 4 15 9 18 17 12 11 -10 16 -11 40 -11 10 0 12 -7 8 -22 -5 -21 -4 -22 11 -9 9 7 17 21 17 30 0 10 12 33 26 52 40 53 47 70 29 63 -8 -4 -15 -1 -15 5 0 6 -5 11 -11 11 -6 0 -8 -8 -4 -19 3 -11 1 -22 -5 -26 -8 -5 -10 4 -8 26 3 31 6 34 33 32 17 -1 22 1 12 4 -9 2 -17 11 -17 19 0 17 16 19 23 2 3 -7 6 -3 6 10 1 12 5 22 9 22 5 0 14 18 21 39 6 22 32 64 58 95 47 55 73 70 73 41 0 -14 32 -37 47 -33 4 1 19 -4 33 -11 l25 -14 -25 28 c-14 16 -20 25 -14 22 7 -4 14 3 18 16 5 20 12 23 48 23 35 -1 42 2 40 16 -3 20 14 33 24 17 4 -8 3 -9 -4 -5 -15 9 -15 -7 0 -22 9 -9 7 -13 -5 -18 -9 -3 -15 -10 -12 -14 3 -4 -3 -11 -12 -14 -15 -6 -15 -8 -3 -16 11 -7 17 -1 27 20 8 21 17 28 28 24 11 -5 14 -2 9 11 -8 21 25 17 43 -5 9 -11 12 -12 13 -2 0 7 4 10 10 7 5 -3 7 0 5 8 -7 18 -58 47 -83 47 -27 0 -37 16 -16 24 13 5 14 9 5 20 -9 10 -9 16 -1 21 8 5 6 13 -6 26 -20 22 -42 26 -25 5 10 -12 8 -17 -8 -26 -17 -9 -20 -8 -14 7 5 13 3 15 -11 10 -10 -4 -20 -7 -22 -7 -3 0 -2 -5 1 -10 4 -6 -3 -8 -17 -6 -13 3 -28 5 -34 5 -16 1 -13 101 3 101 7 0 13 3 13 8 0 13 73 57 89 54 12 -3 13 -1 3 11 -10 12 -9 16 3 21 11 4 19 -3 25 -20 6 -14 14 -23 19 -20 10 7 66 -43 57 -51 -3 -4 -17 -1 -31 5 -14 6 -25 7 -25 2 0 -5 9 -12 20 -15 11 -4 18 -11 15 -16 -4 -5 -14 -5 -27 2 -16 9 -24 8 -36 -5 -9 -8 -12 -19 -8 -23 5 -5 11 -2 13 5 5 14 43 17 43 3 0 -5 -9 -11 -20 -14 -11 -3 -20 -10 -20 -17 0 -6 5 -8 10 -5 6 3 10 -1 10 -10 0 -11 5 -15 15 -11 20 7 19 1 -2 -20 -16 -15 -16 -17 -2 -12 9 4 21 2 26 -3 5 -5 7 4 5 25 -3 22 -10 36 -21 39 -13 3 -13 5 4 11 11 4 27 11 35 15 18 10 42 3 34 -10 -3 -5 2 -9 12 -9 13 0 14 -3 4 -14 -8 -11 -18 -12 -35 -6 -22 8 -24 7 -20 -20 5 -40 10 -47 41 -53 20 -3 28 1 36 19 13 28 37 32 33 7 -1 -10 0 -12 2 -5 4 10 8 10 19 1 8 -6 17 -9 21 -5 3 3 0 6 -8 7 -8 0 -6 4 6 9 19 8 19 9 -2 9 -13 1 -23 5 -23 11 0 5 7 7 15 4 20 -8 48 22 41 44 -4 10 1 34 11 52 12 24 13 35 5 38 -7 2 -12 10 -12 19 0 10 6 12 20 8 15 -5 22 0 30 19 5 14 14 26 20 26 8 0 8 6 0 20 -6 11 -7 20 -3 20 4 0 1 5 -7 11 -12 8 -10 9 7 4 18 -5 22 -3 17 9 -3 9 -1 16 5 16 15 0 14 27 -1 33 -9 4 -9 6 -1 6 7 1 9 15 6 41 -4 24 -2 40 5 40 16 0 24 -33 10 -43 -10 -7 -9 -8 3 -4 9 3 22 1 30 -4 12 -8 11 -12 -3 -23 -11 -8 -18 -27 -18 -49 0 -20 -4 -39 -10 -42 -5 -3 -10 -17 -10 -31 0 -14 -4 -22 -10 -19 -5 3 -10 -1 -10 -9 0 -9 -4 -16 -8 -16 -5 0 -7 -14 -4 -30 3 -18 0 -30 -7 -30 -6 0 -11 -7 -11 -16 0 -8 -5 -25 -12 -37 -17 -31 -19 -69 -5 -87 10 -13 10 -13 -4 -2 -15 11 -18 9 -27 -18 -6 -16 -16 -30 -23 -30 -6 0 -9 -7 -5 -15 3 -8 -1 -27 -9 -42 -7 -16 -18 -39 -25 -53 -6 -14 -18 -38 -26 -53 -17 -31 -10 -52 9 -26 15 19 45 31 52 20 2 -5 -6 -12 -20 -15 -23 -6 -24 -10 -20 -51 3 -32 0 -45 -9 -45 -7 0 -21 -9 -31 -20 -10 -11 -22 -17 -27 -14 -20 13 -85 -104 -94 -169 -5 -37 -2 -48 18 -72 17 -19 27 -24 32 -17 4 7 1 12 -8 12 -9 0 -16 5 -16 10 0 6 11 10 24 10 28 0 54 25 34 33 -9 4 -9 6 -1 6 6 1 15 -3 18 -9 7 -12 36 -14 33 -2 -3 13 15 47 35 65 19 16 21 16 32 0 7 -10 15 -34 19 -54 6 -33 9 -35 36 -31 25 4 30 1 30 -16 0 -11 6 -23 13 -25 9 -4 9 -8 -2 -15 -17 -13 2 -52 27 -52 13 0 14 -2 3 -9 -7 -5 -10 -14 -7 -20 9 -14 55 17 56 37 0 7 4 11 9 7 5 -3 12 4 16 15 3 11 11 20 16 20 12 0 12 -17 -1 -23 -6 -3 -5 -5 2 -3 17 3 62 96 77 159 6 28 21 61 32 73 22 24 64 113 130 279 22 55 45 111 51 125 5 14 48 117 93 230 208 510 242 580 382 790 80 120 249 330 350 435 89 92 205 164 388 241 212 89 258 102 530 154 121 23 258 50 305 61 124 30 311 94 399 138 161 80 350 140 536 171 66 11 143 27 170 35 28 8 101 28 164 45 113 31 222 70 379 136 45 19 124 45 175 58 50 13 128 38 172 56 44 18 98 39 120 47 22 7 59 23 82 33 24 11 48 20 54 20 7 0 98 43 204 95 106 52 196 95 201 95 5 0 21 6 36 14 14 8 43 19 65 26 34 11 285 137 498 250 105 56 240 146 268 180 29 33 212 166 292 211 83 46 194 117 214 137 29 29 61 79 61 97 0 62 -84 131 -194 160 -82 22 -118 19 -268 -18 -135 -34 -270 -90 -351 -145 -94 -65 -206 -113 -310 -132 -56 -10 -124 -28 -152 -40 -134 -58 -410 -150 -450 -150 -25 0 -18 19 28 73 24 29 59 74 77 102 19 27 64 83 100 125 54 61 361 463 485 634 16 23 110 129 208 236 100 108 204 233 235 280 30 47 63 96 72 110 9 14 31 55 49 93 18 37 58 97 89 135 72 84 164 231 185 296 27 80 8 120 -77 163 -75 38 -169 30 -294 -25 -52 -22 -112 -53 -135 -68 -80 -54 -196 -181 -274 -301 -58 -88 -107 -148 -197 -238 -153 -153 -472 -455 -480 -455 -4 0 7 27 24 61 44 86 70 175 70 241 0 90 24 188 103 428 43 128 86 283 101 359 15 73 36 151 46 172 11 20 31 77 45 126 14 48 43 126 65 173 34 73 70 209 70 267 0 6 -18 33 -39 61 -50 63 -128 98 -199 89 -66 -8 -155 -43 -205 -81 -104 -78 -212 -267 -300 -521 -81 -234 -121 -341 -158 -420 -36 -79 -130 -361 -149 -445 -13 -60 -76 -198 -115 -250 -14 -19 -25 -32 -26 -29 0 2 -2 27 -5 54 -7 75 -48 188 -109 300 -30 55 -98 188 -151 295 -53 107 -122 232 -153 278 -111 165 -151 229 -205 329 -55 101 -154 250 -205 309 -15 16 -33 44 -40 62 -7 18 -20 32 -28 32 -8 0 -11 5 -8 10 3 6 -1 13 -10 16 -9 4 -14 13 -11 20 8 20 -42 74 -67 74 -12 -1 -39 -7 -60 -14z m98 -51 c12 -22 26 -39 33 -38 6 2 9 -3 7 -10 -3 -6 6 -24 20 -39 14 -15 25 -32 25 -37 0 -6 10 -22 23 -37 22 -26 43 -79 26 -68 -5 3 -9 11 -9 17 0 7 -13 24 -29 40 -15 15 -36 45 -47 67 -10 22 -22 40 -26 40 -5 0 -8 -2 -8 -4 0 -5 28 -72 56 -134 32 -69 27 -95 -17 -103 -29 -5 -30 -7 -9 -9 14 -2 35 -2 47 -1 12 1 25 -4 29 -10 4 -8 0 -9 -15 -4 -21 6 -21 5 -9 -14 7 -12 15 -16 16 -11 4 12 52 -48 52 -65 0 -6 11 -27 25 -47 14 -20 25 -44 25 -52 0 -9 5 -16 10 -16 6 0 9 -3 8 -7 -3 -12 34 -147 44 -157 14 -17 9 -45 -12 -56 -29 -15 -25 -33 5 -27 22 4 28 -1 40 -30 8 -19 12 -39 10 -44 -5 -7 12 -46 25 -59 17 -16 38 -60 44 -92 4 -20 13 -50 21 -65 8 -15 15 -36 15 -45 0 -17 16 -32 35 -33 6 0 11 -4 12 -9 1 -5 7 -12 13 -16 7 -4 21 -32 31 -61 15 -41 16 -55 6 -61 -8 -5 -7 -8 5 -8 21 0 19 -37 -3 -51 -11 -7 -9 -9 7 -9 36 0 55 -83 25 -107 -13 -10 -14 -14 -3 -21 11 -7 11 -12 -2 -25 -9 -8 -16 -22 -16 -30 0 -10 -9 -14 -25 -13 -32 1 -32 9 0 26 42 22 32 41 -19 36 -35 -4 -48 -1 -62 15 -13 14 -14 18 -3 15 8 -3 20 -2 27 3 12 7 12 12 1 30 -8 11 -18 21 -24 21 -21 0 -54 -31 -49 -45 4 -8 1 -15 -5 -15 -6 0 -11 -8 -11 -17 -1 -16 -2 -16 -15 1 -11 14 -12 23 -4 33 8 8 8 13 1 13 -6 0 -12 -6 -15 -12 -2 -7 -8 -9 -13 -5 -10 10 14 27 39 27 9 0 26 9 36 19 18 18 18 20 3 26 -14 5 -14 7 -2 15 12 7 9 13 -12 30 -26 20 -28 45 -7 60 4 3 -3 27 -16 54 -13 27 -22 53 -19 58 3 4 -4 8 -15 8 -25 0 -27 -17 -5 -41 11 -12 12 -17 2 -15 -31 3 -23 -42 8 -50 14 -4 22 -9 17 -13 -15 -10 -24 -41 -12 -41 6 0 9 -7 5 -15 -3 -8 -1 -15 5 -15 6 0 8 -4 4 -9 -3 -6 3 -14 12 -20 10 -6 13 -11 6 -11 -6 0 -15 5 -18 10 -3 6 -13 10 -21 10 -8 0 -14 -4 -14 -10 0 -5 7 -10 15 -10 8 0 15 -4 15 -9 0 -5 -8 -8 -17 -7 -19 1 -69 73 -59 83 3 3 -2 20 -11 37 -9 17 -15 46 -15 65 1 18 -1 39 -5 44 -11 18 -14 67 -4 67 15 0 42 -48 29 -52 -7 -3 -5 -7 5 -11 12 -4 20 -1 24 11 4 9 11 20 17 24 6 5 2 8 -9 8 -11 0 -33 14 -49 32 -27 31 -29 32 -42 13 -16 -22 -19 -3 -4 25 7 13 6 26 -4 45 -10 19 -12 35 -5 51 6 18 5 24 -5 24 -25 0 -50 113 -27 122 4 2 12 14 16 27 6 20 4 23 -9 18 -14 -6 -15 -3 -6 13 7 14 7 20 0 20 -5 0 -10 -4 -10 -10 0 -5 -9 -10 -19 -10 -11 0 -23 5 -26 10 -3 6 -11 10 -17 10 -7 0 -6 -6 2 -15 10 -12 10 -15 0 -15 -9 0 -8 -6 4 -19 10 -11 15 -25 11 -31 -3 -6 -1 -9 5 -8 11 3 43 -72 35 -81 -3 -2 -5 1 -5 7 0 7 -6 12 -14 12 -22 0 -30 19 -15 36 10 12 9 13 -5 8 -11 -4 -16 -1 -16 10 0 8 -10 18 -22 21 -16 4 -23 13 -23 31 0 15 5 22 13 19 6 -2 12 0 12 5 0 6 -5 10 -11 10 -26 0 -35 24 -22 60 6 19 12 30 12 24 1 -22 29 -23 34 -3 4 14 -1 23 -16 29 -13 5 -16 9 -7 9 19 1 -37 31 -57 31 -12 0 -13 -3 -4 -14 6 -7 9 -21 5 -30 -4 -10 0 -18 10 -22 23 -9 20 -23 -4 -17 -17 4 -27 24 -35 63 -1 3 -9 23 -18 44 -10 22 -24 67 -31 100 -8 34 -19 73 -25 88 -9 25 -8 29 19 43 17 9 30 18 30 20 0 6 -32 -6 -46 -17 -7 -5 -17 -1 -25 10 -29 35 -57 112 -40 112 9 0 7 90 -3 175 -7 51 46 98 103 93 29 -3 38 -10 56 -43z m2039 -26 c19 -17 19 -19 2 -63 -10 -25 -21 -46 -25 -46 -4 0 -26 -18 -50 -40 -23 -22 -39 -40 -35 -40 4 0 -2 -9 -14 -20 -12 -12 -22 -27 -22 -34 0 -8 -6 -19 -14 -25 -8 -7 -17 -24 -21 -39 -4 -15 -13 -43 -22 -62 -8 -19 -21 -50 -29 -68 -8 -18 -14 -39 -14 -48 0 -8 -9 -34 -20 -56 -11 -23 -20 -47 -20 -52 0 -6 -16 -28 -35 -50 -20 -21 -38 -50 -41 -65 -4 -14 -16 -42 -28 -61 -11 -19 -35 -89 -53 -155 -89 -334 -111 -410 -120 -408 -13 3 -65 -102 -73 -149 -6 -29 -4 -38 7 -38 8 0 11 5 8 10 -3 6 -1 10 5 10 6 0 10 -8 8 -17 -2 -10 -11 -17 -20 -15 -12 2 -16 -7 -16 -42 -1 -25 -6 -53 -11 -63 -16 -32 -51 -125 -51 -139 0 -7 -10 -16 -22 -20 -28 -9 -43 -24 -52 -52 -6 -17 -15 -22 -39 -22 l-32 1 23 18 c27 23 28 31 5 32 -14 0 -15 2 -3 6 29 12 58 58 31 51 -5 -2 -20 10 -35 25 -14 15 -26 24 -26 20 0 -4 -4 -1 -10 7 -5 9 -5 19 2 27 8 10 6 13 -9 13 -27 0 -35 10 -22 27 9 10 15 10 25 2 11 -9 14 -8 14 5 0 9 -8 16 -17 16 -15 0 -16 2 -3 10 9 5 19 5 27 -2 10 -8 13 -5 13 11 0 11 -5 21 -12 21 -6 0 -8 3 -5 7 4 3 2 12 -4 20 -6 7 -8 13 -3 13 5 0 10 12 10 28 3 60 21 127 42 159 18 28 9 53 -17 53 -14 0 -19 5 -15 15 4 8 12 15 20 15 8 0 14 5 14 10 0 6 -5 10 -11 10 -16 0 -6 42 14 54 13 8 20 8 26 -3 6 -9 11 -10 15 -2 5 7 -4 14 -23 17 -17 4 -28 10 -25 15 7 11 56 0 66 -15 4 -6 8 -9 9 -6 0 3 2 13 4 23 3 16 -16 23 -53 18 -15 -2 -10 22 13 72 12 23 11 27 -1 27 -9 0 -13 4 -9 10 3 5 12 7 20 3 9 -3 15 1 15 11 0 9 -6 13 -13 10 -21 -8 -14 28 19 95 31 64 38 71 48 45 4 -10 -3 -25 -19 -40 -14 -13 -25 -31 -24 -41 0 -14 2 -15 6 -3 3 8 19 26 34 39 16 13 29 30 29 37 0 8 4 14 9 14 11 0 22 26 26 59 4 27 36 94 48 99 4 2 7 10 7 18 0 8 3 14 8 14 10 0 34 79 27 90 -3 5 -1 11 5 15 16 10 12 21 -10 22 -12 1 -20 -4 -20 -13 0 -8 -6 -17 -13 -20 -8 -3 -11 -18 -9 -44 3 -25 0 -40 -7 -40 -6 0 -11 11 -11 25 0 14 -4 25 -9 25 -4 0 -2 24 6 53 8 28 18 66 22 82 5 17 15 47 24 68 9 20 14 37 11 37 -3 0 4 13 15 28 11 16 27 48 37 73 9 24 26 54 37 66 11 13 18 26 14 29 -15 15 101 141 159 172 28 15 134 50 164 54 31 5 98 -19 124 -43z m-2487 25 c-3 -3 -12 -4 -19 -1 -8 3 -5 6 6 6 11 1 17 -2 13 -5z m-51 -41 c-10 -10 -19 5 -10 18 6 11 8 11 12 0 2 -7 1 -15 -2 -18z m136 -61 c-19 -15 -26 -6 -36 48 l-6 35 29 -35 c27 -32 28 -36 13 -48z m181 40 c-3 -12 -9 -22 -14 -22 -5 0 -3 11 3 25 13 30 20 28 11 -3z m2307 -44 c0 -4 -7 -8 -15 -8 -8 0 -15 5 -15 10 0 6 -6 10 -13 10 -12 0 -14 15 -8 50 2 8 51 -52 51 -62z m-2564 27 c6 -5 9 -15 7 -22 -2 -6 3 -13 13 -15 16 -3 16 -4 2 -19 -14 -14 -13 -19 12 -56 51 -75 54 -84 56 -205 2 -105 0 -118 -17 -134 -17 -15 -24 -16 -40 -6 -15 10 -19 10 -19 -2 0 -8 7 -17 16 -20 8 -3 13 -10 10 -15 -4 -5 -1 -11 5 -13 6 -2 12 -24 12 -48 0 -25 -2 -43 -5 -40 -4 3 -19 -8 -33 -25 -15 -16 -25 -22 -22 -13 7 20 -16 31 -32 15 -16 -16 -14 -37 4 -31 8 4 15 2 15 -4 0 -5 -9 -12 -20 -15 -12 -3 -20 -14 -20 -26 0 -12 -4 -21 -8 -21 -5 0 -8 -10 -8 -22 1 -19 -4 -23 -28 -21 -16 1 -26 -1 -23 -4 4 -3 -1 -19 -9 -35 -9 -17 -12 -33 -8 -36 4 -4 9 -1 11 6 3 6 9 12 14 12 5 0 3 -13 -6 -29 -15 -31 -11 -61 9 -61 6 0 4 -5 -4 -10 -8 -5 -19 -5 -23 -1 -10 10 -47 2 -47 -10 0 -5 -5 -9 -11 -9 -6 0 -8 7 -5 17 6 15 5 16 -11 1 -10 -8 -24 -13 -30 -11 -7 3 -13 0 -13 -6 0 -17 -37 -13 -44 4 -3 8 -12 15 -20 15 -18 0 -29 29 -17 44 5 6 14 30 21 54 6 24 14 50 17 59 5 12 1 14 -15 8 -13 -4 -22 -2 -22 4 0 6 4 11 9 11 5 0 11 10 15 23 5 19 8 20 17 7 8 -11 9 -7 5 19 -5 27 -3 32 9 27 12 -4 15 3 15 29 0 19 5 35 11 35 5 0 8 4 4 9 -3 5 0 13 6 17 7 4 10 3 6 -2 -3 -5 5 -14 18 -20 23 -11 23 -10 18 25 -3 20 -10 40 -14 45 -17 18 -9 53 14 64 17 8 18 11 5 11 -22 1 -22 16 -3 70 8 23 15 43 15 46 4 25 42 90 52 90 22 0 56 86 63 160 9 83 34 112 71 80z m-86 -105 c0 -5 -8 -10 -17 -10 -15 0 -16 2 -3 10 19 12 20 12 20 0z m-10 -42 c0 -7 -4 -19 -9 -26 -7 -11 -10 -10 -15 3 -3 9 -4 21 0 26 8 13 24 11 24 -3z m2630 -18 c0 -5 -4 -10 -9 -12 -5 -1 -11 -10 -13 -18 -6 -28 -22 -29 -39 -2 -9 16 -13 31 -8 38 10 12 69 6 69 -6z m-2405 -10 c3 -6 -1 -7 -9 -4 -18 7 -21 14 -7 14 6 0 13 -4 16 -10z m55 -23 c0 -16 -35 -1 -38 16 -3 16 -1 17 17 5 12 -7 21 -17 21 -21z m2271 -20 c-10 -9 -11 -8 -5 6 3 10 9 15 12 12 3 -3 0 -11 -7 -18z m-2321 -28 c0 -5 -4 -9 -10 -9 -5 0 -10 7 -10 16 0 8 5 12 10 9 6 -3 10 -10 10 -16z m2323 -66 c-7 -2 -19 -2 -25 0 -7 3 -2 5 12 5 14 0 19 -2 13 -5z m-1 -88 c-20 -55 -32 -75 -44 -75 -10 0 -18 -5 -18 -11 0 -6 7 -9 15 -5 13 5 13 2 -1 -19 -19 -29 -26 -32 -23 -7 3 30 -1 43 -10 38 -12 -8 -8 27 4 36 6 4 16 8 24 8 11 0 9 -4 -5 -15 -18 -14 -17 -14 9 -3 l28 12 -25 15 c-15 9 -26 22 -25 31 0 10 2 11 6 3 2 -7 12 -13 21 -13 15 0 15 2 2 10 -12 8 -12 10 3 16 9 3 17 14 17 23 0 22 9 31 31 31 17 0 16 -6 -9 -75z m-32 47 c0 -14 -11 -21 -26 -15 -8 3 -11 9 -8 14 7 11 34 12 34 1z m-1696 -217 c3 -8 1 -15 -4 -15 -6 0 -10 7 -10 15 0 8 2 15 4 15 2 0 6 -7 10 -15z m1136 -9 c0 -3 -4 -8 -10 -11 -5 -3 -10 -1 -10 4 0 6 5 11 10 11 6 0 10 -2 10 -4z m-13 -66 c-1 -22 -5 -40 -9 -40 -4 0 -5 -6 -2 -14 3 -8 0 -25 -7 -38 -7 -13 -12 -26 -11 -30 1 -5 -2 -8 -8 -8 -5 0 -10 -7 -10 -15 0 -17 -9 -19 -28 -7 -9 7 -10 16 -1 43 7 19 17 41 23 49 7 8 21 34 32 57 10 24 20 43 21 43 1 0 1 -18 0 -40z m346 33 c-7 -2 -19 -2 -25 0 -7 3 -2 5 12 5 14 0 19 -2 13 -5z m-1805 -202 c30 -57 64 -120 77 -140 13 -20 33 -70 44 -111 11 -41 33 -106 47 -145 14 -38 30 -83 34 -100 9 -31 37 -128 47 -157 9 -31 -47 -187 -129 -357 -42 -86 -65 -149 -77 -210 -36 -174 -110 -261 -306 -355 -100 -48 -249 -41 -348 17 -67 39 -119 116 -120 177 -2 66 16 241 25 246 11 7 68 132 68 150 0 7 16 43 36 81 20 37 61 115 92 173 30 58 60 112 67 120 7 8 41 69 75 135 34 66 70 131 80 145 22 32 75 138 94 187 8 21 21 56 30 79 8 23 24 87 35 143 12 57 24 108 27 113 4 6 16 -11 28 -38 12 -27 45 -96 74 -153z m1786 174 c-4 -8 -13 -15 -22 -15 -13 0 -12 3 4 15 24 18 25 18 18 0z m0 -71 c5 -14 4 -15 -9 -4 -17 14 -19 20 -6 20 5 0 12 -7 15 -16z m-24 -8 c0 -2 -7 -6 -15 -10 -8 -3 -15 -1 -15 4 0 6 7 10 15 10 8 0 15 -2 15 -4z m-2544 -43 c-10 -10 -19 5 -10 18 6 11 8 11 12 0 2 -7 1 -15 -2 -18z m2574 -75 c0 -35 -5 -70 -10 -78 -8 -13 -10 -12 -10 3 0 10 -4 15 -10 12 -5 -3 -12 6 -16 20 -6 24 -24 36 -24 15 0 -5 -7 -10 -15 -10 -8 0 -15 5 -15 10 0 13 22 53 35 62 7 5 7 8 0 9 -11 1 33 16 53 18 8 1 12 -18 12 -61z m1168 51 c17 0 32 -4 32 -9 0 -6 -6 -10 -14 -10 -14 0 -76 -52 -76 -64 0 -3 8 -7 18 -7 16 -1 16 -2 -1 -6 -9 -2 -15 -9 -12 -14 4 -5 0 -9 -7 -9 -8 0 -14 -9 -15 -20 -1 -14 4 -20 17 -20 13 0 17 -5 14 -15 -8 -20 6 -19 21 2 11 15 12 14 8 -12 -3 -17 -9 -34 -13 -40 -4 -5 -13 -27 -20 -48 -9 -30 -15 -36 -24 -27 -8 9 -8 14 2 17 6 3 10 9 6 14 -10 17 -40 9 -62 -16 -12 -14 -26 -25 -30 -25 -9 0 -52 -81 -52 -97 0 -6 -8 -17 -17 -24 -11 -10 -14 -10 -9 -1 4 7 1 12 -8 12 -9 0 -16 -7 -16 -15 0 -8 -9 -20 -20 -27 -11 -7 -20 -18 -20 -25 0 -6 -23 -29 -50 -51 -45 -36 -48 -41 -30 -47 11 -3 20 -11 20 -16 0 -13 -12 -11 -37 6 -20 14 -23 14 -33 -4 -15 -29 -12 -36 8 -18 14 13 20 13 35 2 10 -7 19 -23 20 -34 1 -14 6 -20 15 -16 27 10 5 -19 -27 -36 -18 -10 -44 -28 -57 -40 -13 -12 -25 -19 -25 -16 -1 4 -2 12 -3 19 -1 15 -23 22 -31 9 -3 -6 -1 -11 4 -11 6 0 11 -4 11 -10 0 -5 -7 -7 -15 -4 -8 4 -15 1 -15 -5 0 -6 -8 -11 -17 -12 -11 0 -13 -3 -5 -6 6 -2 12 -9 12 -14 0 -4 -8 -5 -17 -2 -12 5 -15 2 -11 -9 4 -10 -7 -26 -33 -47 -21 -18 -39 -42 -39 -52 0 -11 -11 -24 -25 -31 -14 -6 -25 -17 -25 -24 0 -8 -11 -16 -25 -20 -13 -3 -24 -9 -23 -13 2 -12 -14 -41 -24 -41 -5 0 -7 4 -3 9 3 5 1 12 -4 16 -5 3 -14 -3 -20 -12 -9 -16 -12 -16 -22 -3 -9 13 -10 12 -5 -2 3 -12 -7 -30 -30 -53 -19 -19 -32 -40 -29 -45 3 -6 0 -10 -9 -10 -23 0 -46 11 -41 20 3 5 0 12 -6 16 -18 11 -28 -16 -22 -62 4 -32 1 -47 -14 -61 -10 -10 -41 -46 -69 -78 -40 -46 -59 -60 -82 -62 -27 -2 -31 2 -39 35 -8 35 -10 36 -53 37 -25 1 -53 5 -63 9 -14 7 -16 5 -11 -8 4 -10 12 -15 19 -12 7 2 22 -4 34 -15 12 -11 26 -17 31 -14 5 3 18 1 27 -5 16 -10 15 -11 -4 -7 -15 3 -23 0 -23 -9 0 -8 6 -11 17 -7 12 5 15 2 10 -10 -8 -21 2 -49 14 -41 18 11 -6 -32 -33 -59 -15 -16 -27 -33 -25 -39 1 -7 -7 -13 -18 -15 -56 -10 -64 -14 -59 -27 3 -8 0 -17 -7 -22 -7 -4 -10 -3 -7 2 3 5 -1 15 -8 22 -13 12 -14 10 -8 -12 5 -20 2 -26 -11 -26 -9 0 -13 5 -10 10 9 14 -7 12 -29 -5 -10 -8 -23 -12 -27 -9 -5 3 -9 1 -9 -5 0 -5 9 -13 20 -16 11 -3 20 -10 20 -14 0 -9 -46 -61 -54 -61 -17 0 -96 -67 -96 -80 0 -9 -18 -36 -40 -60 -22 -24 -40 -49 -40 -55 0 -13 -62 -65 -78 -65 -13 0 -73 -56 -67 -63 3 -4 2 -5 -1 -2 -4 2 -12 -1 -19 -8 -7 -7 -23 -20 -35 -31 -19 -15 -22 -16 -17 -2 4 10 1 16 -7 16 -20 0 -26 -11 -16 -30 8 -15 4 -19 -20 -24 -20 -4 -28 -10 -24 -20 7 -18 -60 -71 -77 -60 -7 4 -9 3 -6 -3 11 -17 -42 -26 -61 -11 -35 27 -41 36 -44 64 -2 16 -9 35 -16 42 -7 8 -10 17 -7 21 2 5 -4 16 -15 26 -22 20 -26 40 -8 51 6 4 8 3 4 -4 -4 -7 1 -10 14 -9 25 2 26 13 3 26 -17 10 -17 10 -1 11 9 0 21 -7 26 -16 6 -11 11 -13 16 -5 4 6 12 11 17 11 6 0 7 -6 2 -12 -4 -7 -6 -23 -4 -36 1 -13 -4 -25 -13 -28 -16 -6 -22 -24 -8 -24 4 0 20 11 36 25 20 17 24 25 13 25 -11 0 -15 7 -12 23 8 38 28 67 46 67 17 0 46 36 41 53 -2 6 4 8 23 7 12 -1 36 31 38 50 1 11 9 23 19 26 10 3 18 10 18 15 0 6 15 16 33 24 21 9 26 14 13 15 -16 0 -17 2 -5 17 8 9 14 24 14 34 0 10 9 25 20 34 16 12 9 11 -32 -4 -68 -24 -81 -14 -32 27 30 25 45 32 62 26 22 -6 22 -6 -2 20 -14 14 -30 26 -38 26 -16 0 -17 12 -1 28 15 15 32 16 23 2 -4 -7 2 -9 17 -5 19 5 27 1 37 -17 6 -13 9 -15 7 -5 -7 22 13 67 30 67 6 0 14 7 18 15 3 8 13 15 21 15 9 0 14 4 11 8 -6 10 80 77 112 86 16 6 22 3 22 -8 0 -9 7 -16 16 -16 9 0 14 -6 11 -12 -2 -7 -10 -12 -16 -10 -6 1 -11 -2 -11 -7 0 -5 -7 -17 -16 -25 -14 -15 -14 -16 5 -16 12 0 21 4 21 9 0 21 40 22 61 2 19 -17 24 -18 36 -6 7 8 19 28 24 45 9 24 15 29 34 24 12 -3 26 -1 29 5 4 6 3 11 -3 11 -6 0 -8 7 -5 15 4 8 13 15 22 15 12 0 13 3 4 12 -9 9 -15 8 -24 -4 -11 -15 -15 -15 -26 -2 -7 8 -8 14 -2 14 5 0 10 5 10 11 0 5 -5 7 -12 3 -6 -4 -8 -3 -5 4 4 5 16 8 27 5 13 -3 22 1 26 12 4 9 18 21 31 26 13 5 21 14 18 20 -7 11 44 61 55 54 4 -2 7 1 7 8 0 21 34 66 54 72 10 4 19 12 19 20 0 8 9 16 20 20 11 3 19 12 17 18 -1 7 6 11 16 11 10 -1 16 3 14 10 -7 17 19 61 53 90 20 16 26 26 16 26 -8 0 -21 -7 -30 -15 -8 -8 -22 -12 -31 -8 -15 5 -16 7 -2 15 9 5 14 15 11 23 -4 9 3 16 20 21 14 3 26 12 26 19 0 8 14 20 30 29 17 8 30 10 30 5 0 -5 -11 -15 -25 -21 -14 -6 -25 -17 -25 -24 0 -7 -9 -18 -21 -24 -11 -7 -18 -14 -16 -17 6 -5 47 15 62 31 22 23 46 67 41 75 -3 5 3 11 14 14 11 3 18 1 14 -4 -3 -5 2 -6 11 -3 8 4 20 15 26 25 5 11 14 17 20 14 5 -4 12 0 15 8 7 20 85 73 104 71 33 -3 34 -5 20 -14 -12 -8 -12 -10 2 -15 10 -4 14 -14 11 -25 -5 -19 -4 -19 26 -4 17 8 31 20 31 25 0 5 10 9 23 9 18 0 19 2 7 10 -9 6 -10 10 -3 10 6 0 15 -4 18 -10 9 -15 28 -12 22 4 -3 7 0 19 6 25 8 8 8 11 -1 11 -19 0 -27 -4 -24 -14 2 -5 -4 -6 -13 -2 -9 3 -21 6 -26 6 -6 0 -5 8 1 20 6 11 18 20 27 20 14 0 15 2 4 13 -10 9 -15 9 -18 0 -9 -24 -33 -2 -26 25 4 17 2 23 -6 18 -6 -4 -11 -1 -11 8 0 8 4 17 10 21 6 4 6 15 -1 32 -12 31 -5 42 10 15 6 -11 7 -22 4 -26 -3 -3 -1 -6 5 -6 15 0 24 17 13 25 -6 3 -8 12 -4 20 3 10 -2 15 -16 15 -12 0 -21 5 -21 10 0 9 13 13 26 8 3 -2 12 9 20 25 8 15 19 27 24 27 6 0 10 6 10 13 0 7 12 17 27 23 25 8 25 10 10 25 -15 15 -14 20 14 58 17 22 35 41 40 41 5 0 9 8 9 18 0 13 2 14 9 4 6 -10 10 -10 21 3 7 8 9 15 4 16 -5 0 1 4 14 9 12 5 22 15 22 21 0 8 -5 7 -17 -2 -14 -11 -14 -9 1 9 11 12 26 20 33 18 7 -3 12 -1 10 5 -2 9 77 62 113 75 8 3 30 12 48 20 18 8 44 14 57 14 14 0 25 4 25 9 0 5 15 7 33 4 17 -3 47 -5 65 -4z m142 -55 c0 -3 -4 -3 -9 0 -5 4 -11 2 -13 -4 -3 -9 -58 31 -58 43 0 3 18 -4 40 -14 22 -11 40 -22 40 -25z m20 -31 c0 -10 -5 -35 -11 -56 -8 -32 -13 -36 -25 -26 -11 9 -17 9 -29 -1 -18 -15 -20 1 -3 18 10 10 10 17 0 32 -10 17 -10 20 3 20 8 0 15 -7 15 -15 0 -8 5 -15 10 -15 6 0 10 14 10 30 0 20 5 30 15 30 8 0 15 -8 15 -17z m-3881 -49 c-10 -13 -10 -17 1 -24 18 -11 7 -23 -23 -27 -20 -2 -21 -2 -5 11 10 7 15 16 11 19 -6 6 14 37 24 37 3 0 0 -7 -8 -16z m1231 12 c0 -3 -4 -8 -10 -11 -5 -3 -10 -1 -10 4 0 6 5 11 10 11 6 0 10 -2 10 -4z m-960 -44 c-1 -23 -26 -56 -34 -43 -4 5 -2 12 4 16 6 4 8 11 4 16 -4 6 -11 6 -19 -1 -15 -13 -35 -6 -35 12 0 6 3 9 6 6 3 -4 17 0 31 7 30 16 43 12 43 -13z m2215 8 c3 -5 -1 -10 -10 -10 -9 0 -13 5 -10 10 3 6 8 10 10 10 2 0 7 -4 10 -10z m45 -15 c0 -8 -4 -15 -10 -15 -5 0 -10 -9 -10 -20 0 -14 -6 -20 -22 -19 -16 1 -18 3 -6 6 9 2 20 17 23 34 7 30 25 41 25 14z m1233 0 c-3 -9 -8 -14 -10 -11 -3 3 -2 9 2 15 9 16 15 13 8 -4z m-3703 -24 c0 -22 -17 -37 -28 -26 -4 4 -2 10 5 12 7 2 9 11 6 19 -3 8 0 14 6 14 6 0 11 -9 11 -19z m40 5 c0 -22 -26 -26 -27 -5 -1 11 5 19 13 19 8 0 14 -6 14 -14z m3673 -28 c-4 -7 -8 -15 -8 -18 -2 -16 -32 -50 -44 -50 -11 0 -10 4 4 20 9 10 15 26 12 34 -4 10 -1 13 9 9 7 -3 14 0 14 6 0 6 5 11 11 11 6 0 7 -5 2 -12z m-3819 -33 c4 -15 14 -25 24 -25 12 0 18 -9 20 -26 1 -15 -2 -23 -8 -19 -6 4 -8 10 -5 15 3 4 -4 10 -15 13 -24 6 -26 -9 -4 -52 15 -30 15 -34 -7 -66 -33 -48 -107 -88 -93 -50 4 9 0 15 -10 15 -10 0 -16 9 -16 25 0 23 12 30 42 27 3 -1 9 5 12 13 3 9 0 12 -10 8 -8 -3 -14 1 -14 11 0 9 -7 16 -16 16 -8 0 -13 4 -10 9 3 5 14 8 24 6 9 -1 11 0 5 2 -18 6 -17 9 15 59 31 49 57 56 66 19z m110 -21 c10 -26 7 -34 -13 -34 -18 0 -35 33 -23 44 11 11 30 6 36 -10z m3576 -39 c0 -19 -13 -25 -30 -14 -12 7 -11 9 5 9 18 1 19 1 3 11 -25 14 -23 32 2 19 11 -6 20 -17 20 -25z m67 -2 c0 -10 -5 -21 -11 -25 -22 -15 -26 -8 -10 17 19 30 21 30 21 8z m-3557 -59 c0 -19 4 -25 15 -21 8 4 17 2 20 -2 7 -13 -24 -17 -75 -10 l-45 6 40 2 40 2 -23 19 c-20 17 -21 19 -5 23 32 8 33 7 33 -19z m-320 -19 c-7 -8 -16 -12 -21 -9 -13 8 -1 24 18 24 13 0 13 -3 3 -15z m-25 -35 c3 -5 -1 -10 -10 -10 -9 0 -13 5 -10 10 3 6 8 10 10 10 2 0 7 -4 10 -10z m-19 -42 c-9 16 5 15 35 -1 43 -23 32 -56 -17 -57 -12 0 -27 -7 -34 -15 -18 -21 -29 -19 -36 9 -8 34 25 79 45 63 12 -9 13 -9 7 1z m3303 -55 c0 -25 -1 -25 -8 -8 -5 11 -7 23 -4 28 8 14 13 7 12 -20z m-1089 -13 c0 -5 -5 -10 -11 -10 -5 0 -7 5 -4 10 3 6 8 10 11 10 2 0 4 -4 4 -10z m1373 -25 c-3 -9 -8 -14 -10 -11 -3 3 -2 9 2 15 9 16 15 13 8 -4z m-2133 -5 c0 -5 -4 -10 -10 -10 -5 0 -10 5 -10 10 0 6 5 10 10 10 6 0 10 -4 10 -10z m1855 -20 c3 -6 -1 -13 -10 -16 -19 -8 -30 0 -20 15 8 14 22 14 30 1z m-3315 -30 c0 -5 -2 -10 -4 -10 -3 0 -8 5 -11 10 -3 6 -1 10 4 10 6 0 11 -4 11 -10z m30 -11 c0 -6 -4 -7 -10 -4 -5 3 -10 11 -10 16 0 6 5 7 10 4 6 -3 10 -11 10 -16z m3259 9 c11 -10 14 -10 18 0 3 6 11 12 19 12 34 0 0 -35 -36 -36 -19 -1 -26 4 -27 17 -2 22 7 24 26 7z m-1826 -35 c-7 -2 -19 -2 -25 0 -7 3 -2 5 12 5 14 0 19 -2 13 -5z m67 -3 c0 -5 -5 -10 -11 -10 -5 0 -7 5 -4 10 3 6 8 10 11 10 2 0 4 -4 4 -10z m-38 -22 c-7 -7 -12 -8 -12 -2 0 14 12 26 19 19 2 -3 -1 -11 -7 -17z m-1507 -8 c-3 -5 -11 -10 -16 -10 -6 0 -7 5 -4 10 3 6 11 10 16 10 6 0 7 -4 4 -10z m3335 0 c0 -5 -5 -10 -11 -10 -5 0 -7 5 -4 10 3 6 8 10 11 10 2 0 4 -4 4 -10z m-1612 -14 c-7 -8 -15 -12 -17 -11 -5 6 10 25 20 25 5 0 4 -6 -3 -14z m-258 -28 c0 -12 3 -18 6 -15 12 12 46 -14 39 -30 -3 -9 0 -20 7 -24 7 -5 -10 -7 -39 -5 -32 2 -53 0 -56 -7 -2 -6 -6 -1 -10 12 -5 21 -3 23 23 18 20 -5 30 -2 34 10 5 12 4 13 -7 5 -11 -10 -14 -5 -15 23 -1 19 3 35 8 35 6 0 10 -10 10 -22z m1660 19 c0 -2 -10 -12 -22 -23 l-23 -19 19 23 c18 21 26 27 26 19z m-3162 -15 c-24 -56 -63 -115 -111 -172 -48 -57 -58 -75 -53 -94 3 -14 2 -28 -4 -31 -5 -3 -10 -1 -10 4 0 28 -40 -17 -49 -55 -7 -28 -24 -53 -51 -78 -22 -20 -40 -40 -40 -45 0 -5 -7 -12 -16 -15 -13 -5 -14 -9 -4 -21 8 -10 9 -15 2 -15 -6 0 -9 -8 -6 -17 5 -15 4 -15 -4 -3 -9 12 -14 11 -34 -5 -13 -11 -27 -26 -31 -32 -11 -17 -36 -16 -43 1 -3 8 -11 14 -17 12 -7 -1 -9 -1 -4 1 4 3 4 10 0 16 -12 19 -13 46 -3 52 6 3 10 -2 10 -11 0 -16 1 -16 14 2 10 13 11 23 4 31 -8 10 -3 13 20 13 25 0 29 3 25 19 -3 14 3 21 26 29 17 6 31 16 31 21 0 15 -9 14 -26 -3 -15 -15 -58 -10 -48 6 4 5 15 8 25 5 16 -4 18 -1 13 21 -3 16 -2 22 3 15 16 -22 86 -9 122 24 31 29 33 33 17 48 -11 11 -16 12 -16 4 0 -10 -3 -10 -12 -1 -10 10 -7 16 11 28 12 9 20 22 17 29 -5 13 39 65 54 65 7 0 27 38 28 54 0 5 6 12 14 17 7 5 13 12 13 16 1 24 24 46 44 40 11 -3 21 -1 21 4 0 5 9 9 21 9 11 0 17 5 14 10 -3 6 3 10 15 10 12 0 20 -3 18 -8z m1662 -1 c0 -17 -12 -41 -20 -41 -5 0 -7 9 -5 21 3 15 0 19 -11 15 -9 -3 -12 -1 -9 4 8 13 45 13 45 1z m-40 -33 c0 -4 -4 -8 -9 -8 -6 0 -12 4 -15 8 -3 5 1 9 9 9 8 0 15 -4 15 -9z m-185 -106 c-6 -15 -8 -15 -15 3 -10 28 0 53 12 30 5 -9 7 -24 3 -33z m-105 18 c0 -5 -5 -10 -11 -10 -5 0 -7 5 -4 10 3 6 8 10 11 10 2 0 4 -4 4 -10z m2136 -27 c-10 -10 -19 5 -10 18 6 11 8 11 12 0 2 -7 1 -15 -2 -18z m-11 -23 c-3 -5 -11 -10 -16 -10 -6 0 -7 5 -4 10 3 6 11 10 16 10 6 0 7 -4 4 -10z m-2042 -86 c-3 -8 -9 -14 -15 -14 -5 0 -6 -5 -2 -12 5 -8 2 -9 -10 -5 -10 4 -19 1 -22 -8 -4 -8 -10 -13 -14 -10 -12 8 0 45 24 69 18 19 23 20 33 8 6 -8 9 -20 6 -28z m1542 37 c3 -5 1 -12 -5 -16 -5 -3 -10 -1 -10 5 0 6 -4 9 -8 6 -4 -2 -14 -1 -22 5 -11 6 -8 9 12 9 15 0 29 -4 33 -9z m-1505 -45 c0 -3 -4 -8 -10 -11 -5 -3 -10 -1 -10 4 0 6 5 11 10 11 6 0 10 -2 10 -4z m1417 -2 c-3 -3 -12 -4 -19 -1 -8 3 -5 6 6 6 11 1 17 -2 13 -5z m3 -26 c0 -4 -4 -8 -9 -8 -6 0 -12 4 -15 8 -3 5 1 9 9 9 8 0 15 -4 15 -9z m-1603 -11 c-5 -17 -37 -21 -37 -5 0 8 9 14 21 15 12 1 19 -3 16 -10z m168 3 c-3 -5 -14 -10 -23 -10 -15 0 -15 2 -2 10 20 13 33 13 25 0z m668 -7 c-5 -12 -2 -15 10 -10 12 4 14 2 10 -11 -4 -9 -11 -20 -17 -24 -14 -9 33 -59 54 -57 40 4 60 -2 60 -17 0 -11 -5 -14 -17 -10 -10 4 -15 4 -11 1 13 -13 -14 -65 -40 -78 -15 -7 -26 -18 -25 -24 4 -19 -22 -9 -52 20 -17 16 -24 26 -17 23 18 -10 38 4 21 15 -10 6 -11 11 -3 17 6 4 13 15 17 25 5 13 1 17 -20 17 -26 0 -26 1 -7 15 19 14 19 14 -1 15 -12 0 -27 -6 -35 -12 -8 -7 -6 -3 4 9 10 12 21 22 25 21 27 -3 33 3 15 16 -12 9 -21 11 -25 4 -4 -6 -12 -9 -19 -6 -18 6 37 68 61 68 13 0 17 -5 12 -17z m757 -33 c0 -5 -4 -10 -10 -10 -5 0 -10 5 -10 10 0 6 5 10 10 10 6 0 10 -4 10 -10z m-1533 -16 c-3 -3 -12 -4 -19 -1 -8 3 -5 6 6 6 11 1 17 -2 13 -5z m928 -14 c3 -5 1 -10 -4 -10 -6 0 -11 5 -11 10 0 6 2 10 4 10 3 0 8 -4 11 -10z m-921 -19 c4 -5 -1 -8 -9 -7 -21 3 -31 16 -12 16 9 0 18 -4 21 -9z m-14 -46 c12 -19 25 -33 30 -30 5 3 5 -7 1 -22 -7 -27 -51 -47 -51 -24 0 6 -7 8 -15 5 -9 -4 -15 0 -15 9 0 8 5 17 12 19 9 3 9 6 -1 12 -8 5 -14 1 -18 -13 -3 -12 -9 -21 -13 -21 -14 0 3 44 23 63 11 9 15 17 8 17 -7 0 -9 5 -6 10 11 18 23 11 45 -25z m1775 15 c3 -6 -1 -7 -9 -4 -18 7 -21 14 -7 14 6 0 13 -4 16 -10z m-1041 -45 c-4 -8 -11 -15 -16 -15 -6 0 -8 -7 -4 -15 4 -12 2 -13 -14 -2 -13 8 -16 13 -8 16 7 2 19 10 26 18 18 17 23 17 16 -2z m-68 -64 c-3 -5 -15 -11 -26 -14 -17 -4 -19 -3 -9 9 12 15 44 20 35 5z m78 -6 c-4 -8 -8 -15 -10 -15 -2 0 -4 7 -4 15 0 8 4 15 10 15 5 0 7 -7 4 -15z m-2370 -1 c9 -3 16 -11 16 -16 0 -6 8 -17 18 -24 9 -7 12 -14 5 -14 -6 0 -15 5 -18 10 -4 6 -11 8 -16 5 -5 -4 -9 3 -9 14 0 10 -6 22 -12 24 -7 3 -10 6 -6 6 3 1 13 -2 22 -5z m2302 -13 c-4 -5 3 -7 14 -4 11 3 20 0 20 -6 0 -5 6 -8 13 -6 7 3 12 -4 12 -20 0 -14 -6 -25 -13 -25 -7 0 -17 -11 -22 -25 -5 -14 -15 -25 -21 -25 -6 0 -9 -7 -5 -15 4 -11 -2 -15 -22 -15 -25 1 -26 2 -9 15 13 9 17 20 12 34 -3 12 -2 21 3 21 5 0 12 11 14 25 3 13 2 22 -2 20 -4 -3 -13 1 -19 9 -9 11 -9 15 1 19 21 9 30 8 24 -2z m-2101 -11 c3 -5 -1 -10 -9 -10 -9 0 -16 5 -16 10 0 6 4 10 9 10 6 0 13 -4 16 -10z m2192 -22 c-16 -10 -21 -2 -13 19 6 15 9 15 16 3 6 -9 5 -17 -3 -22z m-1917 2 c8 -5 13 -10 10 -11 -3 0 -12 -2 -21 -4 -9 -1 -16 4 -16 11 0 16 6 17 27 4z m1810 -20 c0 -5 -7 -10 -16 -10 -8 0 -12 5 -9 10 3 6 10 10 16 10 5 0 9 -4 9 -10z m650 -10 c0 -5 -4 -10 -10 -10 -5 0 -10 5 -10 10 0 6 5 10 10 10 6 0 10 -4 10 -10z m-3100 -19 c0 -5 -7 -12 -16 -15 -14 -5 -15 -4 -4 9 14 17 20 19 20 6z m-460 -21 c0 -5 -2 -10 -4 -10 -3 0 -8 5 -11 10 -3 6 -1 10 4 10 6 0 11 -4 11 -10z m481 -21 c-24 -23 -31 -24 -31 -4 0 16 30 36 43 28 5 -3 -1 -14 -12 -24z m-501 4 c0 -13 -47 -53 -54 -46 -3 4 4 17 16 30 21 23 38 30 38 16z m460 2 c0 -7 -30 -13 -34 -7 -3 4 4 9 15 9 10 1 19 0 19 -2z m1790 -15 c0 -11 -7 -20 -15 -20 -17 0 -18 2 -9 24 9 23 24 20 24 -4z m-1453 -20 c13 0 13 -3 3 -15 -7 -8 -20 -15 -28 -15 -12 0 -13 3 -5 11 6 6 10 17 9 23 -2 6 -1 8 1 4 3 -5 12 -8 20 -8z m2753 10 c0 -5 -4 -10 -10 -10 -5 0 -10 5 -10 10 0 6 5 10 10 10 6 0 10 -4 10 -10z m-3123 -16 c-3 -3 -12 -4 -19 -1 -8 3 -5 6 6 6 11 1 17 -2 13 -5z m323 -14 c0 -5 -8 -10 -18 -10 -10 0 -23 -5 -30 -12 -9 -9 -12 -9 -12 0 0 7 10 17 23 22 30 12 37 12 37 0z m-238 -43 c2 -11 9 -22 17 -25 8 -3 11 0 7 7 -4 6 -1 11 7 11 20 0 28 -25 14 -39 -7 -7 -8 -11 0 -11 6 0 8 -11 5 -25 -2 -15 0 -25 7 -25 6 0 10 3 10 8 -1 4 0 23 1 42 2 25 4 29 7 13 2 -13 11 -23 19 -23 8 0 14 -5 14 -11 0 -5 -4 -7 -10 -4 -5 3 -10 2 -10 -4 0 -5 13 -12 30 -16 29 -6 52 -25 30 -25 -6 0 -8 -6 -4 -12 6 -10 4 -10 -7 0 -19 18 -33 15 -44 -10 -6 -13 -20 -24 -32 -26 -25 -4 -21 -32 6 -32 13 -1 13 -3 -3 -15 -16 -12 -17 -18 -8 -27 7 -7 12 -20 12 -30 0 -10 5 -18 11 -18 5 0 7 -4 4 -10 -3 -5 -4 -10 -1 -10 2 0 11 -3 20 -6 11 -4 16 0 16 12 1 18 1 18 16 -1 9 -12 11 -21 4 -23 -5 -2 -8 -8 -5 -12 3 -5 13 -6 21 -3 14 5 15 3 5 -15 -14 -26 -14 -32 0 -32 5 0 7 5 4 10 -3 6 -1 10 4 10 15 0 14 -16 -4 -49 -12 -25 -28 -132 -27 -183 1 -21 -59 -75 -92 -84 -13 -3 -29 -17 -35 -31 -8 -17 -17 -23 -27 -19 -11 4 -15 2 -11 -8 3 -8 0 -19 -6 -25 -17 -13 -41 3 -34 23 3 8 2 18 -3 21 -6 4 -10 -9 -10 -27 0 -50 -17 -62 -47 -32 -23 23 -35 28 -60 25 -8 -1 -10 5 -7 14 5 11 -1 15 -24 15 -17 0 -33 -6 -35 -12 -3 -8 -6 -6 -6 5 -1 9 -7 17 -13 17 -10 0 -9 3 1 9 10 7 8 10 -10 16 -13 4 -34 18 -46 32 -14 16 -22 20 -25 11 -3 -8 -13 -3 -30 15 -16 17 -31 25 -42 21 -9 -3 -16 -1 -16 5 0 6 8 11 18 12 10 0 12 3 4 6 -7 2 -17 14 -24 26 -10 20 -10 21 5 8 15 -12 17 -11 17 13 0 15 -8 31 -20 38 -25 16 -25 24 0 31 11 3 24 16 29 30 5 14 15 28 20 32 6 3 11 14 11 23 0 13 -2 14 -9 4 -6 -10 -10 -10 -20 2 -19 22 -9 49 19 57 16 4 19 7 8 8 -20 1 -22 9 -8 31 7 11 4 17 -8 23 -11 5 -8 6 9 2 20 -3 30 2 48 26 13 17 25 28 28 25 4 -3 12 -1 20 6 7 6 17 8 21 4 4 -4 0 -13 -9 -19 -9 -7 -14 -18 -12 -25 3 -9 12 -6 31 9 28 22 35 48 17 62 -6 5 -4 7 5 5 8 -1 32 15 53 35 21 20 36 37 33 37 -7 0 17 30 76 91 49 50 74 56 80 16z m138 13 c0 -5 -2 -10 -4 -10 -3 0 -8 5 -11 10 -3 6 -1 10 4 10 6 0 11 -4 11 -10z m80 -5 c0 -8 -4 -15 -10 -15 -5 0 -7 -7 -4 -15 7 -17 -4 -19 -26 -5 -12 7 -12 12 4 29 22 25 36 27 36 6z m-30 -57 c0 -13 -31 -37 -47 -38 -7 0 -10 7 -6 17 4 11 3 14 -5 9 -7 -4 -12 -1 -12 6 0 9 13 14 35 15 19 1 35 -4 35 -9z m-460 -48 c0 -5 -2 -10 -4 -10 -3 0 -8 5 -11 10 -3 6 -1 10 4 10 6 0 11 -4 11 -10z m-15 -30 c3 -5 1 -10 -4 -10 -6 0 -11 5 -11 10 0 6 2 10 4 10 3 0 8 -4 11 -10z m65 1 c0 -5 -7 -12 -16 -15 -14 -5 -15 -4 -4 9 14 17 20 19 20 6z m515 -31 c-3 -5 1 -11 7 -14 7 -3 4 -4 -7 -3 -12 1 -19 -3 -17 -10 4 -21 -16 -15 -23 7 -3 11 -12 20 -18 21 -7 1 -1 4 13 8 28 8 53 3 45 -9z m-615 -10 c0 -5 -2 -10 -4 -10 -3 0 -8 5 -11 10 -3 6 -1 10 4 10 6 0 11 -4 11 -10z m-520 -45 c-7 -8 -17 -15 -22 -15 -6 0 -5 7 2 15 7 8 17 15 22 15 6 0 5 -7 -2 -15z m-40 -17 c0 -18 -2 -20 -9 -8 -6 8 -7 18 -5 22 9 14 14 9 14 -14z m535 12 c3 -5 1 -10 -4 -10 -6 0 -11 5 -11 10 0 6 2 10 4 10 3 0 8 -4 11 -10z m2840 -30 c3 -5 1 -10 -4 -10 -6 0 -11 5 -11 10 0 6 2 10 4 10 3 0 8 -4 11 -10z m-3410 -30 c3 -5 -2 -10 -11 -10 -10 0 -14 -3 -11 -7 9 -9 -12 -33 -30 -33 -10 0 -11 5 -4 19 6 10 7 22 3 26 -4 5 -1 5 6 1 6 -4 12 -2 12 3 0 14 27 14 35 1z m3419 -50 c-6 -6 -15 -6 -24 0 -13 8 -12 10 3 10 12 0 16 5 11 13 -6 10 -4 10 7 0 8 -8 10 -16 3 -23z m2154 15 c36 -8 47 -19 36 -36 -5 -8 -9 -8 -14 1 -4 7 -29 14 -56 16 -44 3 -46 2 -28 -11 10 -8 30 -23 43 -33 l24 -19 -42 -42 c-32 -32 -40 -46 -32 -54 9 -9 17 -8 34 2 22 14 22 14 3 -8 -11 -11 -15 -21 -11 -21 15 0 74 44 79 60 3 8 14 30 25 48 19 33 20 33 31 13 9 -18 6 -27 -16 -56 -14 -19 -38 -44 -53 -56 l-26 -20 25 7 c29 7 26 2 -9 -16 -15 -8 -21 -8 -17 -1 13 21 -10 11 -34 -14 -23 -25 -60 -34 -60 -16 0 6 10 17 22 25 12 9 19 16 14 16 -8 0 -63 -42 -101 -78 -26 -24 -94 -57 -102 -48 -3 3 1 14 10 24 27 29 20 34 -9 7 -27 -25 -54 -33 -54 -15 0 5 10 15 23 21 23 12 77 64 77 74 0 3 11 18 25 33 14 15 21 28 16 30 -14 5 -93 -43 -121 -73 -13 -14 -29 -25 -37 -25 -7 0 -13 -6 -13 -12 0 -13 -59 -58 -74 -58 -5 0 -26 -16 -47 -35 -22 -19 -35 -35 -30 -35 5 0 7 -8 4 -17 -6 -23 -105 -103 -127 -103 -10 0 -14 -5 -11 -10 10 -16 -101 -63 -121 -52 -13 7 -11 10 14 15 16 3 37 13 45 22 9 9 20 16 24 15 7 0 8 5 5 30 -1 5 -9 7 -18 3 -13 -5 -13 -7 -2 -14 7 -5 8 -9 3 -9 -6 0 -17 6 -23 12 -10 10 -15 10 -22 -2 -5 -8 -12 -11 -17 -7 -4 5 -1 12 7 17 8 5 12 12 9 15 -9 9 -40 -6 -33 -16 3 -5 -4 -9 -16 -9 -24 0 -66 -25 -95 -56 -11 -12 -31 -27 -43 -34 -13 -6 -21 -14 -18 -18 4 -3 12 0 18 6 17 17 33 15 18 -3 -7 -8 -19 -15 -28 -15 -14 0 -14 -2 0 -17 16 -19 14 -43 -4 -43 -5 0 -6 9 -3 20 8 25 4 25 -45 0 -22 -11 -40 -18 -40 -15 0 3 -10 0 -22 -6 -21 -11 -22 -11 -10 4 11 13 10 15 -7 10 -11 -3 -17 -11 -15 -17 8 -20 -56 -47 -79 -34 -10 5 -21 7 -24 4 -8 -8 8 -27 18 -21 5 4 9 1 9 -5 0 -7 -5 -10 -12 -8 -6 2 -27 -11 -46 -29 -18 -18 -37 -33 -42 -33 -16 0 -17 25 -1 37 14 11 14 12 1 13 -21 0 -35 -11 -49 -37 -7 -13 -21 -23 -34 -23 -22 0 -123 -31 -184 -57 -17 -7 -42 -13 -56 -13 -14 0 -29 -5 -32 -10 -4 -6 -10 -8 -15 -5 -5 3 -20 -1 -33 -10 -14 -9 -32 -13 -43 -9 -10 4 -16 3 -12 -1 12 -13 -35 -32 -58 -24 -11 4 -46 1 -77 -6 -31 -7 -58 -11 -61 -8 -3 3 -12 -2 -21 -11 -18 -18 -35 -21 -35 -6 0 6 8 10 18 11 11 0 13 2 4 6 -8 3 -22 -4 -33 -16 -21 -22 -28 -24 -70 -21 -17 1 -29 -5 -33 -16 -5 -13 -14 -15 -42 -11 -20 4 -34 3 -31 0 12 -11 -14 -45 -30 -39 -8 3 -36 -1 -61 -10 -26 -8 -63 -18 -82 -20 -19 -2 -43 -13 -55 -23 -18 -17 -79 -26 -69 -10 2 3 -7 11 -19 16 -27 12 -86 -7 -88 -29 -1 -7 -2 -24 -3 -38 0 -14 -7 -31 -15 -39 -12 -13 -15 -13 -27 3 -7 10 -17 15 -23 12 -6 -4 -20 3 -31 14 -21 21 -60 20 -60 -2 0 -5 7 -7 16 -4 8 3 29 -1 45 -10 25 -12 28 -18 18 -30 -13 -16 -49 -19 -49 -4 0 6 5 10 10 10 6 0 10 4 10 10 0 5 -6 7 -14 4 -8 -3 -22 -1 -32 4 -18 10 -54 5 -54 -7 0 -4 13 -6 29 -3 45 6 50 -25 6 -43 -18 -8 -40 -12 -48 -9 -9 3 -21 -4 -30 -16 -9 -12 -19 -20 -24 -17 -4 2 -17 1 -28 -4 l-20 -8 20 0 c17 -1 17 -3 5 -11 -18 -12 -30 -13 -29 -2 4 21 -3 31 -16 26 -10 -4 -13 -13 -10 -25 5 -15 1 -19 -19 -19 -14 0 -30 -8 -35 -17 -6 -10 -11 -15 -11 -11 0 3 -24 -3 -52 -14 -62 -23 -122 -33 -113 -18 3 5 1 10 -5 10 -6 0 -8 5 -5 10 3 6 0 10 -8 10 -16 0 -18 -31 -2 -42 10 -7 -3 -9 -93 -13 -38 -2 -152 -49 -160 -67 -2 -4 -10 -4 -18 -1 -10 3 -12 0 -9 -10 4 -9 -1 -16 -14 -20 -16 -4 -21 0 -21 14 0 10 4 19 8 19 5 0 9 7 9 15 0 18 -7 18 -43 5 -19 -8 -30 -8 -38 0 -7 7 -7 11 -1 10 30 -6 41 2 40 28 0 21 -4 26 -20 24 -11 -2 -28 -11 -37 -19 -13 -12 -21 -13 -31 -4 -8 6 -17 7 -21 3 -4 -4 -26 -8 -47 -8 -49 -2 -58 -10 -34 -28 14 -10 23 -11 37 -3 9 6 20 8 24 4 13 -12 -9 -26 -48 -31 -21 -2 -42 -7 -47 -10 -5 -4 -12 -2 -16 4 -4 6 -11 7 -17 4 -7 -4 -8 -2 -4 5 4 6 16 9 26 6 10 -3 21 -1 25 5 3 5 1 10 -5 10 -6 0 -8 5 -4 12 5 8 -8 10 -48 5 -31 -3 -60 -1 -64 3 -5 5 -30 -2 -57 -14 -26 -13 -50 -19 -53 -14 -5 7 -95 5 -219 -7 -22 -2 -45 -4 -52 -4 -6 -1 -19 -8 -27 -17 -9 -9 -16 -11 -16 -4 0 6 -4 9 -9 6 -5 -3 -14 1 -21 9 -7 8 -16 13 -20 10 -5 -3 -12 -1 -15 5 -7 11 -28 7 -80 -15 -44 -19 -74 -24 -81 -14 -10 16 -32 10 -39 -11 -4 -11 -11 -18 -16 -15 -5 4 -17 1 -26 -5 -16 -10 -16 -11 2 -5 11 3 16 3 12 -2 -5 -4 -24 -8 -45 -9 -20 0 -38 -6 -40 -12 -2 -7 -22 -12 -43 -12 -24 0 -38 -4 -34 -10 3 -5 -3 -10 -14 -10 -12 0 -21 -5 -21 -11 0 -5 -4 -8 -9 -5 -5 3 -24 3 -42 -1 l-34 -7 30 -6 30 -5 -39 -23 c-25 -15 -42 -20 -49 -13 -14 14 -37 2 -73 -36 -17 -18 -39 -33 -48 -33 -9 0 -16 -4 -16 -10 0 -5 -6 -10 -14 -10 -7 0 -30 -13 -51 -30 -21 -16 -34 -30 -29 -30 4 0 -1 -6 -11 -14 -11 -8 -23 -12 -27 -10 -5 3 -8 0 -8 -5 0 -6 -7 -11 -15 -11 -8 0 -15 -5 -15 -10 0 -7 -6 -7 -19 0 -28 15 -33 13 -26 -10 5 -15 3 -18 -9 -14 -9 3 -16 1 -16 -5 0 -6 5 -11 11 -11 8 0 8 -4 0 -14 -9 -11 -9 -15 1 -20 10 -5 10 -7 -1 -12 -7 -4 -21 -15 -29 -25 -9 -11 -22 -19 -29 -19 -7 0 -13 -5 -13 -11 0 -5 -4 -7 -10 -4 -5 3 -19 0 -30 -8 -19 -13 -70 -12 -70 2 0 3 -14 7 -30 8 -17 1 -30 -2 -30 -7 0 -10 33 -22 50 -18 7 2 14 -8 15 -20 1 -17 -5 -26 -23 -33 -24 -9 -41 0 -42 24 0 9 -50 9 -50 -1 0 -9 -62 -37 -75 -34 -5 2 -14 -3 -20 -10 -5 -7 -16 -14 -23 -15 -16 -4 -16 24 1 31 6 4 2 4 -10 2 -25 -4 -27 15 -3 26 12 5 11 7 -4 7 -13 1 -16 6 -12 17 5 14 4 15 -9 4 -9 -8 -13 -20 -9 -33 4 -13 2 -17 -5 -13 -6 4 -11 2 -11 -3 0 -6 4 -11 9 -11 16 0 31 -56 18 -69 -9 -9 -8 -17 1 -31 11 -18 10 -20 -10 -20 -19 0 -20 -2 -8 -10 8 -5 22 -7 30 -5 8 2 21 1 29 -4 11 -7 9 -14 -13 -37 -14 -16 -26 -32 -26 -36 0 -5 -5 -8 -11 -8 -5 0 -8 4 -5 9 4 5 1 11 -5 13 -9 3 -9 9 0 26 11 20 9 22 -13 22 -14 0 -27 -4 -30 -9 -3 -5 -15 -11 -26 -14 -13 -3 -18 -1 -13 5 4 8 -4 9 -25 5 -23 -5 -34 -2 -42 11 -9 14 -10 12 -5 -11 4 -19 2 -26 -5 -22 -5 3 -10 1 -10 -4 0 -6 5 -11 12 -11 6 0 8 -3 5 -6 -4 -4 -13 -1 -22 6 -26 21 -30 2 -4 -21 l24 -21 -24 15 c-25 16 -51 12 -64 -9 -4 -7 -14 -11 -22 -8 -10 4 -12 0 -8 -16 5 -19 3 -21 -16 -15 -12 3 -21 2 -21 -3 0 -6 5 -12 12 -14 7 -3 9 -12 5 -22 -5 -11 -13 -16 -23 -12 -11 4 -15 2 -11 -8 3 -8 -1 -20 -8 -26 -17 -14 -12 -25 17 -41 19 -10 20 -9 15 10 -4 15 -1 21 11 21 13 0 18 -11 20 -40 2 -34 0 -40 -18 -40 -11 0 -20 -6 -20 -13 0 -8 -9 -22 -20 -32 -11 -10 -17 -22 -14 -26 3 -5 -2 -9 -12 -9 -12 0 -15 6 -12 24 4 18 0 26 -14 29 -11 3 -18 0 -18 -9 0 -8 -4 -14 -10 -14 -5 0 -10 -6 -10 -14 0 -10 19 -19 55 -26 64 -13 72 -35 29 -69 -31 -25 -42 -26 -63 -7 -9 7 -24 11 -34 7 -16 -6 -16 -8 -1 -29 10 -15 22 -21 34 -17 15 5 17 1 11 -27 -4 -18 -12 -33 -18 -33 -6 0 -15 -3 -19 -7 -4 -5 1 -8 11 -8 15 0 15 -2 5 -15 -9 -11 -22 -14 -40 -10 -19 4 -31 1 -41 -12 -12 -16 -12 -17 2 -6 17 13 62 6 53 -9 -3 -5 -14 -6 -25 -3 -11 4 -19 2 -19 -5 0 -6 14 -13 30 -16 32 -7 39 -18 16 -27 -8 -3 -17 1 -20 9 -3 9 -10 12 -16 9 -5 -3 -10 -1 -10 4 0 6 -11 11 -25 11 -20 0 -25 5 -25 25 0 18 4 23 15 19 8 -4 15 -2 15 4 0 6 -6 12 -12 15 -9 3 -7 10 7 21 20 17 20 17 -1 7 -28 -13 -46 1 -49 38 -2 36 -15 55 -15 23 0 -26 -35 -31 -44 -6 -9 23 3 37 19 24 18 -15 31 25 15 45 -9 11 -9 15 -1 15 6 0 11 7 11 15 0 8 5 15 10 15 6 0 10 -5 10 -12 0 -6 9 -3 20 7 15 13 17 21 9 26 -9 5 -8 11 4 23 20 20 31 21 23 0 -3 -8 -2 -12 4 -9 15 9 12 26 -7 47 -9 10 -11 18 -5 18 6 0 12 -5 14 -12 6 -18 28 0 28 23 0 11 8 32 17 46 17 26 17 27 0 20 -9 -3 -17 -2 -17 2 0 5 7 11 15 15 8 3 15 12 15 21 0 8 5 15 11 15 6 0 9 7 6 14 -4 9 2 17 14 21 15 5 17 10 9 19 -8 10 -4 12 17 9 22 -4 25 -2 13 6 -13 10 -13 11 0 12 10 0 8 3 -5 8 -11 5 -25 4 -32 -1 -9 -7 -13 -7 -13 1 0 14 41 31 55 23 6 -4 3 5 -6 18 -21 35 -14 60 19 61 26 0 26 1 5 9 -13 5 -23 12 -23 14 0 3 6 3 14 0 8 -3 17 -1 21 5 3 6 1 11 -4 11 -6 0 -10 3 -9 8 1 4 -3 17 -10 30 -11 19 -10 22 3 22 9 0 14 4 10 9 -3 6 4 15 15 21 21 11 22 37 1 33 -6 -2 -11 4 -11 12 0 8 5 15 10 15 6 0 10 6 10 14 0 8 4 16 10 18 5 2 6 9 1 16 -10 17 -39 5 -46 -19 -4 -10 -11 -19 -16 -19 -6 0 -7 4 -4 10 3 5 1 19 -5 30 -9 16 -8 20 5 20 8 0 15 7 15 15 0 18 -17 20 -22 3 -3 -9 -9 -8 -21 4 -21 21 -21 28 -2 28 8 0 14 3 14 8 -4 24 2 34 14 23 11 -8 20 -2 43 29 16 22 35 38 42 35 7 -3 10 -1 7 4 -3 5 -1 12 5 16 5 3 10 1 10 -6 0 -7 9 -9 22 -6 22 6 48 -7 48 -25 0 -7 -5 -6 -13 0 -24 21 -55 3 -59 -34 -2 -19 -2 -34 2 -34 12 1 35 20 35 31 0 21 66 16 82 -6 12 -16 14 -16 10 -2 -4 9 -2 17 3 17 5 0 10 -10 12 -22 2 -18 9 -22 27 -20 34 3 38 10 15 27 -17 13 -17 14 -1 15 9 0 17 4 17 8 0 5 10 14 23 21 21 11 21 11 0 6 -16 -4 -23 0 -28 14 -3 12 -4 25 -1 30 4 5 0 12 -6 14 -8 3 -6 6 5 6 15 1 16 4 6 22 -8 15 -8 19 0 15 6 -4 11 0 11 8 0 9 -5 16 -11 16 -16 0 -1 78 20 101 9 10 32 38 51 63 32 41 59 55 52 27 -4 -20 -4 -26 -3 -64 1 -23 5 -36 11 -32 6 3 10 2 10 -4 0 -5 -5 -13 -10 -16 -6 -3 -10 -14 -10 -23 0 -12 3 -13 8 -5 6 9 11 7 20 -7 10 -16 9 -18 -3 -14 -11 5 -13 2 -9 -10 3 -9 10 -16 14 -16 4 0 7 -15 6 -32 -1 -20 4 -38 14 -45 8 -6 15 -15 16 -20 2 -26 17 -91 24 -108 16 -37 18 -65 7 -66 -8 0 -8 -2 1 -6 6 -2 12 -14 12 -26 0 -16 3 -18 9 -9 4 7 12 12 17 11 23 -4 26 2 8 16 -14 11 -16 15 -4 15 12 1 11 4 -4 15 -10 7 -15 18 -12 24 4 5 2 12 -3 16 -6 3 -13 27 -17 53 -4 26 -17 71 -30 101 -27 60 -28 65 -15 56 6 -3 6 6 1 25 -5 17 -12 57 -15 89 -5 53 -4 61 15 74 21 14 21 16 3 27 -13 8 -14 13 -5 16 6 3 12 12 12 20 0 8 5 13 11 11 6 -1 12 10 13 24 1 19 18 42 54 74 29 26 52 53 52 61 0 20 -40 12 -56 -11 -8 -10 -14 -16 -14 -12 0 4 -9 3 -21 -4 -28 -15 -43 0 -30 32 5 13 10 18 10 12 1 -7 6 -13 12 -13 5 0 7 5 4 10 -3 6 3 10 14 10 13 0 19 5 15 14 -3 8 0 17 7 22 7 4 15 2 17 -4 2 -7 8 -12 13 -12 4 0 6 6 3 13 -2 7 10 28 27 47 20 22 33 30 36 23 3 -7 9 -13 14 -13 4 0 6 7 3 15 -4 10 0 15 14 15 23 0 37 15 23 24 -5 3 -7 15 -4 27 5 17 12 20 47 17 24 -2 42 -8 42 -15 3 -26 5 -28 15 -10 7 12 23 17 54 17 24 0 47 4 50 10 10 16 55 12 49 -4 -4 -9 2 -16 17 -18 12 -2 24 -8 26 -15 3 -8 -4 -11 -18 -8 -14 3 -34 -6 -57 -25 -29 -24 -38 -27 -53 -17 -11 7 -19 17 -19 24 0 7 -9 13 -20 13 -12 0 -20 -7 -20 -16 0 -10 6 -14 15 -11 8 4 17 2 20 -3 4 -6 -1 -10 -9 -10 -9 0 -16 -4 -16 -10 0 -5 5 -10 12 -10 6 0 3 -7 -8 -15 -19 -14 -18 -14 4 -15 17 0 22 6 22 25 0 14 5 25 10 25 6 0 10 -4 10 -9 0 -13 43 -22 54 -11 6 6 18 10 28 10 10 0 18 4 18 10 0 5 -7 7 -15 4 -8 -4 -15 -1 -15 6 0 8 8 10 22 7 12 -3 30 -2 40 4 12 7 18 6 18 -1 0 -6 4 -8 10 -5 6 3 10 1 10 -5 0 -8 6 -8 20 0 16 9 20 8 20 -5 0 -9 9 -15 23 -14 12 0 16 3 10 6 -21 8 -15 26 7 20 14 -4 20 0 20 11 0 12 3 13 11 5 9 -9 15 -8 26 3 16 15 33 10 33 -10 0 -7 -18 -19 -40 -26 -22 -7 -40 -17 -40 -22 0 -12 12 -9 34 7 24 18 52 19 60 3 3 -7 3 -1 1 15 -3 20 1 27 13 28 15 1 15 2 -1 6 -22 6 -17 27 7 31 17 4 54 -35 48 -50 -3 -12 26 -10 33 2 3 5 13 6 22 3 11 -4 14 -3 9 5 -4 7 -14 12 -22 12 -8 0 -14 5 -14 10 0 6 -12 15 -27 21 l-28 11 25 13 c17 9 30 10 43 4 9 -6 22 -7 27 -4 6 3 7 -1 4 -9 -7 -18 -24 -22 -24 -5 0 5 -4 7 -10 4 -18 -11 -11 -25 13 -25 13 0 28 -5 35 -12 7 -7 12 -9 12 -5 0 3 11 2 25 -3 15 -6 26 -6 30 1 7 10 94 7 113 -5 6 -3 14 -1 18 5 4 8 3 9 -4 5 -7 -4 -12 -2 -12 3 0 6 -5 10 -12 8 -14 -2 -17 32 -4 51 5 7 4 12 -3 12 -20 0 -12 20 12 30 12 5 16 9 10 9 -7 1 -13 5 -13 10 0 5 9 7 20 4 11 -3 17 -9 14 -14 -3 -5 9 -9 26 -9 24 0 31 4 27 14 -5 13 28 32 72 42 8 1 17 6 20 11 7 10 37 10 47 0 4 -4 17 -7 28 -6 20 0 20 1 -1 11 -13 6 -23 15 -23 20 0 5 5 6 10 3 6 -4 19 -1 28 7 15 12 16 11 3 -5 -14 -17 -13 -17 15 -5 16 7 31 15 34 18 3 3 31 6 62 8 51 2 57 1 63 -20 4 -13 15 -32 24 -42 15 -18 15 -19 -1 -13 -17 6 -42 -11 -50 -33 -4 -13 -78 -23 -78 -10 0 5 8 14 18 20 14 8 11 10 -16 6 -36 -5 -56 -16 -29 -16 9 0 17 -7 17 -15 0 -8 7 -15 15 -15 8 0 15 -3 15 -8 0 -4 19 -6 43 -3 23 2 36 6 30 8 -17 6 -16 18 2 37 11 10 23 13 38 7 25 -8 57 -4 57 9 0 5 14 11 30 15 17 4 30 11 30 16 0 6 4 7 10 4 6 -3 10 4 10 16 0 18 2 19 15 9 9 -8 15 -9 15 -2 0 6 -4 14 -10 17 -31 19 7 37 83 39 27 1 52 7 56 14 4 6 22 13 41 15 19 1 55 13 79 26 25 13 59 26 75 28 17 3 38 8 46 13 8 4 31 8 50 8 18 0 50 7 70 15 64 27 158 50 179 44 12 -3 24 -1 27 4 3 5 21 9 40 9 24 0 34 5 34 15 0 20 15 19 40 -2 14 -13 17 -20 8 -30 -7 -9 -7 -13 1 -13 6 0 11 -7 11 -16 0 -8 4 -13 10 -9 5 3 7 12 4 20 -4 10 0 12 14 8 14 -3 28 4 43 21 24 28 48 33 67 14 9 -9 12 -9 12 0 0 7 7 12 16 12 14 0 14 -3 4 -15 -7 -8 -9 -16 -4 -16 5 -1 14 -2 19 -4 6 -1 22 -3 36 -3 28 -2 42 -22 33 -45 -3 -8 -14 -13 -25 -12 -21 1 -61 35 -42 35 6 0 13 -5 15 -12 5 -15 38 -3 37 14 0 10 -2 10 -6 1 -3 -10 -10 -10 -25 -2 -15 8 -24 7 -40 -8 -20 -18 -20 -18 4 -24 14 -3 22 -12 21 -23 -1 -13 3 -15 15 -10 10 4 29 8 45 9 15 1 30 5 35 10 4 5 1 5 -5 1 -7 -4 -13 -5 -13 -2 0 7 61 36 78 36 9 0 12 -6 8 -17 -5 -13 -1 -12 11 4 10 12 30 25 45 28 15 4 29 13 32 21 6 15 56 20 56 6 0 -4 -6 -14 -12 -21 -11 -11 -9 -11 9 -2 26 13 36 14 28 2 -10 -17 11 -20 39 -5 16 7 34 14 41 14 6 0 20 9 30 20 10 11 24 20 32 20 7 0 13 4 13 9 0 10 -26 9 -36 -2 -11 -10 -46 -9 -40 2 3 5 -12 7 -34 6 -50 -4 -51 8 -2 35 20 12 30 19 21 16 -13 -3 -15 0 -12 15 3 10 -2 30 -10 43 -15 22 -15 24 2 19 11 -3 18 1 18 11 0 8 -4 13 -8 10 -4 -2 -14 2 -22 10 -8 8 -17 12 -21 9 -3 -4 -6 -1 -6 5 0 17 21 15 50 -6 25 -17 32 -46 17 -69 -6 -10 1 -13 25 -13 27 1 30 2 16 11 -10 5 -18 19 -18 29 0 17 2 17 26 -5 22 -20 34 -24 78 -20 47 3 175 27 220 41 13 4 16 2 11 -6 -5 -9 -1 -10 16 -5 13 4 26 11 29 15 4 7 59 23 155 45 l30 7 -23 -25 c-27 -29 -83 -43 -111 -27 -13 7 -22 7 -26 0 -3 -5 2 -10 12 -11 10 0 3 -5 -15 -10 -30 -9 -32 -12 -20 -26 11 -14 11 -16 -3 -11 -9 4 -28 0 -43 -7 -23 -12 -26 -12 -26 2 0 11 -4 13 -12 5 -21 -16 -62 -26 -54 -13 4 6 1 11 -6 11 -9 0 -9 3 2 10 24 15 -5 12 -36 -5 -26 -13 -26 -20 0 -16 5 1 12 -2 15 -8 4 -5 34 -11 69 -13 34 -1 62 -4 62 -6 0 -1 -10 -7 -22 -13 -19 -8 -18 -8 7 -2 17 4 53 8 82 8 40 0 49 3 41 13 -8 9 -5 12 9 12 10 0 24 5 31 12 15 15 15 3 1 -25 -15 -28 -28 -36 -51 -32 -10 2 -18 0 -18 -6 0 -5 7 -9 15 -9 21 0 65 22 65 32 0 5 14 23 31 40 24 24 40 31 77 33 26 2 63 7 82 12 19 5 54 9 77 9 24 -1 43 3 43 7 0 5 4 6 9 3 5 -4 11 -2 13 3 4 13 146 22 150 10 2 -6 17 -4 38 6 l35 15 -34 -2 c-19 -2 -36 2 -38 8 -4 13 73 48 97 45 8 -1 33 8 54 19 31 15 42 17 49 7 7 -9 10 -9 14 1 2 6 14 12 26 12 l21 0 -21 -15 c-14 -10 -20 -21 -16 -32 5 -12 3 -14 -8 -7 -8 4 -18 9 -24 10 -5 1 -14 3 -20 4 -15 3 -55 -11 -55 -20 0 -12 29 -20 35 -10 8 13 62 13 69 1 7 -11 46 -2 46 10 0 5 -7 9 -15 9 -8 0 -15 5 -15 10 0 15 27 12 44 -5 8 -8 17 -11 20 -6 4 5 -1 16 -9 24 -13 14 -9 17 31 31 26 9 50 13 54 11 4 -3 10 2 14 10 3 8 10 15 16 15 7 0 8 -6 1 -19 -8 -15 -7 -20 7 -26 15 -6 15 -8 -7 -26 l-23 -19 26 0 c17 0 26 5 26 15 0 9 11 27 25 41 13 13 25 28 26 32 5 24 14 32 36 32 13 0 21 -4 18 -10 -3 -5 -2 -10 4 -10 5 0 14 6 18 14 4 7 35 22 68 33 33 10 59 24 58 30 -3 13 53 57 85 67 12 4 22 12 22 17 0 6 4 8 10 4 8 -5 50 28 50 39 0 8 -67 -11 -91 -26 -28 -18 -96 -30 -104 -18 -3 4 1 8 8 7 38 -1 51 3 40 14 -9 9 -8 15 1 24 24 24 176 95 213 100 21 3 39 9 41 13 1 5 14 7 27 4 16 -3 25 0 25 8 0 10 3 10 15 0 8 -7 22 -9 31 -6 13 5 14 9 4 21 -8 9 -8 15 -2 15 6 0 13 -8 16 -18 4 -12 15 -17 33 -16 16 1 33 3 40 3 7 1 10 8 7 16 -6 15 9 20 49 17 9 -1 17 3 17 8 0 11 110 7 168 -5z m-248 -5 c0 -8 -52 -21 -59 -15 -1 2 -1 7 2 12 7 10 57 13 57 3z m-1955 -28 c-2 -41 -17 -63 -35 -52 -13 8 -12 11 4 23 11 8 16 19 12 25 -8 13 0 32 13 32 4 0 7 -13 6 -28z m-2246 -18 c-15 -19 -28 -9 -22 16 4 16 8 18 19 9 11 -9 11 -15 3 -25z m-1289 -4 c0 -5 -5 -10 -11 -10 -5 0 -7 5 -4 10 3 6 8 10 11 10 2 0 4 -4 4 -10z m3465 0 c-3 -5 -12 -10 -18 -10 -7 0 -6 4 3 10 19 12 23 12 15 0z m-3491 -19 c3 -5 -1 -14 -9 -21 -11 -9 -14 -8 -12 9 1 22 12 28 21 12z m5816 -16 c0 -7 -54 -55 -63 -55 -13 0 37 59 51 59 6 1 12 -1 12 -4z m-5600 -45 c0 -5 -4 -10 -10 -10 -5 0 -10 5 -10 10 0 6 5 10 10 10 6 0 10 -4 10 -10z m120 1 c0 -10 -50 -25 -57 -17 -3 2 -2 9 2 15 8 13 55 15 55 2z m285 -22 c4 -11 4 -23 1 -26 -3 -4 -6 1 -6 10 0 10 -7 17 -15 17 -8 0 -15 5 -15 10 0 19 29 10 35 -11z m-430 -7 c-3 -3 -11 0 -18 7 -9 10 -8 11 6 5 10 -3 15 -9 12 -12z m-34 -25 c-10 -9 -11 -8 -5 6 3 10 9 15 12 12 3 -3 0 -11 -7 -18z m283 -2 c34 -6 38 -9 33 -31 -2 -13 2 -32 9 -41 15 -20 18 -34 7 -32 -25 4 -63 -2 -59 -9 3 -5 21 -7 40 -6 33 3 43 -12 23 -32 -13 -13 -55 -10 -50 3 8 21 -15 15 -27 -8 -9 -16 -17 -19 -42 -14 -25 6 -30 4 -25 -8 9 -23 -40 -37 -76 -22 -15 6 -25 14 -21 18 4 3 15 2 26 -4 11 -6 22 -9 24 -6 9 8 -8 57 -17 51 -5 -3 -9 2 -9 10 0 22 13 20 28 -5 11 -17 16 -18 28 -8 13 10 17 10 24 0 6 -10 10 -8 15 8 4 12 11 19 18 15 7 -4 8 -3 4 2 -5 5 -14 9 -20 9 -7 0 -11 8 -9 18 2 9 -3 18 -10 18 -50 5 -59 7 -65 13 -3 3 10 6 30 6 36 0 54 19 20 21 -14 0 -13 2 5 9 12 5 22 17 22 25 0 11 6 15 18 12 9 -3 34 -8 56 -12z m4556 -27 c0 -10 3 -9 9 1 6 9 11 10 15 2 4 -6 -5 -13 -21 -17 -15 -4 -34 -13 -41 -21 -17 -16 -31 -9 -27 15 1 9 9 16 18 14 8 -1 18 2 22 8 9 14 25 13 25 -2z m-4835 -8 c-3 -5 -14 -10 -23 -9 -14 0 -13 2 3 9 27 11 27 11 20 0z m164 -53 c15 5 15 4 0 -11 -18 -20 -51 -12 -42 10 4 10 9 12 16 5 5 -5 17 -7 26 -4z m4465 -3 c-18 -15 -18 -15 6 -10 14 3 29 6 33 6 5 0 5 5 2 10 -8 13 -2 13 30 -2 21 -9 28 -9 35 1 4 8 14 11 21 8 8 -3 -2 -12 -26 -22 -22 -9 -55 -23 -73 -31 -25 -12 -40 -13 -63 -5 -18 6 -29 6 -29 0 0 -5 -5 -9 -11 -9 -5 0 -7 5 -4 10 3 6 1 10 -5 10 -6 0 -13 -7 -16 -15 -4 -8 -11 -12 -17 -8 -6 3 -7 1 -3 -5 9 -15 43 -16 51 -2 3 6 16 10 28 9 18 0 16 -3 -11 -15 -44 -19 -90 -24 -96 -10 -2 6 -5 3 -5 -6 -1 -10 -7 -18 -14 -18 -7 0 -18 -5 -25 -12 -15 -15 -85 -21 -77 -7 4 5 -1 9 -9 9 -9 0 -16 -4 -16 -9 0 -13 -32 -23 -42 -13 -5 5 -2 14 7 22 8 7 15 9 15 4 0 -5 7 2 16 14 8 12 23 22 33 22 9 0 22 5 29 12 7 7 12 8 12 3 0 -6 4 -5 8 1 4 6 27 17 52 26 25 8 54 18 65 23 16 5 17 5 5 -4 -13 -9 -13 -11 1 -11 9 0 22 6 29 14 10 14 32 21 69 25 10 1 9 -4 -5 -15z m-4617 -9 c0 -8 -9 -15 -19 -15 -20 0 -24 16 -5 23 20 9 24 8 24 -8z m466 -47 c-3 -16 -10 -28 -15 -28 -5 0 -6 -5 -2 -11 5 -8 1 -8 -14 0 -14 7 -23 8 -27 1 -8 -13 -25 -13 -25 0 0 6 5 10 10 10 15 0 45 31 54 54 10 28 26 6 19 -26z m4797 -2 c0 -2 -7 -7 -16 -10 -8 -3 -12 -2 -9 4 6 10 25 14 25 6z m44 -29 c-6 -15 -84 -71 -84 -60 0 4 16 19 34 33 19 14 34 27 34 30 -1 15 3 21 12 15 5 -3 7 -11 4 -18z m-4749 -7 c-8 -14 8 -13 22 1 8 8 13 5 18 -11 4 -12 4 -24 1 -27 -3 -4 -6 1 -6 11 0 15 -2 15 -20 -2 -23 -21 -18 -52 9 -52 14 0 14 -2 1 -10 -13 -9 -13 -10 0 -10 12 0 13 -2 1 -9 -9 -6 -22 1 -42 22 -35 36 -35 44 -7 74 22 24 34 30 23 13z m-298 -22 c-3 -8 -6 -5 -6 6 -1 11 2 17 5 13 3 -3 4 -12 1 -19z m4904 -41 c-10 -9 -11 -8 -5 6 3 10 9 15 12 12 3 -3 0 -11 -7 -18z m-981 9 c0 -11 -19 -15 -25 -6 -3 5 1 10 9 10 9 0 16 -2 16 -4z m1050 -20 c0 -2 -7 -6 -15 -10 -8 -3 -15 -1 -15 4 0 6 7 10 15 10 8 0 15 -2 15 -4z m-4550 -10 c0 -3 -4 -8 -10 -11 -5 -3 -10 -1 -10 4 0 6 5 11 10 11 6 0 10 -2 10 -4z m3497 -2 c-3 -3 -12 -4 -19 -1 -8 3 -5 6 6 6 11 1 17 -2 13 -5z m-297 -14 c0 -5 -9 -10 -19 -10 -14 0 -19 -6 -16 -18 2 -15 -3 -17 -36 -14 -37 4 -46 22 -11 22 14 0 15 2 3 9 -11 7 -4 11 25 14 21 2 42 4 47 5 4 1 7 -2 7 -8z m-979 -23 c-10 -9 -11 -8 -5 6 3 10 9 15 12 12 3 -3 0 -11 -7 -18z m1032 16 c-7 -2 -19 -2 -25 0 -7 3 -2 5 12 5 14 0 19 -2 13 -5z m-893 -23 c0 -5 -5 -10 -11 -10 -5 0 -7 5 -4 10 3 6 8 10 11 10 2 0 4 -4 4 -10z m870 0 c13 -8 13 -10 -2 -10 -9 0 -20 5 -23 10 -8 13 5 13 25 0z m1167 -6 c-3 -3 -12 -4 -19 -1 -8 3 -5 6 6 6 11 1 17 -2 13 -5z m58 -4 c3 -5 -1 -10 -9 -10 -9 0 -16 5 -16 10 0 6 4 10 9 10 6 0 13 -4 16 -10z m-4565 -10 c0 -5 -7 -7 -15 -4 -8 4 -15 8 -15 10 0 2 7 4 15 4 8 0 15 -4 15 -10z m4477 -21 c2 -16 -1 -19 -9 -11 -5 5 -7 15 -4 21 10 15 12 14 13 -10z m-257 -7 c0 -7 -13 -16 -63 -40 -5 -2 -3 5 4 17 16 24 59 41 59 23z m-1733 -8 c-3 -3 -12 -4 -19 -1 -8 3 -5 6 6 6 11 1 17 -2 13 -5z m643 -4 c0 -5 -5 -10 -11 -10 -5 0 -7 5 -4 10 3 6 8 10 11 10 2 0 4 -4 4 -10z m-3383 -22 c-3 -8 -6 -5 -6 6 -1 11 2 17 5 13 3 -3 4 -12 1 -19z m2613 2 c0 -5 -4 -12 -10 -15 -5 -3 -10 -4 -10 -1 0 2 -3 12 -6 20 -5 12 -2 15 10 10 9 -3 16 -10 16 -14z m69 -14 c69 19 111 21 111 6 0 -9 -7 -13 -20 -9 -11 3 -23 1 -26 -4 -3 -5 -10 -9 -15 -9 -6 0 -7 5 -3 11 4 7 1 10 -6 7 -22 -7 -22 -25 0 -31 25 -7 26 -21 0 -47 -11 -11 -20 -23 -19 -27 0 -4 -5 -9 -12 -12 -7 -2 -9 1 -4 8 4 8 -1 14 -13 18 -17 4 -18 8 -9 18 7 7 15 11 20 8 11 -7 47 7 47 19 0 7 -5 6 -14 -1 -8 -7 -20 -11 -28 -10 -7 1 -26 -3 -41 -9 -16 -7 -33 -12 -38 -12 -5 0 -9 -4 -9 -10 0 -5 -5 -10 -11 -10 -16 0 -6 73 11 78 13 5 13 3 1 -11 -12 -15 -11 -17 13 -17 14 0 26 5 26 11 0 5 5 7 10 4 6 -3 10 -2 10 3 0 6 -11 13 -25 16 -16 4 -22 11 -19 21 5 13 8 12 21 -1 11 -11 24 -13 42 -8z m-209 5 c0 -5 -7 -11 -15 -15 -9 -3 -15 0 -15 9 0 8 7 15 15 15 8 0 15 -4 15 -9z m89 -26 c5 2 8 -9 9 -25 0 -21 -3 -27 -14 -23 -9 3 -12 13 -9 24 4 11 2 19 -5 19 -6 0 -8 5 -4 12 6 9 9 9 12 0 2 -7 7 -10 11 -7z m1918 -8 c-6 -20 -26 -19 -24 1 1 12 6 18 14 15 8 -3 12 -10 10 -16z m173 13 c0 -5 -4 -10 -10 -10 -5 0 -10 5 -10 10 0 6 5 10 10 10 6 0 10 -4 10 -10z m-4470 -4 c0 -11 -19 -15 -25 -6 -3 5 1 10 9 10 9 0 16 -2 16 -4z m2324 -11 c3 -8 1 -15 -3 -15 -5 0 -11 7 -15 15 -3 8 -1 15 3 15 5 0 11 -7 15 -15z m302 -11 c-19 -14 -56 -20 -43 -8 12 12 52 31 57 27 3 -3 -4 -11 -14 -19z m1804 6 c-19 -13 -30 -13 -30 0 0 6 10 10 23 10 18 0 19 -2 7 -10z m-190 -4 c0 -3 -13 -14 -29 -25 -26 -19 -29 -19 -26 -4 1 10 9 17 19 15 9 -2 16 2 16 8 0 5 5 10 10 10 6 0 10 -2 10 -4z m126 -16 c0 -11 -4 -20 -8 -20 -5 0 -14 0 -20 0 -9 0 -8 4 2 10 8 5 11 10 5 10 -7 0 12 19 21 20 1 0 1 -9 0 -20z m64 -10 c0 -5 -5 -10 -11 -10 -5 0 -7 5 -4 10 3 6 8 10 11 10 2 0 4 -4 4 -10z m-1830 -14 c0 -3 -4 -8 -10 -11 -5 -3 -10 -1 -10 4 0 6 5 11 10 11 6 0 10 -2 10 -4z m1758 -30 c3 -14 -2 -16 -25 -11 -18 4 -23 3 -15 -2 9 -7 -8 -21 -58 -48 -38 -21 -70 -42 -70 -46 0 -5 -7 -6 -15 -3 -8 4 -15 1 -15 -5 0 -6 -5 -11 -10 -11 -6 0 -28 -8 -48 -18 -22 -10 -47 -15 -62 -12 l-24 6 31 22 c17 12 36 22 43 22 7 0 24 6 38 14 15 7 41 18 57 23 20 6 29 15 27 26 -2 10 4 17 13 17 14 0 20 12 16 33 -1 5 3 6 9 2 6 -4 17 -1 25 5 8 6 19 9 25 5 5 -3 10 -2 10 4 0 17 45 -4 48 -23z m32 19 c-7 -9 -15 -13 -19 -10 -3 3 1 10 9 15 21 14 24 12 10 -5z m-2020 1 c0 -3 -4 -8 -10 -11 -5 -3 -10 -1 -10 4 0 6 5 11 10 11 6 0 10 -2 10 -4z m267 -12 c-3 -3 -12 -4 -19 -1 -8 3 -5 6 6 6 11 1 17 -2 13 -5z m-502 -24 c-3 -5 -11 -10 -16 -10 -6 0 -7 5 -4 10 3 6 11 10 16 10 6 0 7 -4 4 -10z m1945 0 c0 -5 -2 -10 -4 -10 -3 0 -8 5 -11 10 -3 6 -1 10 4 10 6 0 11 -4 11 -10z m-1710 -30 c0 -5 -5 -10 -11 -10 -5 0 -7 5 -4 10 3 6 8 10 11 10 2 0 4 -4 4 -10z m-1506 -42 c-3 -4 7 -8 21 -8 15 0 24 -4 20 -10 -3 -5 -2 -10 3 -10 6 0 12 7 16 15 3 8 11 15 18 15 10 0 10 -2 -1 -9 -11 -7 -10 -11 5 -20 16 -9 17 -12 4 -21 -8 -5 -25 -10 -37 -10 -12 0 -25 -4 -28 -10 -3 -5 -16 -10 -28 -10 -17 0 -19 2 -7 9 8 6 18 7 22 5 4 -3 8 0 8 5 0 6 -3 11 -7 12 -5 0 -16 2 -26 4 -9 2 -15 -1 -11 -6 3 -5 -4 -9 -15 -9 -11 0 -22 -4 -25 -9 -6 -9 -91 -5 -108 5 -4 3 -8 -4 -8 -15 0 -10 6 -21 12 -23 7 -3 2 -7 -11 -11 -18 -4 -24 -1 -28 14 -4 12 -11 18 -20 15 -10 -4 -8 1 4 18 11 14 21 20 24 14 4 -6 10 -1 14 11 3 12 11 18 17 15 6 -4 18 2 26 12 11 15 15 16 19 5 4 -10 7 -10 13 -1 11 17 60 20 60 4 0 -17 -27 -18 -33 -1 -4 7 -6 8 -6 1 -1 -6 6 -17 14 -24 13 -11 18 -10 30 6 8 10 13 24 10 31 -5 15 27 23 37 9 4 -6 4 -14 2 -18z m63 16 c-3 -3 -12 -4 -19 -1 -8 3 -5 6 6 6 11 1 17 -2 13 -5z m349 -15 c4 -8 9 -7 15 2 4 7 11 11 14 7 11 -11 -39 -37 -91 -48 -93 -20 -124 -23 -124 -10 0 7 7 10 17 6 18 -7 83 11 83 23 0 10 40 29 62 30 9 1 20 -4 24 -10z m214 -8 c0 -9 -45 -31 -62 -31 -6 0 -4 8 5 18 16 18 57 27 57 13z m-86 -14 c-5 -13 -126 -57 -157 -57 -9 0 -17 5 -17 10 0 15 47 32 99 36 25 2 49 8 55 14 14 14 26 12 20 -3z m-349 -17 c8 -13 -45 -13 -65 0 -11 7 -6 10 22 10 20 0 40 -4 43 -10z m165 -30 c0 -5 -4 -10 -10 -10 -5 0 -10 5 -10 10 0 6 5 10 10 10 6 0 10 -4 10 -10z m2784 -14 c-6 -16 -52 -42 -60 -33 -4 3 5 12 20 18 14 7 26 16 26 21 0 4 4 8 10 8 5 0 7 -6 4 -14z m-2834 -36 c0 -5 -2 -10 -4 -10 -3 0 -8 5 -11 10 -3 6 -1 10 4 10 6 0 11 -4 11 -10z m37 4 c-3 -3 -12 -4 -19 -1 -8 3 -5 6 6 6 11 1 17 -2 13 -5z m2608 -4 c3 -5 1 -10 -4 -10 -6 0 -11 5 -11 10 0 6 2 10 4 10 3 0 8 -4 11 -10z m53 -24 c-7 -8 -16 -12 -21 -9 -11 7 2 23 19 23 12 0 12 -2 2 -14z m-58 -14 c0 -9 -7 -12 -20 -9 -13 3 -21 -1 -26 -15 -6 -20 -25 -20 -31 -1 -2 6 5 14 16 18 12 3 21 10 21 14 0 3 9 7 20 7 11 0 20 -7 20 -14z m-270 -38 c0 -13 -40 -45 -49 -40 -5 4 -12 2 -16 -3 -9 -16 -41 -8 -41 11 0 12 14 22 41 31 36 12 65 12 65 1z m175 6 c3 -5 4 -10 1 -10 -2 0 -12 -3 -20 -6 -12 -5 -15 -2 -10 10 7 18 20 21 29 6z m-45 -15 c0 -8 -7 -15 -15 -15 -26 0 -18 20 13 29 1 1 2 -6 2 -14z m-3245 -15 c3 -6 -1 -7 -9 -4 -18 7 -21 14 -7 14 6 0 13 -4 16 -10z m36 -4 c-10 -11 -8 -16 9 -21 12 -4 32 -4 45 -1 19 5 23 3 19 -9 -4 -8 -14 -15 -23 -16 -10 0 -12 -2 -3 -6 7 -3 19 0 27 7 17 14 42 3 26 -13 -25 -25 -148 -8 -123 18 4 4 -3 5 -14 1 -12 -4 -34 -1 -50 5 l-29 12 25 7 c14 3 27 4 30 1 12 -14 30 -9 40 9 6 11 16 20 22 20 7 0 7 -5 -1 -14z m134 -6 c4 -6 -5 -10 -20 -10 -15 0 -24 4 -20 10 3 6 12 10 20 10 8 0 17 -4 20 -10z m2790 -10 c3 -5 -1 -10 -9 -10 -9 0 -16 5 -16 10 0 6 4 10 9 10 6 0 13 -4 16 -10z m-275 -14 c0 -3 -4 -8 -10 -11 -5 -3 -10 -1 -10 4 0 6 5 11 10 11 6 0 10 -2 10 -4z m-3300 -15 c0 -5 -9 -12 -20 -15 -11 -3 -30 -9 -41 -12 -14 -4 -19 -2 -15 5 4 6 18 11 32 11 13 0 24 5 24 10 0 6 5 10 10 10 6 0 10 -4 10 -9z m280 -6 c-7 -8 -18 -15 -24 -15 -6 0 -2 7 8 15 25 19 32 19 16 0z m3115 -6 c-10 -15 -25 -10 -19 6 4 8 10 12 15 9 5 -3 7 -10 4 -15z m-3250 -8 c-8 -13 -35 -15 -35 -2 0 5 8 11 18 13 21 5 26 2 17 -11z m402 13 c-3 -3 -12 -4 -19 -1 -8 3 -5 6 6 6 11 1 17 -2 13 -5z m3093 -8 c0 -2 -7 -7 -16 -10 -8 -3 -12 -2 -9 4 6 10 25 14 25 6z m-3758 -28 c-7 -7 -12 -8 -12 -2 0 6 3 14 7 17 3 4 9 5 12 2 2 -3 -1 -11 -7 -17z m500 10 c6 -18 -15 -58 -31 -58 -11 0 -11 3 0 18 8 9 19 20 24 24 6 4 -3 8 -20 9 -26 0 -27 2 -10 9 28 12 33 12 37 -2z m68 8 c0 -2 -7 -7 -16 -10 -8 -3 -12 -2 -9 4 6 10 25 14 25 6z m2910 -6 c0 -5 -5 -10 -11 -10 -5 0 -7 5 -4 10 3 6 8 10 11 10 2 0 4 -4 4 -10z m415 0 c-3 -5 -11 -10 -16 -10 -6 0 -7 5 -4 10 3 6 11 10 16 10 6 0 7 -4 4 -10z m-710 -28 c-8 -2 -15 -7 -15 -11 0 -4 -13 -6 -30 -5 -16 1 -30 -2 -30 -8 0 -5 9 -6 20 -3 11 4 20 2 20 -4 0 -6 -6 -11 -14 -11 -8 0 -21 -3 -29 -6 -10 -3 -16 3 -19 20 -4 19 -1 26 11 27 9 0 32 6 51 12 24 9 37 9 42 2 4 -5 1 -11 -7 -13z m-3150 -2 c-16 -11 -24 -20 -17 -20 7 0 10 -5 6 -11 -4 -8 -9 -8 -17 0 -17 17 -30 13 -24 -8 3 -14 -2 -20 -20 -24 -13 -2 -21 -2 -19 1 3 3 -2 11 -11 17 -15 11 -13 13 15 20 18 3 32 11 32 16 0 5 11 9 25 9 14 0 25 5 25 10 0 6 8 10 18 10 12 0 8 -6 -13 -20z m371 -8 c-4 -3 -14 2 -24 12 -16 18 -16 18 6 6 13 -6 21 -14 18 -18z m369 18 c3 -5 1 -10 -4 -10 -6 0 -11 5 -11 10 0 6 2 10 4 10 3 0 8 -4 11 -10z m35 1 c0 -6 -4 -13 -10 -16 -5 -3 -10 1 -10 9 0 9 5 16 10 16 6 0 10 -4 10 -9z m66 -3 c-9 -5 -23 -5 -32 0 -12 6 -7 9 16 9 23 0 28 -3 16 -9z m-936 -10 c0 -4 -4 -8 -9 -8 -6 0 -12 4 -15 8 -3 5 1 9 9 9 8 0 15 -4 15 -9z m530 2 c0 -5 -5 -10 -11 -10 -5 0 -7 5 -4 10 3 6 8 10 11 10 2 0 4 -4 4 -10z m77 -6 c-3 -3 -12 -4 -19 -1 -8 3 -5 6 6 6 11 1 17 -2 13 -5z m2943 -24 c0 -5 -4 -10 -10 -10 -5 0 -10 5 -10 10 0 6 5 10 10 10 6 0 10 -4 10 -10z m-560 -26 c0 -22 -36 -36 -50 -19 -10 12 -9 15 3 15 10 0 14 6 11 14 -4 11 0 13 15 9 12 -3 21 -11 21 -19z m-3005 -14 c3 -5 1 -10 -4 -10 -6 0 -11 5 -11 10 0 6 2 10 4 10 3 0 8 -4 11 -10z m3125 -59 c0 -10 -25 -21 -48 -21 -12 1 -10 5 8 15 29 17 40 18 40 6z m-107 -21 c3 -11 1 -20 -4 -20 -5 0 -9 9 -9 20 0 11 2 20 4 20 2 0 6 -9 9 -20z m421 5 c-4 -8 -11 -12 -16 -9 -6 4 -5 10 3 15 19 12 19 11 13 -6z m-56 -32 c-6 -7 -13 -11 -17 -9 -4 3 -24 1 -44 -4 -31 -7 -36 -6 -27 5 12 14 39 21 77 21 16 -1 19 -4 11 -13z m-578 -49 c0 -8 -5 -12 -10 -9 -6 4 -8 11 -5 16 9 14 15 11 15 -7z m-1420 -168 c0 -2 -7 -6 -15 -10 -8 -3 -15 -1 -15 4 0 6 7 10 15 10 8 0 15 -2 15 -4z m156 -7 c3 -6 15 -9 25 -6 11 3 19 0 19 -6 0 -9 3 -9 8 -1 8 12 61 13 80 1 8 -5 12 -2 12 10 1 17 2 17 15 -1 17 -23 18 -21 -18 -30 -19 -4 -26 -3 -22 4 4 6 -6 10 -24 10 -17 0 -31 -4 -31 -9 0 -5 -20 -6 -45 -3 -30 3 -45 1 -45 -7 0 -6 7 -11 15 -11 8 0 15 -5 15 -11 0 -6 -9 -9 -20 -6 -10 3 -21 0 -23 -6 -4 -13 -97 -20 -97 -7 0 6 8 10 18 10 11 0 18 8 19 20 2 19 1 19 -24 3 -26 -17 -26 -17 -14 5 10 18 9 22 -4 22 -8 0 -15 -6 -15 -12 0 -7 -13 -13 -28 -14 -23 -1 -28 3 -28 22 0 18 3 21 13 13 9 -8 22 -8 43 -1 18 7 30 7 30 1 0 -5 7 -9 16 -9 9 0 12 5 8 12 -5 8 -2 9 9 5 9 -3 19 -2 22 3 8 14 62 13 71 -1z m1239 -8 c-3 -6 -21 -11 -38 -10 l-32 1 35 12 c38 14 46 13 35 -3z m-1785 -5 c0 -2 -7 -7 -16 -10 -8 -3 -12 -2 -9 4 6 10 25 14 25 6z m1710 -16 c0 -5 -17 -12 -37 -15 -21 -3 -50 -9 -65 -14 -17 -6 -28 -6 -28 0 0 5 12 11 28 14 15 4 34 10 42 15 20 12 60 12 60 0z m-1535 -20 c-4 -6 -11 -7 -17 -4 -6 4 -14 0 -19 -7 -4 -7 -11 -10 -16 -6 -4 5 -1 12 7 17 20 13 53 13 45 0z m69 1 c6 -10 -24 -25 -32 -16 -3 3 0 5 7 5 7 0 9 5 6 10 -3 6 -2 10 4 10 5 0 12 -4 15 -9z m-199 -21 c3 -6 -1 -7 -9 -4 -18 7 -21 14 -7 14 6 0 13 -4 16 -10z m55 0 c0 -5 -10 -10 -22 -9 -22 0 -22 1 -3 9 11 5 21 9 23 9 1 1 2 -3 2 -9z m237 -5 c0 -8 -4 -12 -9 -9 -5 3 -6 10 -3 15 9 13 12 11 12 -6z m-187 -30 c0 -8 -4 -17 -10 -20 -5 -3 -10 1 -10 10 0 13 -4 12 -22 -5 -30 -27 -35 -18 -6 12 24 25 48 26 48 3z m395 15 c3 -5 2 -10 -4 -10 -5 0 -13 5 -16 10 -3 6 -2 10 4 10 5 0 13 -4 16 -10z m875 -2 c0 -6 -2 -9 -6 -6 -3 3 -25 0 -50 -8 -25 -7 -44 -9 -44 -4 0 6 10 10 23 10 12 0 29 5 37 10 21 13 40 12 40 -2z m-1053 -18 c-1 -11 -7 -22 -14 -24 -14 -6 -13 12 2 31 13 16 14 16 12 -7z m124 -1 l24 -20 -40 5 c-22 3 -53 6 -68 6 -18 0 -26 4 -21 11 3 6 17 9 30 6 14 -2 27 0 30 4 8 14 20 11 45 -12z m-203 -18 c8 -4 13 -12 13 -17 -1 -5 4 -9 11 -9 6 0 13 -6 16 -14 3 -10 -1 -12 -19 -8 -13 4 -30 7 -38 7 -7 0 -11 6 -8 14 4 10 1 13 -9 9 -14 -5 -19 8 -7 20 9 9 25 8 41 -2z m452 -11 c0 -5 -5 -10 -11 -10 -5 0 -7 5 -4 10 3 6 8 10 11 10 2 0 4 -4 4 -10z m-294 -15 c-10 -8 -24 -11 -30 -8 -6 4 0 10 14 14 36 10 37 10 16 -6z m86 3 c-9 -9 -15 -9 -24 0 -9 9 -7 12 12 12 19 0 21 -3 12 -12z m-522 -14 c0 -9 -5 -12 -12 -8 -8 5 -9 1 -4 -12 6 -15 5 -16 -5 -7 -10 10 -9 15 1 28 16 19 20 19 20 -1z m1139 -7 c-12 -11 -59 -16 -59 -7 0 5 9 10 20 10 11 0 20 5 20 12 0 9 3 9 12 0 6 -6 10 -13 7 -15z m-1051 2 c-2 -6 -8 -10 -13 -10 -5 0 -11 4 -13 10 -2 6 4 11 13 11 9 0 15 -5 13 -11z m297 -22 c7 -7 4 -8 -7 -4 -10 4 -18 2 -18 -3 0 -5 -16 -8 -35 -7 -36 2 -50 17 -15 17 11 0 20 5 20 11 0 12 40 2 55 -14z m678 6 c3 -5 -8 -8 -24 -9 -16 -1 -29 3 -29 7 0 11 47 12 53 2z m-979 -28 c3 -8 1 -15 -4 -15 -6 0 -10 7 -10 15 0 8 2 15 4 15 2 0 6 -7 10 -15z m323 -7 c-3 -8 -6 -5 -6 6 -1 11 2 17 5 13 3 -3 4 -12 1 -19z m-227 -30 c0 -4 -7 -5 -15 -2 -8 4 -15 16 -15 27 0 20 0 20 15 1 8 -10 15 -22 15 -26z m140 2 c-20 -13 -33 -13 -25 0 3 6 14 10 23 10 15 0 15 -2 2 -10z m-50 -10 c0 -5 -5 -10 -11 -10 -5 0 -7 5 -4 10 3 6 8 10 11 10 2 0 4 -4 4 -10z m-1670 -4 c0 -3 -4 -8 -10 -11 -5 -3 -10 -1 -10 4 0 6 5 11 10 11 6 0 10 -2 10 -4z m90 -5 c0 -5 -7 -12 -16 -15 -14 -5 -15 -4 -4 9 14 17 20 19 20 6z m852 -30 c11 -11 9 -13 -14 -7 -16 4 -28 2 -30 -6 -2 -6 -12 -12 -21 -14 -20 -3 -21 0 -6 24 13 21 53 23 71 3z m1287 -2 c-22 -14 -33 -10 -19 6 7 8 17 12 22 9 6 -4 5 -10 -3 -15z m-39 1 c0 -5 -4 -10 -10 -10 -5 0 -10 5 -10 10 0 6 5 10 10 10 6 0 10 -4 10 -10z m-2460 -10 c0 -5 -5 -10 -11 -10 -5 0 -7 5 -4 10 3 6 8 10 11 10 2 0 4 -4 4 -10z m2420 -14 c0 -2 -11 -6 -25 -8 -14 -3 -25 -1 -25 3 0 5 11 9 25 9 14 0 25 -2 25 -4z m-1325 -36 c18 -8 17 -9 -7 -9 -16 -1 -28 4 -28 9 0 12 8 12 35 0z m1142 -25 c0 -8 -4 -15 -8 -15 -4 0 -9 7 -13 15 -3 9 0 15 8 15 7 0 13 -7 13 -15z m-1183 -25 c-22 -9 -29 -6 -20 9 4 6 14 7 23 4 15 -6 14 -7 -3 -13z m1151 10 c-3 -5 -11 -10 -16 -10 -6 0 -7 5 -4 10 3 6 11 10 16 10 6 0 7 -4 4 -10z m-55 -10 c0 -5 -10 -10 -22 -9 -22 0 -22 1 -3 9 11 5 21 9 23 9 1 1 2 -3 2 -9z m-170 -34 c-34 -18 -90 -28 -90 -16 0 6 11 10 24 10 14 0 27 3 30 8 2 4 17 8 33 9 l28 2 -25 -13z m-1994 -23 c-10 -10 -19 5 -10 18 6 11 8 11 12 0 2 -7 1 -15 -2 -18z m84 -3 c0 -9 -31 -23 -37 -16 -3 3 1 11 8 19 14 15 29 13 29 -3z m970 -4 c0 -2 -7 -6 -15 -10 -8 -3 -15 -1 -15 4 0 6 7 10 15 10 8 0 15 -2 15 -4z m-962 -43 c-2 -12 3 -17 15 -15 21 4 23 -14 1 -22 -10 -4 -13 -13 -9 -25 4 -13 -2 -23 -19 -35 -31 -20 -32 -20 -40 0 -3 9 -2 12 5 9 12 -8 39 12 39 29 0 8 -13 11 -35 8 -23 -3 -35 0 -35 8 0 7 7 10 16 6 12 -5 15 -2 10 10 -4 11 -2 15 8 11 11 -4 13 -1 9 10 -4 10 -2 14 5 9 6 -3 13 -2 17 4 10 16 16 12 13 -7z m1002 7 c0 -5 -4 -10 -10 -10 -5 0 -10 5 -10 10 0 6 5 10 10 10 6 0 10 -4 10 -10z m456 -31 c3 -6 -1 -10 -12 -9 -33 4 -45 0 -39 -10 4 -6 -1 -7 -11 -3 -16 6 -15 7 2 20 22 16 50 17 60 2z m-109 -36 c2 -6 -2 -13 -10 -16 -8 -3 -13 3 -14 15 -2 20 18 21 24 1z m-757 3 c0 -2 -7 -7 -16 -10 -8 -3 -12 -2 -9 4 6 10 25 14 25 6z m695 -6 c-3 -5 -12 -10 -18 -10 -7 0 -6 4 3 10 19 12 23 12 15 0z m-1365 -110 c-8 -5 -19 -10 -25 -10 -5 0 -3 5 5 10 8 5 20 10 25 10 6 0 3 -5 -5 -10z m7 -35 c0 -8 -4 -15 -9 -15 -10 0 -11 14 -1 23 9 10 10 9 10 -8z m543 -10 c0 -8 -2 -15 -4 -15 -2 0 -6 7 -10 15 -3 8 -1 15 4 15 6 0 10 -7 10 -15z m-595 -5 c-3 -5 -12 -10 -18 -10 -7 0 -6 4 3 10 19 12 23 12 15 0z m641 -35 c-16 -12 -17 -17 -6 -30 16 -20 34 -19 26 1 -3 8 -2 12 3 9 6 -3 9 -15 8 -26 -1 -16 -7 -19 -24 -16 -12 2 -20 0 -17 -4 3 -5 -1 -9 -8 -9 -17 0 -38 34 -30 46 8 12 54 44 62 44 3 0 -4 -7 -14 -15z m-162 -41 c-12 -10 -11 -13 8 -18 15 -5 18 -9 10 -13 -14 -5 -42 14 -42 28 0 5 8 9 18 9 16 1 16 1 -1 14 -13 10 -15 15 -5 18 19 7 29 -25 12 -38z m-624 5 c-7 -11 -14 -18 -17 -15 -8 8 5 36 17 36 7 0 7 -6 0 -21z m130 -9 c4 0 6 -9 3 -20 -4 -15 -9 -18 -18 -10 -9 7 -21 7 -41 0 -28 -11 -28 -11 -9 10 11 12 25 18 34 15 13 -5 14 -4 4 6 -7 7 -13 17 -13 22 0 5 7 1 16 -7 8 -9 19 -16 24 -16z m465 -20 c3 -5 -1 -10 -10 -10 -9 0 -13 5 -10 10 3 6 8 10 10 10 2 0 7 -4 10 -10z m130 0 c-3 -5 -13 -10 -21 -10 -8 0 -12 5 -9 10 3 6 13 10 21 10 8 0 12 -4 9 -10z m-565 -10 c0 -5 -5 -10 -11 -10 -5 0 -7 5 -4 10 3 6 8 10 11 10 2 0 4 -4 4 -10z m298 -17 c-16 -15 -48 -8 -48 11 0 8 11 11 31 8 26 -4 29 -6 17 -19z m306 -4 c3 -3 -10 -5 -29 -4 -19 0 -35 -4 -35 -9 0 -5 -3 -7 -6 -3 -12 11 5 22 34 22 17 0 33 -3 36 -6z m-729 -9 c3 -6 -4 -10 -17 -10 -18 0 -20 2 -8 10 19 12 18 12 25 0z m105 -11 c0 -4 -7 -6 -15 -3 -8 4 -15 10 -15 15 0 4 7 6 15 3 8 -4 15 -10 15 -15z m447 15 c-3 -3 -12 -4 -19 -1 -8 3 -5 6 6 6 11 1 17 -2 13 -5z m139 -39 c0 -14 -4 -25 -8 -25 -3 0 -14 -3 -24 -7 -12 -4 -15 -3 -10 6 4 6 2 18 -4 26 -10 12 -8 13 9 10 11 -2 23 0 26 6 10 15 13 11 11 -16z m-645 -12 c7 -7 4 -12 -10 -16 -14 -3 -24 1 -31 12 -7 14 -5 17 11 16 10 -1 24 -6 30 -12z m570 8 c15 -2 18 -31 4 -31 -8 0 -15 6 -15 14 0 15 -46 11 -56 -5 -8 -14 -31 -10 -38 6 -4 12 -2 14 11 7 11 -7 21 -6 29 2 10 11 24 12 65 7z m-627 -55 c-3 -9 -10 -13 -15 -10 -5 3 -3 11 4 19 15 16 19 13 11 -9z m556 -57 c0 -6 -4 -7 -10 -4 -5 3 -10 11 -10 16 0 6 5 7 10 4 6 -3 10 -11 10 -16z m-87 -54 c-7 -21 -13 -19 -13 6 0 11 4 18 10 14 5 -3 7 -12 3 -20z m-137 -12 c-10 -10 -19 5 -10 18 6 11 8 11 12 0 2 -7 1 -15 -2 -18z m87 -13 c-7 -25 -23 -27 -18 -2 2 9 4 18 4 20 1 1 5 2 10 2 5 0 7 -9 4 -20z m-103 -10 c0 -5 -4 -10 -10 -10 -5 0 -10 5 -10 10 0 6 5 10 10 10 6 0 10 -4 10 -10z m67 -32 c-3 -8 -6 -5 -6 6 -1 11 2 17 5 13 3 -3 4 -12 1 -19z m-340 -54 c-3 -3 -12 -4 -19 -1 -8 3 -5 6 6 6 11 1 17 -2 13 -5z m233 -68 c0 -3 -4 -8 -10 -11 -5 -3 -10 -1 -10 4 0 6 5 11 10 11 6 0 10 -2 10 -4z m-215 -36 c-3 -5 3 -10 15 -10 17 0 19 -3 11 -19 -6 -10 -8 -21 -5 -24 8 -8 -34 -19 -46 -12 -5 3 -10 1 -10 -4 0 -11 13 -15 40 -11 10 1 9 -3 -5 -13 -11 -9 -24 -13 -29 -9 -5 3 -6 -2 -2 -13 6 -16 4 -16 -11 -4 -23 18 -42 43 -37 48 2 2 12 -2 21 -10 10 -7 15 -10 11 -5 -4 5 -2 18 3 29 8 15 13 16 19 7 6 -10 11 -10 23 1 14 12 13 17 -6 37 -18 19 -19 22 -3 22 9 0 14 -4 11 -10z m-20 -22 c4 -3 -3 -9 -14 -13 -12 -3 -21 -11 -21 -16 0 -5 -6 -9 -14 -9 -15 0 -16 16 -3 37 8 12 41 13 52 1z m-100 -78 c-5 -9 14 -15 37 -12 3 1 12 -6 20 -15 10 -13 10 -17 1 -20 -19 -7 -16 -41 5 -46 9 -2 7 -3 -5 -2 -13 1 -23 -2 -23 -7 0 -5 -5 -6 -12 -2 -9 6 -9 9 0 12 15 5 16 42 0 42 -6 0 -8 -3 -5 -6 4 -4 -7 -19 -24 -34 l-31 -27 -23 21 c-13 11 -22 23 -19 25 2 3 10 -1 16 -7 16 -16 52 -16 42 0 -5 7 -2 9 7 4 8 -4 7 -1 -2 6 -15 12 -15 18 -3 46 7 18 16 32 19 32 3 0 3 -4 0 -10z m188 -18 c-2 -6 4 -9 12 -6 11 5 15 -1 15 -21 0 -14 4 -24 8 -21 4 2 8 -14 7 -37 0 -38 -2 -42 -25 -43 -14 0 -31 -3 -37 -7 -15 -9 -24 18 -11 31 8 8 1 15 -23 26 -19 9 -24 13 -12 10 17 -4 21 -2 18 8 -3 8 3 23 13 34 10 10 16 26 14 33 -3 8 1 12 9 9 8 -3 13 -10 12 -16z m-63 -21 c0 -10 -24 -21 -43 -21 -7 0 -3 7 7 15 22 17 36 19 36 6z m207 -26 c0 -8 -4 -15 -9 -15 -4 0 -8 7 -8 15 0 8 4 15 8 15 5 0 9 -7 9 -15z m-313 -60 c4 -13 2 -14 -14 -5 -23 13 -26 20 -6 20 8 0 16 -7 20 -15z m71 5 c3 -5 1 -10 -4 -10 -6 0 -11 5 -11 10 0 6 2 10 4 10 3 0 8 -4 11 -10z m45 0 c0 -5 -2 -10 -4 -10 -3 0 -8 5 -11 10 -3 6 -1 10 4 10 6 0 11 -4 11 -10z m-154 -47 c-4 -4 -12 -1 -19 7 -9 10 -9 11 1 6 7 -4 12 -2 13 6 0 11 2 11 6 0 3 -7 2 -16 -1 -19z m121 6 c-4 -14 0 -19 15 -19 10 0 16 5 13 10 -9 14 5 12 35 -5 14 -8 20 -14 13 -15 -6 0 -16 -12 -21 -27 -14 -38 -39 -70 -48 -61 -4 4 -1 14 6 23 7 8 8 15 2 15 -5 0 -12 -6 -15 -14 -3 -8 -14 -14 -25 -13 -14 1 -17 7 -14 24 3 15 -1 23 -9 24 -31 1 -52 8 -63 19 -8 9 -3 10 22 5 30 -6 32 -5 32 23 0 26 4 29 31 30 26 1 30 -2 26 -19z m-76 -5 c12 -14 11 -16 -5 -13 -11 2 -21 10 -24 17 -5 17 13 15 29 -4z m-114 -6 c-2 -7 -1 -20 4 -29 6 -13 4 -16 -9 -15 -12 1 -16 -6 -14 -24 4 -34 -16 -78 -39 -85 -10 -4 -19 -11 -19 -16 0 -13 18 -11 23 4 2 6 8 8 13 4 12 -11 -17 -28 -38 -21 -13 4 -16 1 -12 -10 12 -32 40 -15 79 48 6 10 24 16 45 17 91 1 130 -3 130 -13 0 -7 4 -7 13 1 8 6 17 8 20 4 24 -23 -20 -36 -47 -14 -18 15 -19 15 -13 -3 5 -13 3 -17 -8 -13 -8 4 -17 2 -20 -3 -4 -6 -14 -5 -25 2 -10 7 -17 16 -14 20 3 4 -5 4 -18 -1 -13 -5 -23 -16 -23 -24 0 -23 -21 -42 -29 -28 -4 6 -3 11 3 11 6 0 8 7 5 15 -7 17 -24 20 -24 4 0 -6 -7 -17 -15 -25 -20 -21 -19 -38 3 -29 12 4 14 3 6 -5 -6 -6 -30 -14 -55 -19 -24 -5 -39 -9 -32 -10 7 -1 10 -8 7 -16 -4 -8 -1 -15 5 -15 6 0 11 5 11 11 0 8 6 7 17 -2 15 -12 16 -12 10 4 -3 9 -2 17 3 17 6 0 10 -5 10 -11 0 -6 9 -9 20 -6 13 3 20 0 20 -10 0 -8 -4 -12 -9 -9 -5 3 -11 -3 -14 -13 -3 -15 0 -18 17 -14 19 4 20 3 4 -10 -18 -14 -70 -16 -102 -2 -15 6 -18 5 -14 -6 3 -8 -4 -22 -17 -31 -18 -13 -22 -14 -22 -2 0 8 7 14 16 14 14 0 14 2 1 10 -11 7 -22 1 -42 -21 -16 -17 -28 -25 -28 -20 0 6 -5 11 -11 11 -8 0 -9 -4 0 -13 6 -8 8 -17 4 -21 -4 -4 0 -4 10 0 13 4 17 1 17 -14 0 -12 -5 -24 -12 -28 -7 -4 -8 -3 -4 4 4 7 3 12 -2 12 -15 0 -22 -28 -9 -34 8 -3 5 -10 -8 -21 -11 -9 -19 -20 -18 -25 2 -5 -6 -8 -16 -7 -11 1 -17 7 -14 14 3 7 0 13 -7 13 -6 0 -9 4 -6 9 4 5 1 11 -6 13 -8 3 -3 14 15 31 14 15 27 31 27 35 0 16 34 70 42 66 4 -3 8 -1 8 5 0 5 -6 12 -12 14 -8 3 -7 6 4 6 9 1 20 10 23 21 3 11 10 20 14 20 9 0 38 71 43 105 3 20 34 55 50 55 4 0 8 7 8 16 0 11 6 15 20 11 15 -4 20 0 20 14 0 10 -4 19 -10 19 -5 0 -10 5 -10 10 0 6 7 10 16 10 10 0 14 6 10 15 -3 8 2 19 12 24 22 14 25 13 19 -1z m91 -55 c5 -17 -44 -17 -54 -1 -4 7 -3 8 4 4 7 -4 12 -2 12 4 0 15 32 9 38 -7z m38 -21 c1 -7 0 -8 -3 -2 -2 5 -9 8 -14 4 -5 -3 -9 0 -9 6 0 15 23 7 26 -8z m484 4 c0 -3 -4 -8 -10 -11 -5 -3 -10 -1 -10 4 0 6 5 11 10 11 6 0 10 -2 10 -4z m-525 -26 c3 -5 2 -10 -4 -10 -5 0 -13 5 -16 10 -3 6 -2 10 4 10 5 0 13 -4 16 -10z m-70 -10 c3 -5 1 -10 -4 -10 -6 0 -11 5 -11 10 0 6 2 10 4 10 3 0 8 -4 11 -10z m45 -80 c0 -5 -4 -10 -10 -10 -5 0 -10 5 -10 10 0 6 5 10 10 10 6 0 10 -4 10 -10z m65 0 c-3 -5 -1 -10 4 -10 6 0 11 5 11 11 0 5 5 7 10 4 6 -4 8 -11 5 -16 -4 -5 2 -8 12 -6 10 1 20 -2 23 -8 3 -5 -5 -11 -18 -13 -12 -2 -20 -7 -17 -12 3 -5 1 -11 -4 -15 -6 -3 -8 -12 -5 -20 3 -7 -4 -18 -16 -25 -11 -6 -18 -15 -15 -21 4 -5 -1 -9 -9 -9 -20 0 -20 9 1 32 16 18 16 18 -3 12 -16 -7 -17 -6 -6 8 11 14 10 18 -5 26 -10 5 -24 7 -32 4 -8 -3 -12 1 -9 9 3 8 12 13 22 11 9 -2 16 1 16 7 0 10 28 41 36 41 3 0 2 -4 -1 -10z m-94 -43 c-10 -9 -11 -8 -5 6 3 10 9 15 12 12 3 -3 0 -11 -7 -18z m-12 -57 l-1 -25 -8 25 c-4 14 -8 32 -9 40 -1 13 0 13 9 0 5 -8 9 -26 9 -40z m71 26 c0 -2 -7 -6 -15 -10 -8 -3 -15 -1 -15 4 0 6 7 10 15 10 8 0 15 -2 15 -4z m-71 -90 c10 -11 7 -14 -14 -12 -25 1 -31 7 -18 19 10 11 19 8 32 -7z m-46 -21 c4 -9 -1 -11 -16 -8 -18 4 -19 3 -7 -6 9 -7 10 -11 3 -11 -16 0 -24 15 -17 33 6 18 30 13 37 -8z m-153 -15 c0 -5 -2 -10 -4 -10 -3 0 -8 5 -11 10 -3 6 -1 10 4 10 6 0 11 -4 11 -10z m197 -14 c0 -8 -6 -12 -14 -9 -7 3 -13 11 -13 19 0 7 6 11 13 8 8 -3 14 -11 14 -18z m-112 -67 c-5 -15 -3 -18 12 -12 16 6 16 5 4 -10 -7 -9 -23 -17 -35 -16 -11 0 -16 3 -10 5 7 3 10 14 7 24 -3 12 0 20 6 20 7 0 9 5 5 12 -4 7 -3 8 5 4 6 -4 9 -16 6 -27z m-45 12 c0 -5 -10 -11 -22 -14 -22 -6 -22 -6 -4 8 23 17 26 18 26 6z m-16 -50 c-2 -2 1 -10 7 -18 8 -8 8 -13 1 -13 -6 0 -17 -3 -25 -6 -9 -3 -16 3 -19 18 -3 18 0 23 18 23 12 0 20 -2 18 -4z m-77 -53 c-3 -8 -6 -5 -6 6 -1 11 2 17 5 13 3 -3 4 -12 1 -19z m87 6 c25 -10 19 -22 -9 -16 -14 2 -22 8 -19 13 6 11 8 11 28 3z m41 -14 c3 -5 1 -10 -4 -10 -6 0 -11 5 -11 10 0 6 2 10 4 10 3 0 8 -4 11 -10z m-42 -36 c-4 -11 -9 -11 -26 -2 -12 7 -26 11 -30 10 -5 -1 -6 1 -3 6 9 15 65 2 59 -14z m43 -6 c4 -6 3 -8 -4 -4 -5 3 -12 0 -15 -6 -2 -7 -8 -9 -13 -5 -5 4 -2 12 6 17 19 12 17 12 26 -2z m4 -38 c8 -5 11 -12 7 -16 -4 -4 -15 0 -24 9 -18 18 -8 23 17 7z m-330 -155 c14 -19 14 -19 -2 -6 -10 7 -18 18 -18 24 0 6 1 8 3 6 1 -2 9 -13 17 -24z m0 -29 c0 -3 -4 -8 -10 -11 -5 -3 -10 -1 -10 4 0 6 5 11 10 11 6 0 10 -2 10 -4z m410 -128 c0 -6 -6 -5 -15 2 -8 7 -15 14 -15 16 0 2 7 1 15 -2 8 -4 15 -11 15 -16z m35 -8 c-3 -5 -12 -10 -18 -10 -7 0 -6 4 3 10 19 12 23 12 15 0z m289 -24 c-6 -15 -24 -23 -24 -11 0 8 24 34 28 30 1 -1 0 -10 -4 -19z m-329 -6 c3 -5 -1 -10 -10 -10 -9 0 -13 5 -10 10 3 6 8 10 10 10 2 0 7 -4 10 -10z m25 -45 c-7 -14 -20 -25 -27 -25 -11 0 -9 8 7 31 26 35 40 31 20 -6z m-40 15 c5 8 10 10 10 5 0 -6 -5 -16 -12 -23 -9 -9 -7 -16 9 -31 11 -11 24 -17 29 -13 4 4 4 1 0 -5 -9 -15 -36 -17 -36 -3 0 6 -5 10 -11 10 -6 0 -8 -9 -3 -22 6 -23 6 -22 -18 2 -25 26 -26 55 -2 46 11 -4 13 1 8 22 -4 21 -3 24 5 12 10 -13 12 -13 21 0z m330 -5 c6 3 10 -3 10 -14 0 -12 -7 -21 -15 -21 -8 0 -15 7 -15 15 0 8 -4 15 -10 15 -5 0 -10 5 -10 11 0 8 4 8 15 -1 8 -6 19 -9 25 -5z m-195 -5 c-3 -5 -10 -10 -16 -10 -5 0 -9 5 -9 10 0 6 7 10 16 10 8 0 12 -4 9 -10z m180 -72 c-8 -37 -26 -53 -37 -35 -4 6 -2 14 4 18 7 4 7 9 -1 13 -6 4 -9 12 -5 17 3 5 10 7 15 4 5 -4 9 -1 9 4 0 6 5 11 11 11 7 0 8 -12 4 -32z m-388 -4 c-3 -3 -12 -4 -19 -1 -8 3 -5 6 6 6 11 1 17 -2 13 -5z m313 -84 c0 -5 -5 -10 -11 -10 -5 0 -7 5 -4 10 3 6 8 10 11 10 2 0 4 -4 4 -10z m10 -27 c0 -2 -8 -11 -19 -22 -18 -18 -19 -18 -17 3 0 14 8 22 18 22 10 0 18 -2 18 -3z m-1627 -50 c-7 -19 -31 -4 -26 17 4 15 8 16 18 7 7 -7 10 -17 8 -24z m1577 -8 c0 -8 -2 -15 -4 -15 -2 0 -6 7 -10 15 -3 8 -1 15 4 15 6 0 10 -7 10 -15z m31 -22 c-5 -10 -12 -26 -15 -35 -3 -11 -11 -15 -21 -12 -21 8 -19 15 11 47 28 30 42 31 25 0z m-127 -14 c-7 -11 -34 -12 -34 -1 0 14 11 21 26 15 8 -3 11 -9 8 -14z m-1139 -39 c3 -5 1 -10 -4 -10 -6 0 -11 5 -11 10 0 6 2 10 4 10 3 0 8 -4 11 -10z"/>
						<path d="M5737 7023 c-9 -9 -9 -43 1 -43 18 1 34 19 29 34 -7 17 -19 21 -30 9z"/>
						<path d="M5867 6583 c-4 -3 -7 -11 -7 -17 0 -6 5 -5 12 2 6 6 9 14 7 17 -3 3 -9 2 -12 -2z"/>
						<path d="M5945 6371 c-3 -5 -1 -12 4 -15 5 -3 11 1 15 9 6 16 -9 21 -19 6z"/>
						<path d="M6209 6063 c-9 -2 -19 -15 -22 -29 -5 -29 13 -33 20 -4 4 16 8 18 19 9 11 -9 14 -7 14 10 0 21 -2 22 -31 14z"/>
						<path d="M6177 5963 c-7 -15 0 -64 11 -75 20 -20 25 0 9 34 -9 18 -13 36 -11 40 3 4 3 8 0 8 -3 0 -7 -3 -9 -7z"/>
						<path d="M6235 5930 c-3 -5 -1 -10 4 -10 6 0 11 5 11 10 0 6 -2 10 -4 10 -3 0 -8 -4 -11 -10z"/>
						<path d="M7569 7200 c-13 -10 -19 -19 -13 -20 6 0 19 9 29 20 23 26 14 26 -16 0z"/>
						<path d="M7296 6813 c-6 -14 -5 -15 5 -6 7 7 10 15 7 18 -3 3 -9 -2 -12 -12z"/>
						<path d="M7275 6750 c3 -5 8 -10 11 -10 2 0 4 5 4 10 0 6 -5 10 -11 10 -5 0 -7 -4 -4 -10z"/>
						<path d="M7255 6730 c-3 -5 1 -10 10 -10 9 0 13 5 10 10 -3 6 -8 10 -10 10 -2 0 -7 -4 -10 -10z"/>
						<path d="M7070 6146 c0 -22 17 -28 24 -10 9 22 8 24 -9 24 -8 0 -15 -6 -15 -14z"/>
						<path d="M7002 6042 c-9 -7 -8 -13 8 -27 11 -10 20 -13 20 -7 0 7 -5 12 -11 12 -6 0 -9 7 -5 15 6 17 6 18 -12 7z"/>
						<path d="M6971 5614 c0 -11 3 -14 6 -6 3 7 2 16 -1 19 -3 4 -6 -2 -5 -13z"/>
						<path d="M6965 5580 c-3 -5 -2 -17 3 -26 8 -14 10 -14 21 0 13 15 8 36 -9 36 -5 0 -12 -4 -15 -10z"/>
						<path d="M5249 6810 c-13 -10 -19 -19 -13 -20 6 0 19 9 29 20 23 26 14 26 -16 0z"/>
						<path d="M5200 6790 c0 -5 5 -10 10 -10 6 0 10 5 10 10 0 6 -4 10 -10 10 -5 0 -10 -4 -10 -10z"/>
						<path d="M5216 6741 c-4 -7 -5 -15 -2 -18 9 -9 19 4 14 18 -4 11 -6 11 -12 0z"/>
						<path d="M5325 6710 c-3 -5 -1 -10 4 -10 6 0 11 5 11 10 0 6 -2 10 -4 10 -3 0 -8 -4 -11 -10z"/>
						<path d="M5196 6685 c4 -8 10 -15 16 -15 5 0 7 4 4 9 -4 5 0 12 6 14 7 3 3 6 -9 6 -16 1 -21 -3 -17 -14z"/>
						<path d="M5140 6600 c0 -5 7 -10 16 -10 8 0 12 5 9 10 -3 6 -10 10 -16 10 -5 0 -9 -4 -9 -10z"/>
						<path d="M5226 6505 c-9 -26 -7 -32 5 -12 6 10 9 21 6 23 -2 3 -7 -2 -11 -11z"/>
						<path d="M7800 7036 c0 -2 7 -9 15 -16 9 -7 15 -8 15 -2 0 5 -7 12 -15 16 -8 3 -15 4 -15 2z"/>
						<path d="M8585 6240 c-3 -5 1 -10 9 -10 9 0 16 5 16 10 0 6 -4 10 -9 10 -6 0 -13 -4 -16 -10z"/>
						<path d="M8154 6035 c-4 -8 -12 -15 -19 -15 -7 0 -16 -7 -19 -16 -8 -22 -8 -24 7 -24 15 0 57 45 57 60 0 16 -20 12 -26 -5z"/>
						<path d="M8202 5765 c5 -5 -2 -13 -13 -19 -22 -11 -23 -31 -2 -31 6 0 15 -4 19 -8 14 -13 44 -7 44 9 0 12 -6 15 -23 11 -12 -4 -29 -2 -37 3 -13 8 -13 10 2 10 22 0 32 17 16 26 -7 4 -10 4 -6 -1z"/>
						<path d="M8105 5670 c-3 -5 -1 -10 4 -10 6 0 11 5 11 10 0 6 -2 10 -4 10 -3 0 -8 -4 -11 -10z"/>
						<path d="M8040 5580 c0 -5 5 -10 11 -10 5 0 7 5 4 10 -3 6 -8 10 -11 10 -2 0 -4 -4 -4 -10z"/>
						<path d="M8016 5552 c-3 -5 1 -9 9 -9 8 0 12 4 9 9 -3 4 -7 8 -9 8 -2 0 -6 -4 -9 -8z"/>
						<path d="M7873 5443 c-7 -3 -13 -9 -13 -15 0 -5 -7 -16 -15 -25 -9 -8 -14 -18 -11 -20 7 -7 36 23 36 36 0 5 8 11 18 13 9 2 13 6 7 9 -5 4 -16 4 -22 2z"/>
						<path d="M7800 5362 c0 -7 -4 -10 -10 -7 -5 3 -10 0 -10 -7 0 -8 9 -14 20 -15 22 -2 25 5 10 27 -7 11 -10 11 -10 2z"/>
						<path d="M7694 5290 c-33 -22 -68 -27 -99 -15 -16 5 -17 5 -5 -4 13 -10 13 -12 0 -21 -12 -8 -8 -10 15 -10 69 -1 75 -2 69 -12 -4 -7 0 -7 13 0 26 14 49 42 35 42 -6 0 -14 -4 -17 -10 -3 -5 -11 -10 -17 -10 -6 0 1 11 16 25 22 21 32 35 24 35 -2 0 -17 -9 -34 -20z"/>
						<path d="M7630 5220 c0 -5 5 -10 11 -10 5 0 7 5 4 10 -3 6 -8 10 -11 10 -2 0 -4 -4 -4 -10z"/>
						<path d="M7531 5201 c-7 -11 -17 -21 -24 -20 -9 0 -9 2 1 6 6 2 12 9 12 14 0 6 -7 6 -19 0 -10 -6 -21 -8 -23 -5 -3 3 -8 -9 -10 -26 -4 -25 -1 -30 15 -30 13 0 17 5 13 15 -7 20 18 19 38 -1 15 -15 21 -8 17 19 0 4 11 7 27 8 l27 0 -25 10 c-13 6 -27 15 -31 21 -4 7 -11 3 -18 -11z"/>
						<path d="M7437 5094 c-3 -5 1 -15 9 -22 16 -14 18 -5 5 17 -5 7 -11 9 -14 5z"/>
						<path d="M7295 4950 c-3 -5 -1 -10 4 -10 6 0 11 5 11 10 0 6 -2 10 -4 10 -3 0 -8 -4 -11 -10z"/>
						<path d="M7100 4901 c0 -9 30 -24 36 -18 2 1 -6 8 -16 15 -11 7 -20 8 -20 3z"/>
						<path d="M7225 4850 c3 -5 8 -10 11 -10 2 0 4 5 4 10 0 6 -5 10 -11 10 -5 0 -7 -4 -4 -10z"/>
						<path d="M7260 4780 c0 -5 -6 -7 -13 -4 -8 3 -18 -6 -25 -21 -15 -33 3 -33 41 0 31 27 33 35 12 35 -8 0 -15 -4 -15 -10z"/>
						<path d="M6941 4746 c-13 -7 -20 -16 -15 -19 5 -3 20 3 33 14 27 22 17 25 -18 5z"/>
						<path d="M7149 4693 c-1 -10 -1 -27 0 -38 2 -17 0 -17 -8 -5 -9 13 -11 12 -11 -4 0 -12 5 -16 16 -12 9 3 18 6 20 6 2 0 4 16 4 35 0 35 -19 51 -21 18z"/>
						<path d="M7110 4680 c-9 -6 -10 -10 -3 -10 6 0 15 5 18 10 8 12 4 12 -15 0z"/>
						<path d="M7007 4562 c-15 -15 -27 -31 -27 -35 0 -5 -11 -20 -25 -34 -27 -30 -25 -45 3 -20 10 10 23 17 27 17 17 0 55 53 55 77 0 29 -1 29 -33 -5z"/>
						<path d="M6896 4559 c-16 -16 -17 -19 -4 -19 9 0 18 -6 21 -12 2 -7 4 2 4 20 0 17 -1 32 -1 31 -1 0 -10 -9 -20 -20z"/>
						<path d="M6845 4493 c-19 -5 -35 -20 -35 -35 0 -13 36 -3 54 14 26 27 23 31 -19 21z"/>
						<path d="M6910 4430 c-10 -19 -10 -20 9 -8 22 13 28 28 11 28 -5 0 -14 -9 -20 -20z"/>
						<path d="M6769 4408 c14 -19 8 -23 -33 -18 -11 1 -16 -3 -11 -10 4 -6 -1 -20 -11 -31 -13 -15 -14 -19 -3 -20 8 0 5 -4 -6 -8 -17 -7 -17 -8 8 -13 22 -4 27 -2 27 14 0 11 5 16 10 13 12 -8 3 -46 -14 -57 -7 -5 -7 -8 -1 -8 17 0 47 41 41 56 -3 7 0 16 6 20 6 4 8 3 5 -2 -3 -6 -1 -16 4 -24 8 -11 9 -7 4 15 -3 17 -7 38 -9 48 -1 9 -9 23 -16 30 -12 10 -12 9 -1 -5z m-4 -48 c3 -5 1 -10 -4 -10 -6 0 -11 5 -11 10 0 6 2 10 4 10 3 0 8 -4 11 -10z"/>
						<path d="M6728 4403 c7 -3 16 -2 19 1 4 3 -2 6 -13 5 -11 0 -14 -3 -6 -6z"/>
						<path d="M6830 4360 c0 -5 5 -10 11 -10 5 0 7 5 4 10 -3 6 -8 10 -11 10 -2 0 -4 -4 -4 -10z"/>
						<path d="M6645 4329 c-9 -14 0 -22 18 -17 13 2 13 5 2 15 -10 9 -16 9 -20 2z"/>
						<path d="M4892 6026 c7 -8 15 -12 17 -11 5 6 -10 25 -20 25 -5 0 -4 -6 3 -14z"/>
						<path d="M4210 5156 c0 -2 7 -7 16 -10 8 -3 12 -2 9 4 -6 10 -25 14 -25 6z"/>
						<path d="M6000 5199 c0 -11 4 -18 10 -14 5 3 7 12 3 20 -7 21 -13 19 -13 -6z"/>
						<path d="M4217 4933 c-4 -3 -7 -11 -7 -17 0 -6 5 -5 12 2 6 6 9 14 7 17 -3 3 -9 2 -12 -2z"/>
						<path d="M4232 4788 c5 -15 28 -23 28 -10 0 5 -7 13 -16 16 -10 4 -14 1 -12 -6z"/>
						<path d="M4250 4701 c0 -9 30 -24 36 -18 2 1 -6 8 -16 15 -11 7 -20 8 -20 3z"/>
						<path d="M3935 4660 c-3 -5 -1 -10 4 -10 6 0 11 5 11 10 0 6 -2 10 -4 10 -3 0 -8 -4 -11 -10z"/>
						<path d="M3930 4410 c20 -13 40 -13 40 0 0 6 -12 10 -27 10 -22 0 -25 -2 -13 -10z"/>
						<path d="M3940 4380 c0 -5 7 -7 15 -4 8 4 15 8 15 10 0 2 -7 4 -15 4 -8 0 -15 -4 -15 -10z"/>
						<path d="M3893 4338 c7 -21 -3 -31 -20 -17 -10 9 -13 8 -13 -4 0 -21 29 -30 45 -14 10 11 10 17 -3 33 -11 14 -13 15 -9 2z"/>
						<path d="M3956 4323 c-6 -14 -5 -15 5 -6 7 7 10 15 7 18 -3 3 -9 -2 -12 -12z"/>
						<path d="M4070 4206 c0 -2 7 -6 15 -10 8 -3 15 -1 15 4 0 6 -7 10 -15 10 -8 0 -15 -2 -15 -4z"/>
						<path d="M4218 4203 c6 -2 18 -2 25 0 6 3 1 5 -13 5 -14 0 -19 -2 -12 -5z"/>
						<path d="M4130 4170 c0 -5 7 -7 15 -4 8 4 15 8 15 10 0 2 -7 4 -15 4 -8 0 -15 -4 -15 -10z"/>
						<path d="M8710 4580 c26 -22 45 -26 56 -9 11 18 -13 34 -31 19 -10 -8 -15 -9 -15 -1 0 6 -7 11 -17 11 -13 0 -11 -4 7 -20z"/>
						<path d="M8803 4543 c14 -14 19 -15 29 -4 9 9 9 12 1 7 -6 -3 -14 -2 -18 4 -3 5 -11 10 -18 10 -6 0 -4 -7 6 -17z"/>
						<path d="M8445 4530 c-3 -5 -1 -10 4 -10 6 0 11 5 11 10 0 6 -2 10 -4 10 -3 0 -8 -4 -11 -10z"/>
						<path d="M8390 4470 c0 -5 7 -7 15 -4 8 4 15 8 15 10 0 2 -7 4 -15 4 -8 0 -15 -4 -15 -10z"/>
						<path d="M8758 4433 c-9 -2 -19 -11 -22 -20 -5 -12 -1 -14 16 -9 13 3 29 6 36 6 6 0 12 4 12 9 0 12 -21 18 -42 14z"/>
						<path d="M8331 4205 c-12 -14 -26 -23 -30 -20 -4 2 -15 -5 -25 -17 -14 -16 -15 -23 -5 -32 9 -8 10 -8 5 2 -5 9 5 18 33 29 23 9 41 22 41 30 0 7 5 13 10 13 6 0 10 5 10 10 0 16 -14 11 -39 -15z"/>
						<path d="M7870 4201 c0 -6 -7 -11 -15 -11 -8 0 -15 -5 -15 -10 0 -7 8 -7 23 1 30 16 30 16 18 24 -6 3 -11 1 -11 -4z"/>
						<path d="M7650 4110 c-13 -8 -13 -10 2 -10 9 0 20 5 23 10 8 13 -5 13 -25 0z"/>
						<path d="M7480 4069 c0 -5 5 -7 10 -4 6 3 10 8 10 11 0 2 -4 4 -10 4 -5 0 -10 -5 -10 -11z"/>
						<path d="M6791 4051 c-23 -15 3 -20 29 -5 22 12 23 13 5 13 -11 1 -26 -3 -34 -8z"/>
						<path d="M6848 4033 c7 -3 16 -2 19 1 4 3 -2 6 -13 5 -11 0 -14 -3 -6 -6z"/>
						<path d="M6585 4000 c-3 -5 -1 -10 4 -10 6 0 11 5 11 10 0 6 -2 10 -4 10 -3 0 -8 -4 -11 -10z"/>
						<path d="M6622 3993 c-7 -7 -9 -13 -5 -14 4 0 27 -2 50 -5 24 -3 44 0 48 6 4 7 -2 9 -19 4 -18 -4 -28 -2 -31 8 -7 18 -27 19 -43 1z"/>
						<path d="M6625 3940 c-3 -5 -1 -10 4 -10 6 0 11 5 11 10 0 6 -2 10 -4 10 -3 0 -8 -4 -11 -10z"/>
						<path d="M6740 3914 l-35 -13 32 0 c17 -1 35 4 38 10 10 16 3 16 -35 3z"/>
						<path d="M6035 3860 c-3 -5 -1 -10 4 -10 6 0 11 5 11 10 0 6 -2 10 -4 10 -3 0 -8 -4 -11 -10z"/>
						<path d="M7500 3839 c0 -5 5 -7 10 -4 6 3 10 8 10 11 0 2 -4 4 -10 4 -5 0 -10 -5 -10 -11z"/>
						<path d="M6065 3790 c3 -5 8 -10 11 -10 2 0 4 5 4 10 0 6 -5 10 -11 10 -5 0 -7 -4 -4 -10z"/>
						<path d="M6190 3790 c-8 -5 -22 -7 -31 -5 -9 3 -22 -1 -29 -10 -11 -13 -8 -15 21 -11 44 6 69 16 69 27 0 12 -11 11 -30 -1z"/>
						<path d="M5778 3753 c7 -3 16 -2 19 1 4 3 -2 6 -13 5 -11 0 -14 -3 -6 -6z"/>
						<path d="M5628 3743 c6 -2 18 -2 25 0 6 3 1 5 -13 5 -14 0 -19 -2 -12 -5z"/>
						<path d="M5460 3730 c-9 -6 -10 -10 -3 -10 6 0 15 5 18 10 8 12 4 12 -15 0z"/>
						<path d="M6710 3620 c0 -5 9 -10 19 -10 11 0 21 -4 23 -8 2 -5 17 -12 33 -16 l30 -7 -27 25 c-27 25 -78 36 -78 16z"/>
						<path d="M4627 3604 c-3 -3 -3 -13 1 -22 5 -14 3 -15 -10 -4 -12 10 -18 9 -28 -3 -9 -11 -17 -12 -31 -5 -15 8 -17 7 -13 -5 4 -8 12 -15 19 -15 7 0 12 -8 11 -17 0 -10 5 -17 12 -15 6 1 12 -6 12 -15 0 -15 2 -16 10 -3 5 8 10 10 10 4 0 -19 39 -24 49 -6 10 19 79 25 99 9 9 -7 12 -4 12 12 0 17 -4 21 -19 16 -11 -3 -22 -1 -25 4 -4 6 -19 4 -41 -5 -41 -17 -55 -18 -55 -3 0 5 4 8 9 5 5 -3 20 3 32 14 18 14 20 19 9 20 -9 0 -21 -5 -27 -11 -8 -8 -13 -5 -18 11 -5 15 -2 26 6 31 11 7 11 9 -2 9 -9 0 -18 -3 -22 -6z"/>
						<path d="M6630 3590 c-12 -8 -11 -10 8 -10 12 0 22 5 22 10 0 13 -11 13 -30 0z"/>
						<path d="M6540 3583 c8 -3 18 -9 21 -14 3 -6 15 -6 30 0 15 6 18 10 8 10 -9 1 -29 3 -45 5 -16 2 -22 1 -14 -1z"/>
						<path d="M6626 3561 c-3 -4 10 -8 29 -9 19 -1 35 2 35 7 0 10 -58 12 -64 2z"/>
						<path d="M6706 3558 c3 -4 11 -5 19 -1 21 7 19 12 -4 10 -11 0 -18 -5 -15 -9z"/>
						<path d="M6430 3540 c-8 -5 -10 -10 -5 -10 6 0 17 5 25 10 8 5 11 10 5 10 -5 0 -17 -5 -25 -10z"/>
						<path d="M6295 3530 c-13 -6 -15 -9 -5 -9 8 0 22 4 30 9 18 12 2 12 -25 0z"/>
						<path d="M4430 3520 c0 -5 7 -10 15 -10 8 0 15 5 15 10 0 6 -7 10 -15 10 -8 0 -15 -4 -15 -10z"/>
						<path d="M4471 3511 c-8 -14 -7 -20 3 -24 9 -4 14 3 14 19 0 29 -4 30 -17 5z"/>
						<path d="M4514 3511 c4 -5 0 -11 -6 -14 -7 -3 -4 -5 8 -4 23 1 29 27 7 27 -8 0 -12 -4 -9 -9z"/>
						<path d="M3595 3500 c-3 -5 -1 -10 4 -10 6 0 11 5 11 10 0 6 -2 10 -4 10 -3 0 -8 -4 -11 -10z"/>
						<path d="M3765 3460 c3 -5 8 -10 11 -10 2 0 4 5 4 10 0 6 -5 10 -11 10 -5 0 -7 -4 -4 -10z"/>
						<path d="M4535 3460 c4 -6 11 -8 16 -5 14 9 11 15 -7 15 -8 0 -12 -5 -9 -10z"/>
						<path d="M6260 3428 c0 -5 11 -8 25 -8 14 0 25 4 25 9 0 5 -11 8 -25 7 -14 0 -25 -4 -25 -8z"/>
						<path d="M3565 3421 c-2 -4 5 -12 16 -19 15 -10 19 -10 19 2 0 8 6 16 13 19 6 2 0 4 -16 4 -15 0 -29 -3 -32 -6z"/>
						<path d="M4122 3410 c0 -14 2 -19 5 -12 2 6 2 18 0 25 -3 6 -5 1 -5 -13z"/>
						<path d="M4145 3420 c-3 -5 1 -10 10 -10 9 0 13 5 10 10 -3 6 -8 10 -10 10 -2 0 -7 -4 -10 -10z"/>
						<path d="M6105 3391 c4 -7 -4 -11 -19 -11 -14 0 -26 -4 -26 -9 0 -12 39 -21 45 -10 3 4 12 6 20 2 23 -8 18 10 -6 25 -12 8 -18 9 -14 3z"/>
						<path d="M5975 3360 c-11 -5 -33 -9 -48 -9 -44 -1 -97 -30 -97 -53 0 -12 -12 -24 -33 -33 -37 -15 -78 -10 -71 9 5 14 -52 10 -61 -4 -3 -5 5 -6 17 -3 19 4 20 3 8 -6 -18 -13 -60 -14 -60 -2 0 6 -13 6 -32 -1 -18 -5 -40 -10 -48 -10 -8 -1 -28 -10 -43 -21 -16 -11 -39 -19 -51 -19 -13 0 -23 -7 -23 -15 0 -10 7 -13 25 -8 14 3 45 10 68 14 42 8 43 8 32 -13 -10 -18 -9 -19 4 -9 8 7 29 11 47 9 28 -3 31 -1 25 17 -5 16 -3 19 10 14 11 -4 16 -1 17 11 0 14 2 14 9 -3 5 -11 9 -14 9 -6 1 7 7 11 14 8 7 -2 37 -1 67 4 40 6 56 5 62 -4 5 -8 8 -7 8 5 0 9 -6 19 -12 21 -12 5 16 11 35 8 4 -1 10 6 13 14 4 8 12 15 19 15 17 0 75 33 75 43 0 4 12 7 28 7 37 0 60 15 37 24 -20 7 -24 7 -50 -4z m-65 -40 c-20 -13 -43 -13 -35 0 3 6 16 10 28 10 18 0 19 -2 7 -10z"/>
						<path d="M4300 3345 c0 -8 4 -15 10 -15 5 0 7 7 4 15 -4 8 -8 15 -10 15 -2 0 -4 -7 -4 -15z"/>
						<path d="M4890 3330 c-7 -14 -7 -20 0 -20 5 0 10 6 10 14 0 8 6 17 13 19 9 4 9 6 0 6 -7 1 -17 -8 -23 -19z"/>
						<path d="M6158 3343 c6 -2 18 -2 25 0 6 3 1 5 -13 5 -14 0 -19 -2 -12 -5z"/>
						<path d="M4455 3310 c-3 -6 1 -7 9 -4 18 7 21 14 7 14 -6 0 -13 -4 -16 -10z"/>
						<path d="M5007 3209 c7 -7 15 -10 18 -7 3 3 -2 9 -12 12 -14 6 -15 5 -6 -5z"/>
						<path d="M5680 3190 c0 -5 5 -10 11 -10 5 0 7 5 4 10 -3 6 -8 10 -11 10 -2 0 -4 -4 -4 -10z"/>
						<path d="M5338 3183 c7 -3 16 -2 19 1 4 3 -2 6 -13 5 -11 0 -14 -3 -6 -6z"/>
						<path d="M3940 3111 c6 -12 17 -21 25 -21 21 0 19 5 -11 25 -25 16 -25 16 -14 -4z"/>
						<path d="M4340 3110 c0 -5 7 -7 15 -4 8 4 15 8 15 10 0 2 -7 4 -15 4 -8 0 -15 -4 -15 -10z"/>
						<path d="M4450 3116 c0 -2 7 -9 15 -16 13 -11 14 -10 9 4 -5 14 -24 23 -24 12z"/>
						<path d="M3387 3099 c7 -7 15 -10 18 -7 3 3 -2 9 -12 12 -14 6 -15 5 -6 -5z"/>
						<path d="M3985 3071 c-5 -10 48 -53 79 -63 20 -7 20 -7 2 5 -10 7 -32 24 -47 39 -16 15 -31 23 -34 19z"/>
						<path d="M4075 2940 c-13 -6 -15 -9 -5 -9 8 0 22 4 30 9 18 12 2 12 -25 0z"/>
						<path d="M3576 2907 c3 -10 9 -15 12 -12 3 3 0 11 -7 18 -10 9 -11 8 -5 -6z"/>
						<path d="M3560 2888 c0 -9 5 -20 10 -23 13 -8 13 5 0 25 -8 13 -10 13 -10 -2z"/>
						<path d="M3608 2883 c7 -3 16 -2 19 1 4 3 -2 6 -13 5 -11 0 -14 -3 -6 -6z"/>
						<path d="M3570 2839 c0 -5 5 -7 10 -4 6 3 10 8 10 11 0 2 -4 4 -10 4 -5 0 -10 -5 -10 -11z"/>
						<path d="M3410 2703 c0 -7 4 -13 9 -13 5 0 11 6 14 13 3 8 -1 14 -9 14 -8 0 -14 -6 -14 -14z"/>
						<path d="M2935 2670 c-3 -5 1 -10 10 -10 9 0 13 5 10 10 -3 6 -8 10 -10 10 -2 0 -7 -4 -10 -10z"/>
						<path d="M3100 2650 c0 -5 5 -10 11 -10 5 0 7 5 4 10 -3 6 -8 10 -11 10 -2 0 -4 -4 -4 -10z"/>
						<path d="M3327 2595 c-10 -7 -14 -16 -8 -19 5 -3 11 -1 13 5 7 20 36 -2 32 -24 -4 -21 -4 -21 4 -2 5 11 10 24 11 30 4 16 -34 23 -52 10z"/>
						<path d="M3465 2600 c3 -5 8 -10 11 -10 2 0 4 5 4 10 0 6 -5 10 -11 10 -5 0 -7 -4 -4 -10z"/>
						<path d="M3014 2413 c-9 -14 -7 -21 5 -31 9 -8 11 -11 4 -8 -7 4 -9 -1 -5 -16 5 -22 5 -22 16 2 6 14 15 29 21 33 6 4 1 7 -10 5 -14 -2 -19 2 -17 15 4 22 0 22 -14 0z"/>
						<path d="M2990 2350 c0 -5 5 -10 11 -10 5 0 7 5 4 10 -3 6 -8 10 -11 10 -2 0 -4 -4 -4 -10z"/>
						<path d="M3255 2340 c-3 -5 -2 -10 4 -10 5 0 13 5 16 10 3 6 2 10 -4 10 -5 0 -13 -4 -16 -10z"/>
						<path d="M2880 2331 c0 -5 9 -7 20 -4 11 3 20 7 20 9 0 2 -9 4 -20 4 -11 0 -20 -4 -20 -9z"/>
						<path d="M2827 2103 c-14 -13 -6 -24 13 -18 13 4 22 1 26 -9 3 -9 10 -13 15 -10 14 8 10 24 -6 24 -8 0 -15 5 -15 10 0 11 -23 14 -33 3z"/>
						<path d="M2847 2039 c7 -7 15 -10 18 -7 3 3 -2 9 -12 12 -14 6 -15 5 -6 -5z"/>
						<path d="M2765 1975 l-30 -14 33 -1 c22 0 32 5 32 15 0 8 -1 15 -2 14 -2 0 -16 -7 -33 -14z"/>
						<path d="M2700 1932 c0 -4 18 -6 40 -4 22 2 40 6 40 8 0 2 -18 4 -40 4 -22 0 -40 -3 -40 -8z"/>
						<path d="M2865 1910 c-4 -6 1 -10 10 -10 10 0 13 -5 9 -12 -4 -7 -3 -8 4 -4 7 4 12 11 12 16 0 12 -29 20 -35 10z"/>
						<path d="M2830 1899 c0 -5 5 -7 10 -4 6 3 10 8 10 11 0 2 -4 4 -10 4 -5 0 -10 -5 -10 -11z"/>
						<path d="M2680 1820 c0 -17 36 -30 48 -18 9 9 18 8 37 0 32 -15 58 -16 50 -2 -4 6 -11 8 -16 4 -5 -3 -8 0 -7 8 3 14 -16 15 -71 3 -25 -6 -32 -5 -27 3 4 7 2 12 -3 12 -6 0 -11 -4 -11 -10z"/>
						<path d="M2757 1775 c-5 -11 0 -15 16 -15 12 0 18 4 12 8 -5 4 -13 11 -16 15 -4 4 -9 1 -12 -8z"/>
						<path d="M3550 4300 c0 -5 5 -10 11 -10 5 0 7 5 4 10 -3 6 -8 10 -11 10 -2 0 -4 -4 -4 -10z"/>
						<path d="M7705 4250 c-3 -5 -2 -10 4 -10 5 0 13 5 16 10 3 6 2 10 -4 10 -5 0 -13 -4 -16 -10z"/>
						<path d="M4903 3073 c-7 -2 -13 -9 -13 -15 0 -6 7 -8 15 -4 8 3 15 1 15 -4 0 -5 -8 -11 -17 -13 -15 -4 -15 -5 -2 -6 9 0 22 6 29 14 9 11 9 15 1 15 -7 0 -9 5 -6 10 7 11 -2 12 -22 3z"/>
						<path d="M2534 1649 c-3 -6 -1 -16 5 -22 8 -8 11 -5 11 11 0 24 -5 28 -16 11z"/>
						<path d="M2710 1630 c0 -6 7 -10 15 -10 8 0 15 2 15 4 0 2 -7 6 -15 10 -8 3 -15 1 -15 -4z"/>
						<path d="M2350 1194 c0 -8 5 -12 10 -9 6 4 8 11 5 16 -9 14 -15 11 -15 -7z"/>
						<path d="M2565 1290 c3 -5 8 -10 11 -10 2 0 4 5 4 10 0 6 -5 10 -11 10 -5 0 -7 -4 -4 -10z"/>
						<path d="M2275 700 c3 -5 8 -10 11 -10 2 0 4 5 4 10 0 6 -5 10 -11 10 -5 0 -7 -4 -4 -10z"/>
						<path d="M2055 650 c3 -5 8 -10 11 -10 2 0 4 5 4 10 0 6 -5 10 -11 10 -5 0 -7 -4 -4 -10z"/>
						<path d="M1941 617 c-9 -12 -8 -16 8 -20 11 -2 25 0 31 7 9 8 11 6 5 -11 -5 -19 -2 -23 14 -23 26 0 29 35 4 43 -10 2 -25 8 -34 11 -9 4 -21 1 -28 -7z"/>
						<path d="M2205 620 c-3 -5 -1 -10 4 -10 6 0 11 5 11 10 0 6 -2 10 -4 10 -3 0 -8 -4 -11 -10z"/>
						<path d="M2080 590 c0 -5 12 -10 28 -9 24 0 25 1 7 9 -27 12 -35 12 -35 0z"/>
						<path d="M1915 560 c-3 -6 1 -7 9 -4 9 3 16 1 16 -5 0 -6 -6 -11 -14 -11 -8 0 -18 -4 -21 -10 -12 -19 14 -10 42 15 l28 24 -27 1 c-15 0 -30 -4 -33 -10z"/>
						<path d="M2318 513 c7 -3 16 -2 19 1 4 3 -2 6 -13 5 -11 0 -14 -3 -6 -6z"/>
						<path d="M1900 501 c0 -5 5 -13 10 -16 6 -3 10 -2 10 4 0 5 -4 13 -10 16 -5 3 -10 2 -10 -4z"/>
						<path d="M1886 455 c4 -8 7 -15 9 -15 2 0 5 7 9 15 3 9 0 15 -9 15 -9 0 -12 -6 -9 -15z"/>
						<path d="M1855 450 c3 -5 8 -10 11 -10 2 0 4 5 4 10 0 6 -5 10 -11 10 -5 0 -7 -4 -4 -10z"/>
						<path d="M2009 455 c-1 -5 -1 -14 0 -19 1 -5 -8 -6 -19 -3 -17 4 -19 3 -10 -8 12 -14 92 -17 84 -3 -3 4 -10 8 -16 8 -6 0 -17 8 -24 18 -7 9 -14 13 -15 7z"/>
						<path d="M2351 241 c-8 -5 -10 -14 -6 -21 6 -9 10 -8 17 4 12 21 7 28 -11 17z"/>
						<path d="M1725 220 c3 -5 8 -10 11 -10 2 0 4 5 4 10 0 6 -5 10 -11 10 -5 0 -7 -4 -4 -10z"/>
						<path d="M1770 215 c-8 -9 -8 -15 -2 -15 12 0 26 19 19 26 -2 2 -10 -2 -17 -11z"/>
					</g>
				</svg>